<?xml version="1.0" standalone="no"?>
<!DOCTYPE svg PUBLIC "-//W3C//DTD SVG 1.1//EN" "http://www.w3.org/Graphics/SVG/1.1/DTD/svg11.dtd" >
<svg xmlns="http://www.w3.org/2000/svg" xmlns:xlink="http://www.w3.org/1999/xlink" version="1.1">
<metadata>
Created by FontForge 20161013 at Wed Mar  4 14:07:11 2015
 By ,,,
Copyright (c) 2011 by Hannes von Doehren, Livius Dietzel. All rights reserved.
</metadata>
<defs>
<font id="BrixSlab-BlackItalic" horiz-adv-x="560" >
  <font-face 
    font-family="Brix Slab Black"
    font-weight="900"
    font-style="italic"
    font-stretch="normal"
    units-per-em="1000"
    panose-1="2 0 0 0 0 0 0 0 0 0"
    ascent="720"
    descent="-280"
    x-height="456"
    cap-height="676"
    bbox="-218 -227 1099 1007"
    underline-thickness="50"
    underline-position="-200"
    slope="-10"
    unicode-range="U+0020-FB02"
  />
<missing-glyph horiz-adv-x="513" 
d="M50 0v656h413v-656h-413zM88 38h337v580h-337v-580z" />
    <glyph glyph-name="fi" unicode="fi" horiz-adv-x="636" 
d="M-97 -214l21 109q51 -3 68 -3q36 0 43 44l70 408h-80l21 112h79l17 100q11 64 54 107t117 43q53 0 87 -12l-21 -109q-51 3 -63 3q-23 0 -33.5 -10.5t-14.5 -33.5l-15 -88h322l-61 -345h82l-20 -111h-302l19 111h92l41 233h-193l-72 -420q-14 -79 -56.5 -114.5
t-128.5 -35.5q-39 0 -73 12zM520 536q-66 0 -66 58q0 45 26 68.5t67 23.5q27 0 45.5 -16t18.5 -46q0 -44 -27 -66t-64 -22z" />
    <glyph glyph-name="fl" unicode="fl" horiz-adv-x="583" 
d="M350 123l82 465q-34 7 -64 7q-94 0 -108 -73l-11 -66h94l-20 -112h-94l-69 -420q-13 -79 -56 -114.5t-129 -35.5q-39 0 -73 12l21 109q51 -3 68 -3q35 0 43 44l71 408h-60l20 112h60l13 73q14 80 72.5 128.5t164.5 48.5q109 0 197 -36l-91 -531q-4 -28 25 -28q26 0 51 5
l-21 -117q-48 -10 -77 -10q-70 0 -94.5 38.5t-14.5 95.5z" />
    <glyph glyph-name="f_f" unicode="ff" horiz-adv-x="652" 
d="M202 -214l21 109q51 -3 68 -3q36 0 43 44l70 408h-172l-72 -420q-14 -78 -54.5 -114t-118.5 -36q-51 0 -85 12l21 109q51 -3 68 -3q36 0 43 44l70 408h-80l21 112h79l17 100q11 64 53 107t112 43q59 0 93 -12l-21 -109q-51 3 -63 3q-23 0 -33.5 -10.5t-14.5 -33.5
l-15 -88h172l17 100q11 64 54 107t116 43q54 0 88 -12l-21 -109q-51 3 -63 3q-23 0 -33.5 -10.5t-14.5 -33.5l-15 -88h122l-20 -112h-122l-72 -420q-14 -78 -54 -114t-114 -36q-56 0 -90 12z" />
    <glyph glyph-name=".notdef" horiz-adv-x="513" 
d="M50 0v656h413v-656h-413zM88 38h337v580h-337v-580z" />
    <glyph glyph-name=".null" horiz-adv-x="0" 
 />
    <glyph glyph-name=".null" horiz-adv-x="0" 
 />
    <glyph glyph-name="nonmarkingreturn" horiz-adv-x="333" 
 />
    <glyph glyph-name="space" unicode=" " horiz-adv-x="200" 
 />
    <glyph glyph-name="exclam" unicode="!" horiz-adv-x="273" 
d="M184 229h-112l56 447h159zM87 -6q-32 0 -51.5 19t-19.5 48q0 40 29 67t70 27q32 0 51.5 -19t19.5 -49q0 -39 -29.5 -66t-69.5 -27z" />
    <glyph glyph-name="quotedbl" unicode="&#x22;" horiz-adv-x="374" 
d="M253 432l33 244h120l-54 -244h-99zM75 432l31 244h123l-56 -244h-98z" />
    <glyph glyph-name="numbersign" unicode="#" horiz-adv-x="658" 
d="M112 164h-94l39 117h95l37 120h-93l38 117h94l51 158h127l-52 -158h86l51 158h126l-50 -158h96l-40 -117h-95l-38 -120h96l-39 -117h-97l-53 -164h-127l54 164h-85l-54 -164h-127zM315 401l-37 -120h85l38 120h-86z" />
    <glyph glyph-name="dollar" unicode="$" 
d="M251 -103h-79l16 93q-103 7 -177 47l26 185h116l8 -110q13 -8 47 -13l31 180l-25 11q-69 31 -98 72t-28 113q0 68 56.5 133t166.5 77l13 74h79l-13 -74q99 -9 165 -49l-32 -180h-116v109q-13 4 -37 8l-31 -173l34 -12q72 -27 101 -70t29 -110q0 -53 -24 -99t-79 -79
t-133 -39zM350 183q0 46 -37 65l-26 -146q63 18 63 81zM239 490q0 -38 27 -58l24 134q-51 -23 -51 -76z" />
    <glyph glyph-name="percent" unicode="%" horiz-adv-x="794" 
d="M713 676l-3 -15l-516 -661h-92l2 15l514 661h95zM271 686q70 0 106 -39t36 -96q0 -85 -50.5 -142t-144.5 -57q-69 0 -105 39t-36 97q0 84 51.5 141t142.5 57zM234 458q33 0 50 20.5t17 55.5q0 45 -46 45q-32 0 -49 -20t-17 -55q0 -46 45 -46zM597 323q70 0 106 -39
t36 -96q0 -85 -50.5 -142t-144.5 -57q-69 0 -105 39t-36 97q0 84 51.5 141t142.5 57zM559 95q68 0 68 76q0 45 -46 45q-32 0 -49 -20t-17 -55q0 -46 44 -46z" />
    <glyph glyph-name="ampersand" unicode="&#x26;" horiz-adv-x="624" 
d="M465 -11q-85 0 -103 67q-71 -67 -162 -67q-90 0 -139 45.5t-49 123.5q0 75 45.5 127.5t108.5 70.5q-35 13 -56.5 44t-21.5 74q0 37 10.5 70.5t36.5 67t79 54t127 20.5q84 0 160 -32l-56 -114q-59 25 -121 25q-52 0 -75 -24.5t-23 -61.5q0 -74 84 -74h99l12 67l132 20
l-15 -87h74l-20 -111h-74l-24 -139q-8 -44 35 -44q10 0 47 5l-22 -114q-45 -13 -89 -13zM237 111q56 0 127 41l25 142h-104q-64 0 -96 -32t-32 -85q0 -66 80 -66z" />
    <glyph glyph-name="quotesingle" unicode="'" horiz-adv-x="194" 
d="M74 432l33 244h120l-55 -244h-98z" />
    <glyph glyph-name="parenleft" unicode="(" horiz-adv-x="287" 
d="M195 -183l-105 -39q-78 150 -78 340q0 176 57.5 303t183.5 283l93 -39q-97 -150 -147 -278t-50 -280q0 -147 46 -290z" />
    <glyph glyph-name="parenright" unicode=")" horiz-adv-x="286" 
d="M-71 -183q112 166 152 285t40 255q0 156 -44 308l107 39q77 -171 77 -344q0 -170 -61 -307t-180 -275z" />
    <glyph glyph-name="asterisk" unicode="*" horiz-adv-x="475" 
d="M148 296l-64 71l104 103l-111 14l49 117l108 -41l14 136h123l-33 -135l130 33l2 -115l-120 -11l61 -103l-108 -68l-50 116z" />
    <glyph glyph-name="plus" unicode="+" 
d="M30 208v125h180v187h135v-187h182v-125h-182v-189h-135v189h-180z" />
    <glyph glyph-name="comma" unicode="," horiz-adv-x="221" 
d="M168 156l-109 -264h-97l66 264h140z" />
    <glyph glyph-name="hyphen" unicode="-" 
d="M90 333h375v-125h-375v125z" />
    <glyph glyph-name="period" unicode="." horiz-adv-x="226" 
d="M67 -6q-32 0 -52.5 20t-20.5 49q0 40 28 66t69 26q32 0 52.5 -20t20.5 -50q0 -39 -28.5 -65t-68.5 -26z" />
    <glyph glyph-name="slash" unicode="/" horiz-adv-x="395" 
d="M433 676l-2 -13l-314 -663h-131l1 14l311 662h135z" />
    <glyph glyph-name="zero" unicode="0" horiz-adv-x="605" 
d="M195 235q0 -125 81 -125q69 0 111 94t42 241q0 52 -18.5 86t-59.5 34q-64 0 -110 -99t-46 -231zM579 450q0 -91 -18.5 -171t-56.5 -146.5t-103 -105t-151 -38.5q-103 0 -153.5 68t-50.5 176q0 81 18.5 158.5t56 145t102.5 109t150 41.5q107 0 156.5 -64t49.5 -173z" />
    <glyph glyph-name="one" unicode="1" horiz-adv-x="476" 
d="M-4 0l21 121h156l69 403l-146 -61l-5 122l200 91h118l-98 -555h127l-21 -121h-421z" />
    <glyph glyph-name="two" unicode="2" horiz-adv-x="540" 
d="M481 190l-33 -190h-449l18 100q26 20 60.5 49t53.5 46t64 58.5t51 46.5q47 44 68.5 66t40 57t18.5 72q0 70 -65 70q-47 0 -70.5 -42t-20.5 -90l-139 -10q-10 108 55.5 185.5t191.5 77.5q90 0 142 -51.5t52 -128.5q0 -68 -36 -124.5t-114 -126.5q-40 -37 -92 -81t-62 -53
h142l12 69h112z" />
    <glyph glyph-name="three" unicode="3" horiz-adv-x="524" 
d="M192 479h-98l12 144q94 63 199 63q107 0 151.5 -48.5t44.5 -119.5q0 -68 -37.5 -115.5t-98.5 -65.5q102 -22 102 -130q0 -99 -67.5 -158.5t-200.5 -59.5q-66 0 -125.5 21.5t-86.5 50.5l82 106q54 -56 140 -56q59 0 87 25.5t28 67.5q0 66 -102 66h-74l21 120h68
q54 0 87 28.5t33 79.5q0 30 -17.5 48.5t-52.5 18.5q-46 0 -83 -17z" />
    <glyph glyph-name="four" unicode="4" horiz-adv-x="556" 
d="M528 244l-20 -111h-87l-23 -133h-135l23 133h-296l17 99l270 336q20 25 40 52t29 42l10 14h161l-76 -432h87zM164 244h142l45 246z" />
    <glyph glyph-name="five" unicode="5" horiz-adv-x="534" 
d="M-2 47l42 155h110l-14 -78q33 -13 72 -13q65 0 98 33.5t33 90.5q0 38 -22.5 59.5t-64.5 21.5q-59 0 -146 -26l-36 18l87 368h379l-21 -121h-258l-28 -132q39 16 90 16q82 0 125 -50t43 -141q0 -113 -76 -186t-203 -73q-130 0 -210 58z" />
    <glyph glyph-name="six" unicode="6" horiz-adv-x="571" 
d="M580 643l-59 -111q-69 33 -131 33q-47 0 -83 -18t-57 -47t-32 -61t-14 -66q54 64 139 64t133.5 -48t48.5 -136q0 -114 -69 -189t-195 -75q-101 0 -157.5 63t-56.5 184q0 75 12.5 140.5t39.5 123t67.5 98.5t100 64.5t132.5 23.5q100 0 181 -43zM267 111q58 0 86.5 33.5
t28.5 87.5q0 72 -76 72q-73 0 -115 -53q-8 -58 10.5 -99t65.5 -41z" />
    <glyph glyph-name="seven" unicode="7" horiz-adv-x="496" 
d="M33 0l338 565h-163l-20 -117h-127l40 228h457l-17 -93q-47 -61 -109 -165l-242 -418h-157z" />
    <glyph glyph-name="eight" unicode="8" horiz-adv-x="574" 
d="M554 517q0 -54 -33 -99t-78 -68q75 -49 75 -145q0 -92 -75.5 -154t-188.5 -62q-110 0 -169.5 45t-59.5 127q0 63 37.5 111t85.5 68q-54 47 -54 133q0 88 70 150.5t179 62.5q104 0 157.5 -47t53.5 -122zM233 294q-35 -30 -50.5 -53.5t-15.5 -55.5q0 -33 24 -55t75 -22
q53 0 78.5 25t25.5 56q0 48 -59 72zM340 397q75 37 75 100q0 31 -22 53t-66 22q-37 0 -64.5 -22.5t-27.5 -58.5q0 -48 52 -71z" />
    <glyph glyph-name="nine" unicode="9" horiz-adv-x="572" 
d="M13 32l59 111q69 -33 131 -33q47 0 83 18t57 47t32 61t14 66q-54 -64 -139 -64t-133.5 48t-48.5 136q0 114 69 189t195 75q101 0 157.5 -63t56.5 -184q0 -75 -12.5 -140.5t-39.5 -123t-67.5 -98.5t-100 -64.5t-132.5 -23.5q-100 0 -181 43zM326 564q-58 0 -86.5 -33.5
t-28.5 -87.5q0 -72 76 -72q73 0 115 53q8 58 -10.5 99t-65.5 41z" />
    <glyph glyph-name="colon" unicode=":" horiz-adv-x="263" 
d="M82 -6q-32 0 -51.5 19t-19.5 48q0 40 29 67t70 27q32 0 51.5 -19t19.5 -49q0 -39 -29.5 -66t-69.5 -27zM137 305q-32 0 -51.5 19t-19.5 49q0 40 29 66.5t70 26.5q32 0 51.5 -18.5t19.5 -48.5q0 -40 -29.5 -67t-69.5 -27z" />
    <glyph glyph-name="semicolon" unicode=";" horiz-adv-x="255" 
d="M144 305q-32 0 -51.5 19t-19.5 49q0 40 29 66.5t71 26.5q31 0 50.5 -19t19.5 -48q0 -40 -29.5 -67t-69.5 -27zM190 156l-109 -264h-97l66 264h140z" />
    <glyph glyph-name="less" unicode="&#x3c;" 
d="M46 193v154l436 158v-129l-326 -107l326 -106v-128z" />
    <glyph glyph-name="equal" unicode="=" 
d="M58 445h435v-125h-435v125zM58 220h435v-125h-435v125z" />
    <glyph glyph-name="greater" unicode="&#x3e;" 
d="M509 347v-154l-436 -158v128l326 106l-326 107v129z" />
    <glyph glyph-name="question" unicode="?" horiz-adv-x="473" 
d="M191 468h-99l2 144q88 74 210 74q85 0 129.5 -40t44.5 -100q0 -37 -13.5 -71t-31 -56.5t-46 -45.5t-47 -34t-45.5 -26l-14 -84h-115l26 150q82 37 115 64.5t33 67.5q0 23 -16 38.5t-50 15.5q-32 0 -70 -19zM178 -6q-32 0 -51.5 19t-19.5 48q0 40 29 67t71 27
q32 0 51.5 -19t19.5 -49q0 -39 -29.5 -66t-70.5 -27z" />
    <glyph glyph-name="at" unicode="@" horiz-adv-x="910" 
d="M354 229q-45 -132 33 -132q47 0 96 35l70 201q-33 25 -75 25q-80 0 -124 -129zM496 57q-63 -68 -141 -68q-69 0 -105 35t-37 93.5t22 134.5q32 96 93.5 155t141.5 59q66 0 113 -56l13 46h123l-96 -277q-12 -35 -15.5 -54t3 -30t26.5 -11q41 0 70 27t42.5 71t19 85t5.5 83
q0 97 -60 156t-190 59q-78 0 -143.5 -24.5t-110 -65t-75.5 -94.5t-45 -113t-14 -120q0 -232 260 -232q96 0 194 31l5 -89q-109 -38 -215 -38q-176 0 -262 87t-86 236q0 142 59.5 259t176 188t268.5 71q163 0 252 -87t89 -221q0 -159 -73 -261.5t-205 -102.5q-93 0 -103 68z
" />
    <glyph glyph-name="A" unicode="A" horiz-adv-x="677" 
d="M352 0l20 111h69l-9 81h-212l-39 -81h69l-19 -111h-274l20 111h55l238 454h-54l20 111h346l-19 -111h-53l77 -454h55l-20 -111h-270zM271 306h152l-37 232z" />
    <glyph glyph-name="B" unicode="B" horiz-adv-x="620" 
d="M-8 0l19 111h65l80 454h-65l20 111h304q87 0 129.5 -42t42.5 -116q0 -56 -32 -100.5t-78 -59.5q37 -12 62 -51t25 -94q0 -110 -72.5 -161.5t-196.5 -51.5h-303zM214 111h96q64 0 89.5 29.5t25.5 69.5q0 83 -82 83h-97zM265 404h81q52 0 75 27.5t23 67.5q0 66 -70 66h-80z
" />
    <glyph glyph-name="C" unicode="C" horiz-adv-x="591" 
d="M566 416h-123l26 135q-36 11 -74 11q-88 0 -148.5 -88t-60.5 -209q0 -75 32.5 -111t100.5 -36q83 0 185 48l8 -127q-111 -50 -208 -50q-135 0 -200 67t-65 207q0 69 23 141t66 136t114.5 105t158.5 41q110 0 217 -42z" />
    <glyph glyph-name="D" unicode="D" horiz-adv-x="670" 
d="M78 111l80 454h-67l20 111h234q153 0 227 -64.5t74 -194.5q0 -197 -94.5 -307t-299.5 -110h-260l19 111h67zM217 111h52q111 0 173 76.5t62 229.5q0 69 -40 108.5t-116 39.5h-53z" />
    <glyph glyph-name="E" unicode="E" horiz-adv-x="591" 
d="M410 212h126l-37 -212h-507l19 111h66l80 454h-66l20 111h504l-37 -212h-127l18 101h-175l-30 -171h184l-20 -112h-184l-30 -171h178z" />
    <glyph glyph-name="F" unicode="F" horiz-adv-x="546" 
d="M-8 0l19 111h65l80 454h-65l20 111h484l-39 -221h-127l20 110h-155l-34 -195h187l-21 -114h-187l-25 -145h120l-20 -111h-322z" />
    <glyph glyph-name="G" unicode="G" horiz-adv-x="647" 
d="M598 438h-123l19 115q-42 9 -82 9q-72 0 -124.5 -46.5t-76 -112t-23.5 -138.5q0 -75 32.5 -111t118.5 -36q64 0 104 11l19 100h-146l20 114h274l-54 -308q-103 -46 -235 -46q-139 0 -209.5 72t-70.5 203q0 76 22.5 149t66.5 135t118.5 100t169.5 38q123 0 227 -40z" />
    <glyph glyph-name="H" unicode="H" horiz-adv-x="741" 
d="M467 565l19 111h283l-19 -111h-62l-80 -454h62l-20 -111h-283l20 111h84l31 178h-258l-31 -178h85l-20 -111h-286l20 111h63l80 454h-63l19 111h287l-20 -111h-85l-28 -158h258l28 158h-84z" />
    <glyph glyph-name="I" unicode="I" horiz-adv-x="358" 
d="M-12 0l20 111h74l80 454h-74l19 111h283l-20 -111h-70l-80 -454h70l-20 -111h-282z" />
    <glyph glyph-name="J" unicode="J" horiz-adv-x="327" 
d="M67 565l19 111h282l-19 -111h-63l-95 -539q-30 -170 -180 -253l-67 89q46 32 72.5 64.5t36.5 88.5l97 550h-83z" />
    <glyph glyph-name="K" unicode="K" horiz-adv-x="667" 
d="M265 350l206 215h-62l19 111h286l-19 -111h-68l-208 -213l131 -241h71l-19 -111h-295l19 111h76zM294 565l-80 -454h55l-19 -111h-258l20 111h64l80 454h-64l20 111h257l-20 -111h-55z" />
    <glyph glyph-name="L" unicode="L" horiz-adv-x="531" 
d="M383 241h124l-43 -241h-472l19 111h64l80 454h-64l20 111h269l-19 -111h-68l-80 -454h147z" />
    <glyph glyph-name="M" unicode="M" horiz-adv-x="896" 
d="M421 154l214 522h262l-20 -111h-58l-39 -454h69l-20 -111h-266l20 111h70l38 415l-221 -526h-149l-26 520l-112 -409h74l-20 -111h-266l20 111h63l127 454h-60l20 111h256z" />
    <glyph glyph-name="N" unicode="N" horiz-adv-x="733" 
d="M467 565l19 111h287l-19 -111h-62l-100 -565h-147l-173 461l-60 -350h98l-19 -111h-298l19 111h62l80 454h-62l20 111h214l169 -459l59 348h-87z" />
    <glyph glyph-name="O" unicode="O" horiz-adv-x="647" 
d="M190 242q0 -132 104 -132q83 0 133 91t50 239q0 53 -24.5 89t-76.5 36q-81 0 -133.5 -95.5t-52.5 -227.5zM627 441q0 -71 -12.5 -136t-40.5 -123t-68.5 -100.5t-100.5 -67.5t-133 -25q-116 0 -173.5 70t-57.5 182q0 64 12 125.5t39.5 120t67.5 103t100.5 71t134.5 26.5
q121 0 176.5 -66.5t55.5 -179.5z" />
    <glyph glyph-name="P" unicode="P" horiz-adv-x="596" 
d="M294 565l-81 -454h116l-20 -111h-317l20 111h64l80 454h-64l20 111h289q108 0 158.5 -47t50.5 -141q0 -109 -71 -178t-215 -69h-41l20 113h49q58 0 86.5 35t28.5 98q0 78 -78 78h-95z" />
    <glyph glyph-name="Q" unicode="Q" horiz-adv-x="673" 
d="M382 143q43 -42 56 -111q-68 -43 -166 -43q-116 0 -173.5 70t-57.5 182q0 64 12 125.5t39.5 120t67.5 103t100.5 71t134.5 26.5q121 0 176.5 -66.5t55.5 -179.5q0 -150 -54 -261q47 -86 52 -180h-132q-2 38 -17.5 78.5t-44.5 80t-79 64.5t-113 25q-15 0 -49 -2v-4
q0 -132 104 -132q49 0 88 33zM376 565q-63 0 -109.5 -58t-65.5 -151q42 4 65 4q110 0 197 -59q14 64 14 139q0 53 -24.5 89t-76.5 36z" />
    <glyph glyph-name="R" unicode="R" horiz-adv-x="647" 
d="M77 111l80 454h-66l20 111h296q217 0 217 -182q0 -68 -46 -121t-119 -73q31 -32 51.5 -89t24.5 -100h74l-20 -111h-278l20 111h58q1 31 -20.5 91t-47.5 82h-76l-30 -173h55l-19 -111h-258l19 111h65zM481 495q0 31 -22 50.5t-67 19.5h-97l-31 -173h90q127 0 127 103z" />
    <glyph glyph-name="S" unicode="S" horiz-adv-x="548" 
d="M551 636l-32 -180h-116v109q-33 11 -72 11q-44 0 -70 -26t-26 -60q0 -50 50 -70l84 -32q72 -27 101 -70t29 -110q0 -89 -70 -154t-202 -65q-129 0 -220 48l26 185h116l8 -110q26 -15 88 -15q49 0 75 24.5t26 61.5q0 51 -47 70l-89 37q-69 28 -97.5 70.5t-28.5 114.5
q0 33 15 68.5t44.5 68.5t83.5 54t123 21q57 0 112 -15t89 -36z" />
    <glyph glyph-name="T" unicode="T" horiz-adv-x="578" 
d="M90 676h539l-39 -219h-114l19 108h-90l-80 -454h86l-20 -111h-309l19 111h88l80 454h-84l-19 -108h-114z" />
    <glyph glyph-name="U" unicode="U" horiz-adv-x="669" 
d="M635 565l-54 -309q-25 -139 -96.5 -202.5t-193.5 -63.5q-118 0 -178.5 68.5t-37.5 197.5l55 309h-61l20 111h276l-20 -111h-79l-55 -309q-13 -75 9.5 -110t81.5 -35q61 0 95.5 34.5t47.5 110.5l54 309h-78l19 111h276l-20 -111h-61z" />
    <glyph glyph-name="V" unicode="V" horiz-adv-x="669" 
d="M423 565l20 111h291l-19 -111h-66l-274 -565h-185l-73 565h-63l20 111h282l-19 -111h-79l45 -433l195 433h-75z" />
    <glyph glyph-name="W" unicode="W" horiz-adv-x="952" 
d="M696 565l19 111h298l-20 -111h-60l-227 -565h-168l-46 380l-177 -380h-168l-29 565h-62l20 111h266l-20 -111h-69l4 -424l194 401l-16 134h152l47 -535l154 424h-92z" />
    <glyph glyph-name="X" unicode="X" horiz-adv-x="655" 
d="M75 565l19 111h270l-20 -111h-53l60 -134l104 134h-54l19 111h278l-20 -111h-64l-195 -217l128 -237h63l-20 -111h-268l19 111h53l-67 140l-115 -140h57l-19 -111h-280l20 111h62l206 237l-117 217h-66z" />
    <glyph glyph-name="Y" unicode="Y" horiz-adv-x="634" 
d="M54 565l19 111h275l-19 -111h-75l72 -191l141 191h-75l20 111h289l-19 -111h-64l-237 -304l-27 -150h74l-19 -111h-292l20 111h79l27 150l-125 304h-64z" />
    <glyph glyph-name="Z" unicode="Z" horiz-adv-x="590" 
d="M609 676l-18 -101l-389 -464h187l28 155h124l-47 -266h-501l18 100l392 464h-182l-20 -114h-124l40 226h492z" />
    <glyph glyph-name="bracketleft" unicode="[" horiz-adv-x="335" 
d="M135 696h257l-20 -111h-117l-122 -690h118l-20 -111h-256z" />
    <glyph glyph-name="backslash" unicode="\" horiz-adv-x="398" 
d="M97 663l2 13h135l87 -662l-3 -14h-132z" />
    <glyph glyph-name="bracketright" unicode="]" horiz-adv-x="335" 
d="M90 696h257l-161 -912h-257l20 111h117l122 690h-117z" />
    <glyph glyph-name="asciicircum" unicode="^" horiz-adv-x="631" 
d="M133 435l306 265l212 -265l-104 -89l-139 177l-202 -176z" />
    <glyph glyph-name="underscore" unicode="_" horiz-adv-x="575" 
d="M38 -31h388l-15 -85h-388z" />
    <glyph glyph-name="grave" unicode="`" horiz-adv-x="582" 
d="M313 696h132l40 -167h-117z" />
    <glyph glyph-name="a" unicode="a" horiz-adv-x="523" 
d="M362 421l46 35h72l-54 -321q-3 -15 1 -21t16 -6h22l-21 -108q-27 -6 -64 -6q-78 0 -81 65q-50 -70 -140 -70q-64 0 -104 47.5t-40 129.5q0 133 66 216.5t165 83.5q75 0 116 -45zM291 140l32 183q-23 21 -68 21q-36 0 -60.5 -26t-34 -59.5t-9.5 -70.5q0 -77 66 -77
q45 0 74 29z" />
    <glyph glyph-name="b" unicode="b" horiz-adv-x="512" 
d="M8 0l103 585h-62l21 111h190l-49 -275q49 45 115 45q75 0 114 -45.5t39 -129.5q0 -137 -67 -219.5t-170 -82.5q-83 0 -120 42l-76 -31h-38zM194 323l-32 -183q24 -29 68 -29q56 0 83.5 47.5t27.5 110.5q0 75 -71 75q-46 0 -76 -21z" />
    <glyph glyph-name="c" unicode="c" horiz-adv-x="444" 
d="M401 265h-113l9 87q-20 6 -33 6q-45 0 -73 -46t-28 -113q0 -89 76 -89q65 0 130 25l10 -104q-92 -42 -169 -42q-96 0 -145 52t-49 138q0 123 65 205t185 82q90 0 170 -39z" />
    <glyph glyph-name="d" unicode="d" horiz-adv-x="541" 
d="M533 696l-101 -585h62l-21 -111h-70q-80 0 -86 66q-23 -33 -62.5 -55t-86.5 -22q-73 0 -113 44.5t-40 127.5q0 139 66.5 222t165.5 83q76 0 110 -45l28 164h-79l21 111h206zM307 140l31 183q-23 21 -74 21q-57 0 -85 -48t-28 -107q0 -78 73 -78q50 0 83 29z" />
    <glyph glyph-name="e" unicode="e" horiz-adv-x="479" 
d="M382 139l19 -103q-92 -47 -179 -47q-102 0 -154.5 49.5t-52.5 138.5q0 126 72 207.5t187 81.5q93 0 137 -45.5t44 -116.5q0 -59 -26 -120h-281v-7q0 -34 21.5 -54t62.5 -20q69 0 150 36zM168 283h157q4 13 4 26q0 53 -67 53q-34 0 -59.5 -22.5t-34.5 -56.5z" />
    <glyph glyph-name="f" unicode="f" horiz-adv-x="352" 
d="M-98 -214l21 109q51 -3 68 -3q36 0 43 44l70 408h-80l21 112h79l17 100q11 64 54 107t116 43q54 0 88 -12l-21 -109q-51 3 -63 3q-23 0 -33.5 -10.5t-14.5 -33.5l-15 -88h122l-20 -112h-122l-72 -420q-14 -79 -55.5 -114.5t-122.5 -35.5q-46 0 -80 12z" />
    <glyph glyph-name="g" unicode="g" horiz-adv-x="512" 
d="M485 456l-78 -456q-17 -103 -81.5 -164.5t-165.5 -61.5q-170 0 -170 121q0 23 6 48h119q0 -3 -0.5 -8t-0.5 -7q0 -51 52 -51q43 0 72 33t40 88l10 52q-47 -61 -125 -61q-69 0 -109 45.5t-40 124.5q0 137 66.5 222t170.5 85q70 0 110 -45l47 35h77zM296 140l32 183
q-26 21 -69 21q-30 0 -52 -15.5t-33.5 -40t-17 -50.5t-5.5 -52q0 -75 69 -75q43 0 76 29z" />
    <glyph glyph-name="h" unicode="h" horiz-adv-x="558" 
d="M181 111h80l-21 -111h-271l21 111h63l82 474h-62l20 111h191l-53 -289q18 24 51.5 41.5t73.5 17.5q60 0 93.5 -28t38 -71t-2.5 -96l-27 -160h62l-20 -111h-65q-68 0 -92 25t-14 86l26 151q13 79 -54 79q-43 0 -85 -22z" />
    <glyph glyph-name="i" unicode="i" horiz-adv-x="336" 
d="M-16 0l21 111h81l40 233h-82l19 112h211l-59 -345h82l-21 -111h-292zM215 536q-30 0 -50.5 14.5t-20.5 47.5q0 43 25 65.5t61 22.5q29 0 50 -16.5t21 -50.5q0 -41 -26 -62t-60 -21z" />
    <glyph glyph-name="j" unicode="j" horiz-adv-x="277" 
d="M6 -226l-65 95q47 31 70.5 61.5t33.5 89.5l57 324h-79l20 112h208l-80 -455q-13 -69 -54 -130.5t-111 -96.5zM186 536q-30 0 -50.5 14.5t-20.5 47.5q0 43 25 65.5t61 22.5q29 0 50 -16.5t21 -50.5q0 -41 -26 -62t-60 -21z" />
    <glyph glyph-name="k" unicode="k" horiz-adv-x="564" 
d="M53 111l82 474h-62l21 111h190l-83 -453l148 101h-75l20 112h271l-21 -112h-69l-117 -85l61 -111q8 -15 12.5 -21t14.5 -11t26 -5h41l-20 -111q-56 0 -74 1q-53 2 -74 15.5t-41 55.5l-58 119l-58 -38l-6 -42h62l-21 -111h-253l20 111h63z" />
    <glyph glyph-name="l" unicode="l" horiz-adv-x="269" 
d="M68 696h190l-102 -557q-4 -28 25 -28q26 0 51 5l-21 -117q-47 -10 -77 -10q-70 0 -94.5 38.5t-14.5 95.5l84 462h-62z" />
    <glyph glyph-name="m" unicode="m" horiz-adv-x="784" 
d="M196 111h67l-20 -111h-258l20 111h64l39 233h-61l20 112h147l9 -61q19 28 58.5 49.5t83.5 21.5q69 0 97 -66q19 27 56 46.5t86 19.5q51 0 79.5 -25.5t32.5 -63.5t-1 -82l-31 -184h62l-21 -111h-65q-69 0 -92 25.5t-13 85.5l31 180q4 21 -9 36.5t-38 15.5q-36 0 -64 -26
l-35 -206h65l-20 -111h-71q-69 0 -92 25.5t-12 85.5l38 206q-5 10 -19 18t-28 8q-40 0 -71 -29z" />
    <glyph glyph-name="n" unicode="n" horiz-adv-x="571" 
d="M-15 0l20 111h64l39 233h-61l20 112h152l13 -63q19 28 57 50.5t92 22.5q77 0 106 -51t17 -119l-33 -185h62l-20 -111h-65q-67 0 -91.5 27t-14.5 84l31 173q5 28 -11 43.5t-51 15.5q-23 0 -46 -9.5t-33 -19.5l-36 -203h87l-21 -111h-277z" />
    <glyph glyph-name="o" unicode="o" horiz-adv-x="480" 
d="M266 466q89 0 135 -50t46 -137q0 -51 -13 -99.5t-41 -93t-78.5 -71t-117.5 -26.5q-88 0 -134.5 50t-46.5 137q0 52 13.5 101t41 92.5t78 70t117.5 26.5zM213 108q47 0 73.5 45.5t26.5 120.5q0 73 -63 73q-46 0 -72.5 -45.5t-26.5 -120.5q0 -73 62 -73z" />
    <glyph glyph-name="p" unicode="p" horiz-adv-x="533" 
d="M212 -216h-262l18 106l48 15l76 439h-62l21 112h133l13 -63q20 27 63 50t90 23q149 0 149 -182q0 -132 -66 -213.5t-167 -81.5q-68 0 -100 43l-23 -137h90zM216 316l-32 -184q26 -21 69 -21q31 0 53 15.5t33.5 40.5t16.5 51t5 53q0 73 -68 73q-45 0 -77 -28z" />
    <glyph glyph-name="q" unicode="q" horiz-adv-x="509" 
d="M419 -216h-280l19 111h98l23 137q-47 -43 -114 -43q-72 0 -111.5 47.5t-39.5 128.5q0 49 13.5 99t40 96.5t74 76t107.5 29.5q72 0 128 -54l55 77h58l-104 -589l50 -15zM297 132l32 184q-23 28 -69 28q-54 0 -81 -48t-27 -111q0 -74 69 -74q42 0 76 21z" />
    <glyph glyph-name="r" unicode="r" horiz-adv-x="418" 
d="M47 344l19 112h181l-17 -94q18 37 59.5 70.5t83.5 33.5q33 0 66 -5l-36 -144l-80 13q-63 -5 -96 -47l-31 -172h93l-19 -111h-284l18 101l65 20l39 223h-61z" />
    <glyph glyph-name="s" unicode="s" horiz-adv-x="435" 
d="M281 312l5 50q-22 13 -46 13q-20 0 -33.5 -12.5t-13.5 -31.5q0 -27 30 -39l57 -23q51 -21 77 -47t26 -69q0 -80 -62 -122t-143 -42q-185 0 -185 104q0 27 8 52h133l-4 -53q17 -14 53 -14q20 0 34.5 12t14.5 32q0 29 -29 40l-59 24q-48 18 -73.5 45t-25.5 71
q0 77 60.5 120.5t139.5 43.5q168 0 168 -94q0 -27 -12 -60h-120z" />
    <glyph glyph-name="t" unicode="t" horiz-adv-x="346" 
d="M132 566l132 20l-23 -130h106l-21 -112h-105l-33 -193q-7 -40 39 -40q42 0 75 5l-21 -114q-45 -13 -105 -13q-147 0 -121 145l37 210h-69l14 93l75 19z" />
    <glyph glyph-name="u" unicode="u" horiz-adv-x="557" 
d="M44 456h188l-49 -278q-11 -66 43 -66q60 0 100 54l31 179h-69l20 111h198l-61 -344h65l-21 -112h-65q-76 0 -85 69q-57 -80 -154 -80q-83 0 -114 49t-19 125l31 182h-60z" />
    <glyph glyph-name="v" unicode="v" horiz-adv-x="542" 
d="M298 344l21 112h246l-20 -112h-52l-191 -344h-158l-68 344h-56l20 112h238l-20 -112h-47l32 -216l105 216h-50z" />
    <glyph glyph-name="w" unicode="w" horiz-adv-x="735" 
d="M509 344l20 112h227l-20 -112h-48l-151 -344h-147q-15 253 -19 307q-46 -113 -126 -307h-143l-35 344h-45l20 112h219l-20 -112h-51v-207l138 319h133l22 -317l74 205h-48z" />
    <glyph glyph-name="x" unicode="x" horiz-adv-x="552" 
d="M504 111l-19 -111h-84q-26 0 -44.5 9t-27.5 19t-25 34l-80 113l-46 -64h59l-19 -111h-235l19 111h57l111 128l-72 106h-62l18 111h90q24 0 39.5 -6.5t22 -14.5t18.5 -27l78 -119l45 55h-53l19 112h230l-20 -112h-62l-104 -117l86 -116h61z" />
    <glyph glyph-name="y" unicode="y" horiz-adv-x="554" 
d="M-34 -205l16 92h123l66 117l-87 340h-66l20 112h209l-20 -112l34 -195l107 195h-84l19 112h275l-20 -112h-58l-264 -457q-65 -113 -170 -113q-66 0 -100 21z" />
    <glyph glyph-name="z" unicode="z" horiz-adv-x="456" 
d="M441 456l-16 -90l-248 -275h110l14 80h105l-30 -171h-390l15 90l259 274h-103l-13 -78h-100l23 170h374z" />
    <glyph glyph-name="braceleft" unicode="{" horiz-adv-x="314" 
d="M7 290q30 0 65.5 20.5t43.5 65.5l31 177q13 78 62 110.5t150 32.5l-17 -100q-25 0 -39.5 -12.5t-20.5 -46.5l-31 -176q-6 -33 -22 -57t-37.5 -36.5t-37 -18.5t-31.5 -9q14 -2 28.5 -8.5t31 -19t24.5 -36.5t2 -54l-35 -195q0 -11 -1.5 -18t2.5 -12l6 -7.5t9.5 -4
t11.5 -1.5h14l-18 -100q-101 0 -138 32t-24 111l32 181q4 24 -3 41.5t-21.5 25.5t-28 11.5t-26.5 3.5z" />
    <glyph glyph-name="bar" unicode="|" horiz-adv-x="242" 
d="M154 -216h-79v912h79v-912z" />
    <glyph glyph-name="braceright" unicode="}" horiz-adv-x="314" 
d="M312 290l-18 -100q-32 0 -66 -18.5t-42 -63.5l-32 -181q-14 -79 -62.5 -111t-149.5 -32l17 100q19 0 27.5 1.5t17 11.5t12.5 30l34 195q7 40 34 68t50 37.5t44 12.5q-15 3 -28.5 9t-30.5 18.5t-24.5 36.5t-1.5 57l31 176q6 34 -4 46.5t-35 12.5l17 100q101 0 138.5 -32.5
t23.5 -110.5l-31 -177q-5 -31 9.5 -52t33 -27.5t36.5 -6.5z" />
    <glyph glyph-name="asciitilde" unicode="~" horiz-adv-x="451" 
d="M418 338l-22 -130q-43 30 -85 30q-28 0 -96 -30t-106 -30q-45 0 -80 25l22 130q33 -30 74 -30q27 0 93.5 30t114.5 30q50 0 85 -25z" />
    <glyph glyph-name="uni00A0" unicode="&#xa0;" horiz-adv-x="200" 
 />
    <glyph glyph-name="exclamdown" unicode="&#xa1;" horiz-adv-x="255" 
d="M64 231h111l-56 -447h-159zM160 466q32 0 52 -19t20 -48q0 -40 -29.5 -67t-70.5 -27q-31 0 -51 19.5t-20 48.5q0 39 29.5 66t69.5 27z" />
    <glyph glyph-name="cent" unicode="&#xa2;" 
d="M464 526l-29 -71q44 -12 76 -28l-48 -106q-31 12 -75 20l-95 -230q6 -1 16 -1q56 0 121 25l11 -106q-89 -40 -177 -40q-14 0 -21 1l-25 -62l-61 14l24 59q-113 38 -113 185q0 112 69 196.5t188 84.5q16 0 46 -2l31 75zM213 205q0 -48 22 -73l87 214q-50 -4 -79.5 -40
t-29.5 -101z" />
    <glyph glyph-name="sterling" unicode="&#xa3;" 
d="M56 310h59l23 132q19 109 82 176.5t174 67.5q102 0 186 -39l-55 -191h-102l19 107q-27 9 -55 9q-47 0 -73.5 -31.5t-37.5 -97.5l-24 -133h153l-15 -85h-153l-20 -114h249l-20 -111h-445l16 91l67 44l16 90h-59z" />
    <glyph glyph-name="currency" unicode="&#xa4;" 
d="M442 346q10 -38 10 -74q0 -40 -9 -73l82 -86l-91 -90l-80 80q-33 -11 -76 -11q-46 0 -78 12l-75 -75l-85 84l77 81q-10 33 -10 76q0 42 8 70l-80 85l92 90l76 -77q31 12 78 12q46 0 79 -14l76 76l84 -84zM280 210q59 0 59 60q0 62 -60 62q-59 0 -59 -60q0 -62 60 -62z
" />
    <glyph glyph-name="yen" unicode="&#xa5;" 
d="M36 310h154l-16 50h-129l15 85h86l-39 120h-57l19 111h260l-19 -111h-62l45 -187l114 187h-61l19 111h264l-19 -111h-58l-84 -120h89l-15 -85h-133l-35 -50h159l-15 -85h-182l-20 -114h61l-20 -111h-264l20 111h65l20 114h-177z" />
    <glyph glyph-name="brokenbar" unicode="&#xa6;" horiz-adv-x="242" 
d="M154 306h-79v390h79v-390zM75 170h79v-386h-79v386z" />
    <glyph glyph-name="section" unicode="&#xa7;" horiz-adv-x="553" 
d="M508 307q0 -89 -77 -142q38 -32 38 -82q0 -79 -65.5 -138t-203.5 -59q-113 0 -199 46l25 143h98l5 -69q38 -17 88 -17q101 0 101 51q0 30 -64 53l-81 30q-124 46 -124 136q0 93 79 147q-39 34 -39 84q0 33 14.5 66t44 63t82.5 48.5t121 18.5q120 0 198 -46l-24 -138h-101
l-5 64q-36 14 -86 14q-95 0 -95 -52q0 -16 15.5 -27t51.5 -24l75 -27q128 -46 128 -143zM221 360q-27 -24 -27 -54q0 -24 15.5 -40t52.5 -29l75 -25q25 24 25 52q0 46 -66 70z" />
    <glyph glyph-name="dieresis" unicode="&#xa8;" horiz-adv-x="582" 
d="M285 526q-66 0 -66 58q0 45 25.5 68.5t66.5 23.5q28 0 46.5 -16t18.5 -46q0 -44 -27 -66t-64 -22zM480 526q-66 0 -66 58q0 45 26 68.5t67 23.5q27 0 45.5 -16t18.5 -46q0 -44 -27 -66t-64 -22z" />
    <glyph glyph-name="copyright" unicode="&#xa9;" horiz-adv-x="857" 
d="M60 334q0 161 107.5 267t271.5 106t271.5 -106t107.5 -267q0 -160 -107.5 -266.5t-271.5 -106.5q-163 0 -271 106.5t-108 266.5zM157 334q0 -125 78.5 -202.5t203.5 -77.5t203.5 77.5t78.5 202.5t-78.5 202.5t-203.5 77.5t-203.5 -77.5t-78.5 -202.5zM364 334
q0 -44 19.5 -71t60.5 -27q49 0 121 29l28 -83q-77 -44 -148 -44q-195 0 -195 196q0 87 52 140.5t143 53.5q65 0 132 -29v-147h-85v72q-24 6 -47 6q-39 0 -60 -25t-21 -71z" />
    <glyph glyph-name="ordfeminine" unicode="&#xaa;" horiz-adv-x="343" 
d="M180 561l-5 -28h-75l7 79q58 27 121 27q59 0 85.5 -23t17.5 -74l-18 -106q-2 -13 11 -13h14l-13 -73q-17 -4 -45 -4q-52 0 -59 43q-35 -46 -92 -46q-35 0 -55.5 19t-20.5 50q0 62 39 84t122 22h23l3 17q5 30 -25 30q-15 0 -35 -4zM151 432q0 -16 19 -16q24 0 52 19l5 27
h-23q-53 0 -53 -30z" />
    <glyph glyph-name="guillemotleft" unicode="&#xab;" 
d="M19 270l242 235l73 -59l-159 -177l97 -176l-94 -58zM242 270l242 235l73 -59l-159 -177l97 -176l-94 -58z" />
    <glyph glyph-name="logicalnot" unicode="&#xac;" horiz-adv-x="634" 
d="M65 331v125h497v-302h-129v177h-368z" />
    <glyph glyph-name="uni00AD" unicode="&#xad;" 
d="M90 333h375v-125h-375v125z" />
    <glyph glyph-name="registered" unicode="&#xae;" horiz-adv-x="857" 
d="M60 334q0 161 107.5 267t271.5 106t271.5 -106t107.5 -267q0 -160 -107.5 -266.5t-271.5 -106.5q-163 0 -271 106.5t-108 266.5zM157 334q0 -125 78.5 -202.5t203.5 -77.5t203.5 77.5t78.5 202.5t-78.5 202.5t-203.5 77.5t-203.5 -77.5t-78.5 -202.5zM301 211v241h-39v70
h187q152 0 152 -117q0 -37 -19.5 -64.5t-54.5 -39.5l62 -90h40v-70h-174v70h34l-48 79h-47v-79h31v-70h-162v70h38zM508 405q0 19 -14.5 33t-44.5 14h-55v-92h51q32 0 47.5 13.5t15.5 31.5z" />
    <glyph glyph-name="macron" unicode="&#xaf;" horiz-adv-x="582" 
d="M256 656h298l-19 -105h-297z" />
    <glyph glyph-name="degree" unicode="&#xb0;" horiz-adv-x="315" 
d="M68 522q0 63 42 113.5t108 50.5q60 0 91 -33.5t31 -82.5q0 -63 -43.5 -112.5t-112.5 -49.5q-56 0 -86 34t-30 80zM142 532q0 -22 12 -37.5t36 -15.5q36 0 55.5 24t19.5 56q0 23 -12.5 39.5t-38.5 16.5q-33 0 -52.5 -26t-19.5 -57z" />
    <glyph glyph-name="plusminus" unicode="&#xb1;" 
d="M29 346v125h180v187h135v-187h182v-125h-182v-129h-135v129h-180zM29 22v125h497v-125h-497z" />
    <glyph glyph-name="twosuperior" unicode="&#xb2;" horiz-adv-x="344" 
d="M200 648l-99 -7q-2 8 -2 19q0 56 39.5 94.5t114.5 38.5q58 0 89.5 -27.5t31.5 -70.5q0 -79 -94 -143l-82 -55h74l6 33h79l-20 -114h-277l12 66q72 53 122 94q28 22 40 33.5t24 31t12 40.5q0 15 -8.5 23t-21.5 8q-41 0 -41 -49q0 -9 1 -15z" />
    <glyph glyph-name="threesuperior" unicode="&#xb3;" horiz-adv-x="332" 
d="M180 673h-69l5 85q58 35 125 35t94.5 -29t27.5 -66q0 -36 -21 -62t-58 -36q61 -12 61 -74q0 -51 -42.5 -83.5t-116.5 -32.5q-92 0 -136 40l57 70q33 -28 83 -28q54 0 54 38q0 25 -54 25h-45l14 80h41q27 0 43.5 13t16.5 33q0 31 -34 31q-20 0 -41 -7z" />
    <glyph glyph-name="acute" unicode="&#xb4;" horiz-adv-x="582" 
d="M383 696h131l-114 -167h-116z" />
    <glyph glyph-name="mu" unicode="&#xb5;" horiz-adv-x="608" 
d="M141 -216h-129l99 561h-59l19 111h189l-48 -268q-7 -39 7 -57.5t55 -18.5q22 0 46.5 12.5t39.5 34.5l33 186h-76l19 111h204l-61 -344h65l-20 -112h-164l15 83q-67 -93 -170 -93q-10 0 -28 2z" />
    <glyph glyph-name="paragraph" unicode="&#xb6;" horiz-adv-x="564" 
d="M242 456h118l-80 -457h-117l26 146h-5q-153 0 -153 126q0 86 56.5 135.5t154.5 49.5zM289 -227l-62 79q82 55 94 121l85 483h117l-81 -455q-13 -74 -47 -130.5t-106 -97.5z" />
    <glyph glyph-name="periodcentered" unicode="&#xb7;" horiz-adv-x="232" 
d="M102 188q-32 0 -52.5 20t-20.5 49q0 40 28 66t69 26q32 0 52.5 -20t20.5 -50q0 -39 -28.5 -65t-68.5 -26z" />
    <glyph glyph-name="cedilla" unicode="&#xb8;" horiz-adv-x="582" 
d="M244 0l67 1l-31 -55q14 4 34 4q27 0 45.5 -16.5t18.5 -42.5q0 -91 -129 -91q-46 0 -98 23l19 53q44 -24 79 -24q18 0 28.5 9.5t10.5 24.5q0 22 -22 22q-14 0 -27 -10q-32 13 -43 18z" />
    <glyph glyph-name="onesuperior" unicode="&#xb9;" horiz-adv-x="310" 
d="M57 416l15 81h92l34 195l-84 -34l-7 74l123 56h84l-52 -291h74l-14 -81h-265z" />
    <glyph glyph-name="ordmasculine" unicode="&#xba;" horiz-adv-x="332" 
d="M221 639q61 0 91.5 -31.5t30.5 -81.5q0 -80 -38 -131.5t-120 -51.5q-62 0 -92.5 31t-30.5 82q0 80 38 131.5t121 51.5zM191 424q60 0 60 89q0 45 -37 45q-60 0 -60 -89q0 -45 37 -45z" />
    <glyph glyph-name="guillemotright" unicode="&#xbb;" 
d="M379 505l160 -235l-243 -235l-73 58l159 176l-96 177zM156 505l160 -235l-243 -235l-73 58l159 176l-96 177z" />
    <glyph glyph-name="onequarter" unicode="&#xbc;" horiz-adv-x="771" 
d="M718 142l-14 -74h-48l-12 -68h-96l12 68h-174l12 66l150 177q11 13 22.5 28t17.5 24l5 9h117l-41 -230h49zM497 142h76l18 107zM57 309l15 81h92l34 195l-84 -34l-7 74l123 56h84l-52 -291h74l-14 -81h-265zM743 676l-2 -15l-517 -661h-92l3 15l513 661h95z" />
    <glyph glyph-name="onehalf" unicode="&#xbd;" horiz-adv-x="799" 
d="M57 309l15 81h92l34 195l-84 -34l-7 74l123 56h84l-52 -291h74l-14 -81h-265zM595 232l-99 -7q-2 8 -2 19q0 56 39.5 94.5t114.5 38.5q58 0 89.5 -27.5t31.5 -70.5q0 -45 -30 -82t-82 -74q-19 -14 -64 -42h74l6 33h79l-20 -114h-277l12 66q44 30 122 94q28 22 40 33.5
t24 31t12 40.5q0 15 -8.5 23t-21.5 8q-41 0 -41 -49q0 -8 1 -15zM743 676l-2 -15l-517 -661h-92l3 15l513 661h95z" />
    <glyph glyph-name="threequarters" unicode="&#xbe;" horiz-adv-x="743" 
d="M180 566h-69l5 85q58 35 125 35t94.5 -29t27.5 -66q0 -36 -21 -62t-58 -36q61 -12 61 -74q0 -51 -42.5 -83.5t-116.5 -32.5q-92 0 -136 40l57 70q33 -28 83 -28q54 0 54 38q0 25 -54 25h-45l14 80h41q27 0 43.5 13t16.5 33q0 31 -34 31q-20 0 -41 -7zM715 676l-2 -15
l-517 -661h-92l3 15l513 661h95zM718 142l-14 -74h-48l-12 -68h-96l12 68h-174l12 66l150 177q11 13 22.5 28t17.5 24l5 9h117l-41 -230h49zM497 142h76l18 107z" />
    <glyph glyph-name="questiondown" unicode="&#xbf;" horiz-adv-x="466" 
d="M262 -8h99l-2 -144q-88 -74 -210 -74q-85 0 -129.5 40t-44.5 100q0 37 13.5 71t31 56.5t46 45.5t47 34t45.5 26l14 84h115l-26 -150q-82 -37 -115 -64.5t-33 -67.5q0 -23 16 -38.5t50 -15.5q31 0 69 20zM275 466q32 0 51.5 -19t19.5 -48q0 -40 -29 -67t-71 -27
q-32 0 -51.5 19t-19.5 49q0 39 29.5 66t70.5 27z" />
    <glyph glyph-name="Agrave" unicode="&#xc0;" horiz-adv-x="677" 
d="M352 0l20 111h69l-9 81h-212l-39 -81h69l-19 -111h-274l20 111h55l238 454h-54l20 111h346l-19 -111h-53l77 -454h55l-20 -111h-270zM271 306h152l-37 232zM306 901h132l40 -167h-117z" />
    <glyph glyph-name="Aacute" unicode="&#xc1;" horiz-adv-x="677" 
d="M352 0l20 111h69l-9 81h-212l-39 -81h69l-19 -111h-274l20 111h55l238 454h-54l20 111h346l-19 -111h-53l77 -454h55l-20 -111h-270zM271 306h152l-37 232zM465 901h131l-114 -167h-116z" />
    <glyph glyph-name="Acircumflex" unicode="&#xc2;" horiz-adv-x="677" 
d="M352 0l20 111h69l-9 81h-212l-39 -81h69l-19 -111h-274l20 111h55l238 454h-54l20 111h346l-19 -111h-53l77 -454h55l-20 -111h-270zM271 306h152l-37 232zM365 901h168l49 -167h-113l-31 94l-61 -94h-120z" />
    <glyph glyph-name="Atilde" unicode="&#xc3;" horiz-adv-x="677" 
d="M352 0l20 111h69l-9 81h-212l-39 -81h69l-19 -111h-274l20 111h55l238 454h-54l20 111h346l-19 -111h-53l77 -454h55l-20 -111h-270zM271 306h152l-37 232zM586 863l-16 -97q-33 25 -70 25q-22 0 -77 -21t-87 -21q-36 0 -65 21l17 97q26 -25 60 -25q22 0 75.5 21t93.5 21
q37 0 69 -21z" />
    <glyph glyph-name="Adieresis" unicode="&#xc4;" horiz-adv-x="677" 
d="M352 0l20 111h69l-9 81h-212l-39 -81h69l-19 -111h-274l20 111h55l238 454h-54l20 111h346l-19 -111h-53l77 -454h55l-20 -111h-270zM271 306h152l-37 232zM319 731q-66 0 -66 58q0 45 25.5 68.5t66.5 23.5q28 0 46.5 -16t18.5 -46q0 -44 -27 -66t-64 -22zM514 731
q-66 0 -66 58q0 45 26 68.5t67 23.5q27 0 45.5 -16t18.5 -46q0 -44 -27 -66t-64 -22z" />
    <glyph glyph-name="Aring" unicode="&#xc5;" horiz-adv-x="677" 
d="M352 0l20 111h69l-9 81h-212l-39 -81h69l-19 -111h-274l20 111h55l238 454h-54l20 111h346l-19 -111h-53l77 -454h55l-20 -111h-270zM271 306h152l-37 232zM323 806q0 48 35 84t93 36q46 0 69.5 -25t23.5 -60q0 -46 -36.5 -82t-96.5 -36q-43 0 -65.5 24.5t-22.5 58.5z
M395 817q0 -29 29 -29q22 0 33.5 12.5t11.5 29.5q0 31 -31 31q-19 0 -31 -14t-12 -30z" />
    <glyph glyph-name="AE" unicode="&#xc6;" horiz-adv-x="948" 
d="M320 306h148l41 232zM357 676h615l-37 -212h-127l18 101h-175l-30 -171h184l-20 -112h-184l-30 -171h179l17 101h126l-37 -212h-511l19 111h69l14 81h-213l-62 -81h71l-19 -111h-277l20 111h55l370 454h-55z" />
    <glyph glyph-name="Ccedilla" unicode="&#xc7;" horiz-adv-x="591" 
d="M566 416h-123l26 135q-36 11 -74 11q-88 0 -148.5 -88t-60.5 -209q0 -75 32.5 -111t100.5 -36q83 0 185 48l8 -127q-104 -47 -196 -50l-24 -43q14 4 34 4q27 0 45.5 -16.5t18.5 -42.5q0 -91 -129 -91q-46 0 -98 23l19 53q44 -24 79 -24q18 0 28.5 9.5t10.5 24.5
q0 22 -22 22q-14 0 -27 -10q-32 13 -43 18l43 76q-108 12 -160 79t-52 192q0 69 23 141t66 136t114.5 105t158.5 41q110 0 217 -42z" />
    <glyph glyph-name="Egrave" unicode="&#xc8;" horiz-adv-x="591" 
d="M410 212h126l-37 -212h-507l19 111h66l80 454h-66l20 111h504l-37 -212h-127l18 101h-175l-30 -171h184l-20 -112h-184l-30 -171h178zM276 901h132l40 -167h-117z" />
    <glyph glyph-name="Eacute" unicode="&#xc9;" horiz-adv-x="591" 
d="M410 212h126l-37 -212h-507l19 111h66l80 454h-66l20 111h504l-37 -212h-127l18 101h-175l-30 -171h184l-20 -112h-184l-30 -171h178zM414 901h131l-114 -167h-116z" />
    <glyph glyph-name="Ecircumflex" unicode="&#xca;" horiz-adv-x="591" 
d="M410 212h126l-37 -212h-507l19 111h66l80 454h-66l20 111h504l-37 -212h-127l18 101h-175l-30 -171h184l-20 -112h-184l-30 -171h178zM336 901h168l49 -167h-113l-31 94l-61 -94h-120z" />
    <glyph glyph-name="Edieresis" unicode="&#xcb;" horiz-adv-x="591" 
d="M410 212h126l-37 -212h-507l19 111h66l80 454h-66l20 111h504l-37 -212h-127l18 101h-175l-30 -171h184l-20 -112h-184l-30 -171h178zM289 731q-66 0 -66 58q0 45 25.5 68.5t66.5 23.5q28 0 46.5 -16t18.5 -46q0 -44 -27 -66t-64 -22zM484 731q-66 0 -66 58q0 45 26 68.5
t67 23.5q27 0 45.5 -16t18.5 -46q0 -44 -27 -66t-64 -22z" />
    <glyph glyph-name="Igrave" unicode="&#xcc;" horiz-adv-x="358" 
d="M-12 0l20 111h74l80 454h-74l19 111h283l-20 -111h-70l-80 -454h70l-20 -111h-282zM144 901h132l40 -167h-117z" />
    <glyph glyph-name="Iacute" unicode="&#xcd;" horiz-adv-x="358" 
d="M-12 0l20 111h74l80 454h-74l19 111h283l-20 -111h-70l-80 -454h70l-20 -111h-282zM291 901h131l-114 -167h-116z" />
    <glyph glyph-name="Icircumflex" unicode="&#xce;" horiz-adv-x="358" 
d="M-12 0l20 111h74l80 454h-74l19 111h283l-20 -111h-70l-80 -454h70l-20 -111h-282zM198 901h168l49 -167h-113l-31 94l-61 -94h-120z" />
    <glyph glyph-name="Idieresis" unicode="&#xcf;" horiz-adv-x="358" 
d="M-12 0l20 111h74l80 454h-74l19 111h283l-20 -111h-70l-80 -454h70l-20 -111h-282zM158 731q-66 0 -66 58q0 45 25.5 68.5t66.5 23.5q28 0 46.5 -16t18.5 -46q0 -44 -27 -66t-64 -22zM353 731q-66 0 -66 58q0 45 26 68.5t67 23.5q27 0 45.5 -16t18.5 -46q0 -44 -27 -66
t-64 -22z" />
    <glyph glyph-name="Eth" unicode="&#xd0;" horiz-adv-x="679" 
d="M87 111l34 196h-67l13 76h68l32 182h-67l20 111h234q153 0 227 -64.5t74 -194.5q0 -196 -96.5 -306.5t-301.5 -110.5h-256l19 111h67zM226 111h52q111 0 173 76.5t62 229.5q0 69 -40 108.5t-116 39.5h-53l-31 -182h141l-14 -76h-141z" />
    <glyph glyph-name="Ntilde" unicode="&#xd1;" horiz-adv-x="733" 
d="M467 565l19 111h287l-19 -111h-62l-100 -565h-147l-173 461l-60 -350h98l-19 -111h-298l19 111h62l80 454h-62l20 111h214l169 -459l59 348h-87zM621 863l-16 -97q-33 25 -70 25q-22 0 -77 -21t-87 -21q-36 0 -65 21l17 97q26 -25 60 -25q22 0 75.5 21t93.5 21
q38 0 69 -21z" />
    <glyph glyph-name="Ograve" unicode="&#xd2;" horiz-adv-x="647" 
d="M190 242q0 -132 104 -132q83 0 133 91t50 239q0 53 -24.5 89t-76.5 36q-81 0 -133.5 -95.5t-52.5 -227.5zM627 441q0 -71 -12.5 -136t-40.5 -123t-68.5 -100.5t-100.5 -67.5t-133 -25q-116 0 -173.5 70t-57.5 182q0 64 12 125.5t39.5 120t67.5 103t100.5 71t134.5 26.5
q121 0 176.5 -66.5t55.5 -179.5zM303 901h132l40 -167h-117z" />
    <glyph glyph-name="Oacute" unicode="&#xd3;" horiz-adv-x="647" 
d="M190 242q0 -132 104 -132q83 0 133 91t50 239q0 53 -24.5 89t-76.5 36q-81 0 -133.5 -95.5t-52.5 -227.5zM627 441q0 -71 -12.5 -136t-40.5 -123t-68.5 -100.5t-100.5 -67.5t-133 -25q-116 0 -173.5 70t-57.5 182q0 64 12 125.5t39.5 120t67.5 103t100.5 71t134.5 26.5
q121 0 176.5 -66.5t55.5 -179.5zM442 901h131l-114 -167h-116z" />
    <glyph glyph-name="Ocircumflex" unicode="&#xd4;" horiz-adv-x="647" 
d="M190 242q0 -132 104 -132q83 0 133 91t50 239q0 53 -24.5 89t-76.5 36q-81 0 -133.5 -95.5t-52.5 -227.5zM627 441q0 -71 -12.5 -136t-40.5 -123t-68.5 -100.5t-100.5 -67.5t-133 -25q-116 0 -173.5 70t-57.5 182q0 64 12 125.5t39.5 120t67.5 103t100.5 71t134.5 26.5
q121 0 176.5 -66.5t55.5 -179.5zM350 901h168l49 -167h-113l-31 94l-61 -94h-120z" />
    <glyph glyph-name="Otilde" unicode="&#xd5;" horiz-adv-x="647" 
d="M190 242q0 -132 104 -132q83 0 133 91t50 239q0 53 -24.5 89t-76.5 36q-81 0 -133.5 -95.5t-52.5 -227.5zM627 441q0 -71 -12.5 -136t-40.5 -123t-68.5 -100.5t-100.5 -67.5t-133 -25q-116 0 -173.5 70t-57.5 182q0 64 12 125.5t39.5 120t67.5 103t100.5 71t134.5 26.5
q121 0 176.5 -66.5t55.5 -179.5zM574 863l-16 -97q-33 25 -70 25q-22 0 -77 -21t-87 -21q-36 0 -65 21l17 97q26 -25 60 -25q22 0 75.5 21t93.5 21q37 0 69 -21z" />
    <glyph glyph-name="Odieresis" unicode="&#xd6;" horiz-adv-x="647" 
d="M190 242q0 -132 104 -132q83 0 133 91t50 239q0 53 -24.5 89t-76.5 36q-81 0 -133.5 -95.5t-52.5 -227.5zM627 441q0 -71 -12.5 -136t-40.5 -123t-68.5 -100.5t-100.5 -67.5t-133 -25q-116 0 -173.5 70t-57.5 182q0 64 12 125.5t39.5 120t67.5 103t100.5 71t134.5 26.5
q121 0 176.5 -66.5t55.5 -179.5zM305 731q-66 0 -66 58q0 45 25.5 68.5t66.5 23.5q28 0 46.5 -16t18.5 -46q0 -44 -27 -66t-64 -22zM500 731q-66 0 -66 58q0 45 26 68.5t67 23.5q27 0 45.5 -16t18.5 -46q0 -44 -27 -66t-64 -22z" />
    <glyph glyph-name="multiply" unicode="&#xd7;" 
d="M126 29l-88 88l148 149l-153 153l95 96l154 -154l150 150l88 -88l-150 -150l155 -155l-96 -95l-154 155z" />
    <glyph glyph-name="Oslash" unicode="&#xd8;" horiz-adv-x="647" 
d="M627 441q0 -71 -12.5 -136t-40.5 -123t-68.5 -100.5t-100.5 -67.5t-133 -25q-42 0 -83 12l-23 -39h-102l3 14l42 71q-68 68 -68 194q0 64 12 125.5t39.5 120t67.5 103t100.5 71t134.5 26.5q46 0 84 -11l18 30h105l-3 -13l-37 -63q65 -64 65 -189zM477 440q0 23 -4 40
l-217 -365q14 -5 38 -5q83 0 133 91t50 239zM190 242q0 -29 4 -49l216 366q-15 6 -34 6q-81 0 -133.5 -95.5t-52.5 -227.5z" />
    <glyph glyph-name="Ugrave" unicode="&#xd9;" horiz-adv-x="669" 
d="M635 565l-54 -309q-25 -139 -96.5 -202.5t-193.5 -63.5q-118 0 -178.5 68.5t-37.5 197.5l55 309h-61l20 111h276l-20 -111h-79l-55 -309q-13 -75 9.5 -110t81.5 -35q61 0 95.5 34.5t47.5 110.5l54 309h-78l19 111h276l-20 -111h-61zM293 901h132l40 -167h-117z" />
    <glyph glyph-name="Uacute" unicode="&#xda;" horiz-adv-x="669" 
d="M635 565l-54 -309q-25 -139 -96.5 -202.5t-193.5 -63.5q-118 0 -178.5 68.5t-37.5 197.5l55 309h-61l20 111h276l-20 -111h-79l-55 -309q-13 -75 9.5 -110t81.5 -35q61 0 95.5 34.5t47.5 110.5l54 309h-78l19 111h276l-20 -111h-61zM450 901h131l-114 -167h-116z" />
    <glyph glyph-name="Ucircumflex" unicode="&#xdb;" horiz-adv-x="669" 
d="M635 565l-54 -309q-25 -139 -96.5 -202.5t-193.5 -63.5q-118 0 -178.5 68.5t-37.5 197.5l55 309h-61l20 111h276l-20 -111h-79l-55 -309q-13 -75 9.5 -110t81.5 -35q61 0 95.5 34.5t47.5 110.5l54 309h-78l19 111h276l-20 -111h-61zM351 901h168l49 -167h-113l-31 94
l-61 -94h-120z" />
    <glyph glyph-name="Udieresis" unicode="&#xdc;" horiz-adv-x="669" 
d="M635 565l-54 -309q-25 -139 -96.5 -202.5t-193.5 -63.5q-118 0 -178.5 68.5t-37.5 197.5l55 309h-61l20 111h276l-20 -111h-79l-55 -309q-13 -75 9.5 -110t81.5 -35q61 0 95.5 34.5t47.5 110.5l54 309h-78l19 111h276l-20 -111h-61zM314 731q-66 0 -66 58q0 45 25.5 68.5
t66.5 23.5q28 0 46.5 -16t18.5 -46q0 -44 -27 -66t-64 -22zM509 731q-66 0 -66 58q0 45 26 68.5t67 23.5q27 0 45.5 -16t18.5 -46q0 -44 -27 -66t-64 -22z" />
    <glyph glyph-name="Yacute" unicode="&#xdd;" horiz-adv-x="634" 
d="M54 565l19 111h275l-19 -111h-75l72 -191l141 191h-75l20 111h289l-19 -111h-64l-237 -304l-27 -150h74l-19 -111h-292l20 111h79l27 150l-125 304h-64zM432 901h131l-114 -167h-116z" />
    <glyph glyph-name="Thorn" unicode="&#xde;" horiz-adv-x="592" 
d="M156 565h-65l20 111h316l-19 -111h-115l-8 -45h88q214 0 214 -161q0 -204 -259 -204h-107l-8 -44h116l-20 -111h-317l20 111h64zM444 352q0 58 -82 58h-96l-25 -142h96q60 0 83.5 20.5t23.5 63.5z" />
    <glyph glyph-name="germandbls" unicode="&#xdf;" horiz-adv-x="566" 
d="M211 148h95v-55q11 -5 28 -5q26 0 42.5 15.5t16.5 38.5q0 28 -35 66l-30 33q-51 56 -51 93q0 29 49.5 95.5t49.5 96.5q0 29 -17.5 47t-45.5 18q-73 0 -91 -100l-102 -567q-15 -83 -52 -116.5t-112 -33.5q-37 0 -59 11l21 110q13 -3 38 -3q20 0 28 8.5t12 29.5l97 554
q19 110 80 166t155 56t141 -45.5t47 -118.5q0 -30 -16 -62t-34.5 -54t-34.5 -45t-16 -38q0 -20 19 -39l41 -43q58 -64 58 -119q0 -69 -57.5 -111t-140.5 -42q-87 0 -147 30z" />
    <glyph glyph-name="agrave" unicode="&#xe0;" horiz-adv-x="523" 
d="M362 421l46 35h72l-54 -321q-3 -15 1 -21t16 -6h22l-21 -108q-27 -6 -64 -6q-78 0 -81 65q-50 -70 -140 -70q-64 0 -104 47.5t-40 129.5q0 133 66 216.5t165 83.5q75 0 116 -45zM291 140l32 183q-23 21 -68 21q-36 0 -60.5 -26t-34 -59.5t-9.5 -70.5q0 -77 66 -77
q45 0 74 29zM198 696h132l40 -167h-117z" />
    <glyph glyph-name="aacute" unicode="&#xe1;" horiz-adv-x="523" 
d="M362 421l46 35h72l-54 -321q-3 -15 1 -21t16 -6h22l-21 -108q-27 -6 -64 -6q-78 0 -81 65q-50 -70 -140 -70q-64 0 -104 47.5t-40 129.5q0 133 66 216.5t165 83.5q75 0 116 -45zM291 140l32 183q-23 21 -68 21q-36 0 -60.5 -26t-34 -59.5t-9.5 -70.5q0 -77 66 -77
q45 0 74 29zM340 696h131l-114 -167h-116z" />
    <glyph glyph-name="acircumflex" unicode="&#xe2;" horiz-adv-x="523" 
d="M362 421l46 35h72l-54 -321q-3 -15 1 -21t16 -6h22l-21 -108q-27 -6 -64 -6q-78 0 -81 65q-50 -70 -140 -70q-64 0 -104 47.5t-40 129.5q0 133 66 216.5t165 83.5q75 0 116 -45zM291 140l32 183q-23 21 -68 21q-36 0 -60.5 -26t-34 -59.5t-9.5 -70.5q0 -77 66 -77
q45 0 74 29zM243 696h168l49 -167h-113l-31 94l-61 -94h-120z" />
    <glyph glyph-name="atilde" unicode="&#xe3;" horiz-adv-x="523" 
d="M362 421l46 35h72l-54 -321q-3 -15 1 -21t16 -6h22l-21 -108q-27 -6 -64 -6q-78 0 -81 65q-50 -70 -140 -70q-64 0 -104 47.5t-40 129.5q0 133 66 216.5t165 83.5q75 0 116 -45zM291 140l32 183q-23 21 -68 21q-36 0 -60.5 -26t-34 -59.5t-9.5 -70.5q0 -77 66 -77
q45 0 74 29zM468 658l-16 -97q-33 25 -70 25q-22 0 -77 -21t-87 -21q-36 0 -65 21l17 97q26 -25 60 -25q22 0 75.5 21t93.5 21q37 0 69 -21z" />
    <glyph glyph-name="adieresis" unicode="&#xe4;" horiz-adv-x="523" 
d="M362 421l46 35h72l-54 -321q-3 -15 1 -21t16 -6h22l-21 -108q-27 -6 -64 -6q-78 0 -81 65q-50 -70 -140 -70q-64 0 -104 47.5t-40 129.5q0 133 66 216.5t165 83.5q75 0 116 -45zM291 140l32 183q-23 21 -68 21q-36 0 -60.5 -26t-34 -59.5t-9.5 -70.5q0 -77 66 -77
q45 0 74 29zM200 526q-66 0 -66 58q0 45 25.5 68.5t66.5 23.5q28 0 46.5 -16t18.5 -46q0 -44 -27 -66t-64 -22zM395 526q-66 0 -66 58q0 45 26 68.5t67 23.5q27 0 45.5 -16t18.5 -46q0 -44 -27 -66t-64 -22z" />
    <glyph glyph-name="aring" unicode="&#xe5;" horiz-adv-x="523" 
d="M362 421l46 35h72l-54 -321q-3 -15 1 -21t16 -6h22l-21 -108q-27 -6 -64 -6q-78 0 -81 65q-50 -70 -140 -70q-64 0 -104 47.5t-40 129.5q0 133 66 216.5t165 83.5q75 0 116 -45zM291 140l32 183q-23 21 -68 21q-36 0 -60.5 -26t-34 -59.5t-9.5 -70.5q0 -77 66 -77
q45 0 74 29zM205 601q0 48 35 84t93 36q46 0 69.5 -25t23.5 -60q0 -46 -36.5 -82t-96.5 -36q-43 0 -65.5 24.5t-22.5 58.5zM277 612q0 -29 29 -29q22 0 33.5 12.5t11.5 29.5q0 31 -31 31q-19 0 -31 -14t-12 -30z" />
    <glyph glyph-name="ae" unicode="&#xe6;" horiz-adv-x="720" 
d="M486 103q67 0 133 34l25 -101q-86 -47 -192 -47q-99 0 -139 73q-76 -73 -198 -73q-58 0 -89.5 29t-31.5 78q0 92 61.5 126.5t191.5 42.5l43 3l14 83h-108l-11 -62h-115q-7 17 -7 42q0 60 53 97.5t155 37.5q88 0 131 -40q61 40 132 40q83 0 122 -46t39 -114
q0 -58 -27 -122h-255q-9 -81 73 -81zM431 280h136q4 12 4 25q0 27 -16 40.5t-39 13.5q-67 0 -85 -79zM139 124q0 -28 35 -28q45 0 92 35l9 54l-43 -5q-54 -6 -73.5 -18.5t-19.5 -37.5z" />
    <glyph glyph-name="ccedilla" unicode="&#xe7;" horiz-adv-x="444" 
d="M401 265h-113l9 87q-20 6 -33 6q-45 0 -73 -46t-28 -113q0 -89 76 -89q65 0 130 25l10 -104q-71 -33 -133 -40l-25 -45q14 4 34 4q27 0 45.5 -16.5t18.5 -42.5q0 -91 -129 -91q-46 0 -98 23l19 53q44 -24 79 -24q18 0 28.5 9.5t10.5 24.5q0 22 -22 22q-15 0 -27 -10
q-32 13 -43 18l42 75q-81 8 -122 58.5t-41 129.5q0 123 65 205t185 82q90 0 170 -39z" />
    <glyph glyph-name="egrave" unicode="&#xe8;" horiz-adv-x="479" 
d="M382 139l19 -103q-92 -47 -179 -47q-102 0 -154.5 49.5t-52.5 138.5q0 126 72 207.5t187 81.5q93 0 137 -45.5t44 -116.5q0 -59 -26 -120h-281v-7q0 -34 21.5 -54t62.5 -20q69 0 150 36zM168 283h157q4 13 4 26q0 53 -67 53q-34 0 -59.5 -22.5t-34.5 -56.5zM185 696h132
l40 -167h-117z" />
    <glyph glyph-name="eacute" unicode="&#xe9;" horiz-adv-x="479" 
d="M382 139l19 -103q-92 -47 -179 -47q-102 0 -154.5 49.5t-52.5 138.5q0 126 72 207.5t187 81.5q93 0 137 -45.5t44 -116.5q0 -59 -26 -120h-281v-7q0 -34 21.5 -54t62.5 -20q69 0 150 36zM168 283h157q4 13 4 26q0 53 -67 53q-34 0 -59.5 -22.5t-34.5 -56.5zM324 696h131
l-114 -167h-116z" />
    <glyph glyph-name="ecircumflex" unicode="&#xea;" horiz-adv-x="479" 
d="M382 139l19 -103q-92 -47 -179 -47q-102 0 -154.5 49.5t-52.5 138.5q0 126 72 207.5t187 81.5q93 0 137 -45.5t44 -116.5q0 -59 -26 -120h-281v-7q0 -34 21.5 -54t62.5 -20q69 0 150 36zM168 283h157q4 13 4 26q0 53 -67 53q-34 0 -59.5 -22.5t-34.5 -56.5zM230 696h168
l49 -167h-113l-31 94l-61 -94h-120z" />
    <glyph glyph-name="edieresis" unicode="&#xeb;" horiz-adv-x="479" 
d="M382 139l19 -103q-92 -47 -179 -47q-102 0 -154.5 49.5t-52.5 138.5q0 126 72 207.5t187 81.5q93 0 137 -45.5t44 -116.5q0 -59 -26 -120h-281v-7q0 -34 21.5 -54t62.5 -20q69 0 150 36zM168 283h157q4 13 4 26q0 53 -67 53q-34 0 -59.5 -22.5t-34.5 -56.5zM188 526
q-66 0 -66 58q0 45 25.5 68.5t66.5 23.5q28 0 46.5 -16t18.5 -46q0 -44 -27 -66t-64 -22zM383 526q-66 0 -66 58q0 45 26 68.5t67 23.5q27 0 45.5 -16t18.5 -46q0 -44 -27 -66t-64 -22z" />
    <glyph glyph-name="igrave" unicode="&#xec;" horiz-adv-x="346" 
d="M-16 0l20 111h92l41 233h-92l20 112h220l-60 -345h81l-19 -111h-303zM128 696h132l40 -167h-117z" />
    <glyph glyph-name="iacute" unicode="&#xed;" horiz-adv-x="346" 
d="M-16 0l20 111h92l41 233h-92l20 112h220l-60 -345h81l-19 -111h-303zM267 696h131l-114 -167h-116z" />
    <glyph glyph-name="icircumflex" unicode="&#xee;" horiz-adv-x="346" 
d="M-16 0l20 111h92l41 233h-92l20 112h220l-60 -345h81l-19 -111h-303zM160 696h168l49 -167h-113l-31 94l-61 -94h-120z" />
    <glyph glyph-name="idieresis" unicode="&#xef;" horiz-adv-x="346" 
d="M-16 0l20 111h92l41 233h-92l20 112h220l-60 -345h81l-19 -111h-303zM121 526q-66 0 -66 58q0 45 25.5 68.5t66.5 23.5q28 0 46.5 -16t18.5 -46q0 -44 -27 -66t-64 -22zM316 526q-66 0 -66 58q0 45 26 68.5t67 23.5q27 0 45.5 -16t18.5 -46q0 -44 -27 -66t-64 -22z" />
    <glyph glyph-name="eth" unicode="&#xf0;" horiz-adv-x="523" 
d="M253 564l59 22q-29 59 -79 110h158q24 -27 43 -64l64 25l32 -74l-65 -26q27 -81 27 -172q0 -69 -15 -135.5t-46 -126.5t-87 -97t-128 -37q-97 0 -148.5 55t-51.5 147q0 105 63.5 180.5t155.5 75.5q81 0 121 -67v27q0 49 -14 102l-58 -23zM229 111q42 0 70.5 42.5
t34.5 107.5q-22 53 -87 53q-40 0 -66 -33t-26 -83q0 -39 18.5 -63t55.5 -24z" />
    <glyph glyph-name="ntilde" unicode="&#xf1;" horiz-adv-x="571" 
d="M-15 0l20 111h64l39 233h-61l20 112h152l13 -63q19 28 57 50.5t92 22.5q77 0 106 -51t17 -119l-33 -185h62l-20 -111h-65q-67 0 -91.5 27t-14.5 84l31 173q5 28 -11 43.5t-51 15.5q-23 0 -46 -9.5t-33 -19.5l-36 -203h87l-21 -111h-277zM482 658l-16 -97q-33 25 -70 25
q-22 0 -77 -21t-87 -21q-36 0 -65 21l17 97q26 -25 60 -25q22 0 75.5 21t93.5 21q37 0 69 -21z" />
    <glyph glyph-name="ograve" unicode="&#xf2;" horiz-adv-x="480" 
d="M266 466q89 0 135 -50t46 -137q0 -51 -13 -99.5t-41 -93t-78.5 -71t-117.5 -26.5q-88 0 -134.5 50t-46.5 137q0 52 13.5 101t41 92.5t78 70t117.5 26.5zM213 108q47 0 73.5 45.5t26.5 120.5q0 73 -63 73q-46 0 -72.5 -45.5t-26.5 -120.5q0 -73 62 -73zM177 696h132
l40 -167h-117z" />
    <glyph glyph-name="oacute" unicode="&#xf3;" horiz-adv-x="480" 
d="M266 466q89 0 135 -50t46 -137q0 -51 -13 -99.5t-41 -93t-78.5 -71t-117.5 -26.5q-88 0 -134.5 50t-46.5 137q0 52 13.5 101t41 92.5t78 70t117.5 26.5zM213 108q47 0 73.5 45.5t26.5 120.5q0 73 -63 73q-46 0 -72.5 -45.5t-26.5 -120.5q0 -73 62 -73zM322 696h131
l-114 -167h-116z" />
    <glyph glyph-name="ocircumflex" unicode="&#xf4;" horiz-adv-x="480" 
d="M266 466q89 0 135 -50t46 -137q0 -51 -13 -99.5t-41 -93t-78.5 -71t-117.5 -26.5q-88 0 -134.5 50t-46.5 137q0 52 13.5 101t41 92.5t78 70t117.5 26.5zM213 108q47 0 73.5 45.5t26.5 120.5q0 73 -63 73q-46 0 -72.5 -45.5t-26.5 -120.5q0 -73 62 -73zM227 696h168
l49 -167h-113l-31 94l-61 -94h-120z" />
    <glyph glyph-name="otilde" unicode="&#xf5;" horiz-adv-x="480" 
d="M266 466q89 0 135 -50t46 -137q0 -51 -13 -99.5t-41 -93t-78.5 -71t-117.5 -26.5q-88 0 -134.5 50t-46.5 137q0 52 13.5 101t41 92.5t78 70t117.5 26.5zM213 108q47 0 73.5 45.5t26.5 120.5q0 73 -63 73q-46 0 -72.5 -45.5t-26.5 -120.5q0 -73 62 -73zM456 658l-16 -97
q-33 25 -70 25q-22 0 -77 -21t-87 -21q-36 0 -65 21l17 97q26 -25 60 -25q22 0 75.5 21t93.5 21q37 0 69 -21z" />
    <glyph glyph-name="odieresis" unicode="&#xf6;" horiz-adv-x="480" 
d="M266 466q89 0 135 -50t46 -137q0 -51 -13 -99.5t-41 -93t-78.5 -71t-117.5 -26.5q-88 0 -134.5 50t-46.5 137q0 52 13.5 101t41 92.5t78 70t117.5 26.5zM213 108q47 0 73.5 45.5t26.5 120.5q0 73 -63 73q-46 0 -72.5 -45.5t-26.5 -120.5q0 -73 62 -73zM186 526
q-66 0 -66 58q0 45 25.5 68.5t66.5 23.5q28 0 46.5 -16t18.5 -46q0 -44 -27 -66t-64 -22zM381 526q-66 0 -66 58q0 45 26 68.5t67 23.5q27 0 45.5 -16t18.5 -46q0 -44 -27 -66t-64 -22z" />
    <glyph glyph-name="divide" unicode="&#xf7;" 
d="M30 208v125h497v-125h-497zM281 4q-37 0 -61 22.5t-24 57.5t24 58t61 23q36 0 60 -23t24 -58q0 -34 -24 -57t-60 -23zM281 376q-37 0 -61 23t-24 58t24 57.5t61 22.5q36 0 60 -22.5t24 -57.5t-24 -58t-60 -23z" />
    <glyph glyph-name="oslash" unicode="&#xf8;" horiz-adv-x="480" 
d="M266 466q36 0 69 -10l30 47h79l-2 -13l-45 -70q50 -50 50 -141q0 -51 -13 -99.5t-41 -93t-78.5 -71t-117.5 -26.5q-38 0 -71 11l-30 -48h-77l3 14l44 69q-50 49 -50 141q0 52 13.5 101t41 92.5t78 70t117.5 26.5zM213 108q47 0 73.5 45.5t26.5 120.5q0 10 -1 14
l-115 -179q5 -1 16 -1zM151 181v-12l113 177q-2 0 -6.5 0.5t-7.5 0.5q-46 0 -72.5 -45.5t-26.5 -120.5z" />
    <glyph glyph-name="ugrave" unicode="&#xf9;" horiz-adv-x="557" 
d="M44 456h188l-49 -278q-11 -66 43 -66q60 0 100 54l31 179h-69l20 111h198l-61 -344h65l-21 -112h-65q-76 0 -85 69q-57 -80 -154 -80q-83 0 -114 49t-19 125l31 182h-60zM192 696h132l40 -167h-117z" />
    <glyph glyph-name="uacute" unicode="&#xfa;" horiz-adv-x="557" 
d="M44 456h188l-49 -278q-11 -66 43 -66q60 0 100 54l31 179h-69l20 111h198l-61 -344h65l-21 -112h-65q-76 0 -85 69q-57 -80 -154 -80q-83 0 -114 49t-19 125l31 182h-60zM342 696h131l-114 -167h-116z" />
    <glyph glyph-name="ucircumflex" unicode="&#xfb;" horiz-adv-x="557" 
d="M44 456h188l-49 -278q-11 -66 43 -66q60 0 100 54l31 179h-69l20 111h198l-61 -344h65l-21 -112h-65q-76 0 -85 69q-57 -80 -154 -80q-83 0 -114 49t-19 125l31 182h-60zM246 696h168l49 -167h-113l-31 94l-61 -94h-120z" />
    <glyph glyph-name="udieresis" unicode="&#xfc;" horiz-adv-x="557" 
d="M44 456h188l-49 -278q-11 -66 43 -66q60 0 100 54l31 179h-69l20 111h198l-61 -344h65l-21 -112h-65q-76 0 -85 69q-57 -80 -154 -80q-83 0 -114 49t-19 125l31 182h-60zM203 526q-66 0 -66 58q0 45 25.5 68.5t66.5 23.5q28 0 46.5 -16t18.5 -46q0 -44 -27 -66t-64 -22z
M398 526q-66 0 -66 58q0 45 26 68.5t67 23.5q27 0 45.5 -16t18.5 -46q0 -44 -27 -66t-64 -22z" />
    <glyph glyph-name="yacute" unicode="&#xfd;" horiz-adv-x="554" 
d="M-34 -205l16 92h123l66 117l-87 340h-66l20 112h209l-20 -112l34 -195l107 195h-84l19 112h275l-20 -112h-58l-264 -457q-65 -113 -170 -113q-66 0 -100 21zM349 696h131l-114 -167h-116z" />
    <glyph glyph-name="thorn" unicode="&#xfe;" horiz-adv-x="510" 
d="M188 -216h-263l19 106l47 15l120 679h-62l20 112h189l-53 -283q49 53 120 53q73 0 111.5 -46.5t38.5 -129.5q0 -138 -60.5 -219.5t-173.5 -81.5q-67 0 -99 43l-24 -137h90zM338 265q0 79 -68 79q-46 0 -77 -28l-33 -184q26 -21 69 -21q51 0 80 38.5t29 115.5z" />
    <glyph glyph-name="ydieresis" unicode="&#xff;" horiz-adv-x="554" 
d="M-34 -205l16 92h123l66 117l-87 340h-66l20 112h209l-20 -112l34 -195l107 195h-84l19 112h275l-20 -112h-58l-264 -457q-65 -113 -170 -113q-66 0 -100 21zM218 526q-66 0 -66 58q0 45 25.5 68.5t66.5 23.5q28 0 46.5 -16t18.5 -46q0 -44 -27 -66t-64 -22zM413 526
q-66 0 -66 58q0 45 26 68.5t67 23.5q27 0 45.5 -16t18.5 -46q0 -44 -27 -66t-64 -22z" />
    <glyph glyph-name="Amacron" unicode="&#x100;" horiz-adv-x="677" 
d="M352 0l20 111h69l-9 81h-212l-39 -81h69l-19 -111h-274l20 111h55l238 454h-54l20 111h346l-19 -111h-53l77 -454h55l-20 -111h-270zM271 306h152l-37 232zM292 861h298l-19 -105h-297z" />
    <glyph glyph-name="amacron" unicode="&#x101;" horiz-adv-x="523" 
d="M362 421l46 35h72l-54 -321q-3 -15 1 -21t16 -6h22l-21 -108q-27 -6 -64 -6q-78 0 -81 65q-50 -70 -140 -70q-64 0 -104 47.5t-40 129.5q0 133 66 216.5t165 83.5q75 0 116 -45zM291 140l32 183q-23 21 -68 21q-36 0 -60.5 -26t-34 -59.5t-9.5 -70.5q0 -77 66 -77
q45 0 74 29zM175 656h298l-19 -105h-297z" />
    <glyph glyph-name="Abreve" unicode="&#x102;" horiz-adv-x="677" 
d="M352 0l20 111h69l-9 81h-212l-39 -81h69l-19 -111h-274l20 111h55l238 454h-54l20 111h346l-19 -111h-53l77 -454h55l-20 -111h-270zM271 306h152l-37 232zM511 894h84q-12 -68 -60 -112t-124 -44q-73 0 -104.5 44t-19.5 112h81q0 -29 16 -45.5t44 -16.5q27 0 49.5 17
t33.5 45z" />
    <glyph glyph-name="abreve" unicode="&#x103;" horiz-adv-x="523" 
d="M362 421l46 35h72l-54 -321q-3 -15 1 -21t16 -6h22l-21 -108q-27 -6 -64 -6q-78 0 -81 65q-50 -70 -140 -70q-64 0 -104 47.5t-40 129.5q0 133 66 216.5t165 83.5q75 0 116 -45zM291 140l32 183q-23 21 -68 21q-36 0 -60.5 -26t-34 -59.5t-9.5 -70.5q0 -77 66 -77
q45 0 74 29zM397 689h84q-12 -68 -60 -112t-124 -44q-73 0 -104.5 44t-19.5 112h81q0 -29 16 -45.5t44 -16.5q27 0 49.5 17t33.5 45z" />
    <glyph glyph-name="Aogonek" unicode="&#x104;" horiz-adv-x="677" 
d="M352 0l20 111h69l-9 81h-212l-39 -81h69l-19 -111h-274l20 111h55l238 454h-54l20 111h346l-19 -111h-53l77 -454h55l-20 -111h-63l-97 -51q-31 -16 -31 -35q0 -17 24 -17q23 0 58 15l-17 -92q-36 -18 -97 -18q-49 0 -77 19t-28 54q0 65 73 98l61 27h-76zM271 306h152
l-37 232z" />
    <glyph glyph-name="aogonek" unicode="&#x105;" horiz-adv-x="526" 
d="M362 421l46 35h72l-54 -321q-3 -15 1 -21t16 -6h22l-19 -105l-79 -53q-18 -13 -24.5 -20t-6.5 -16q0 -17 20 -17q27 0 62 15l-17 -92q-36 -18 -88 -18q-114 0 -114 73q0 65 73 98l64 28q-36 15 -37 58q-50 -70 -140 -70q-64 0 -104 47.5t-40 129.5q0 133 66 216.5
t165 83.5q75 0 116 -45zM291 140l32 183q-23 21 -68 21q-36 0 -60.5 -26t-34 -59.5t-9.5 -70.5q0 -77 66 -77q45 0 74 29z" />
    <glyph glyph-name="Cacute" unicode="&#x106;" horiz-adv-x="591" 
d="M566 416h-123l26 135q-36 11 -74 11q-88 0 -148.5 -88t-60.5 -209q0 -75 32.5 -111t100.5 -36q83 0 185 48l8 -127q-111 -50 -208 -50q-135 0 -200 67t-65 207q0 69 23 141t66 136t114.5 105t158.5 41q110 0 217 -42zM452 901h131l-114 -167h-116z" />
    <glyph glyph-name="cacute" unicode="&#x107;" horiz-adv-x="444" 
d="M401 265h-113l9 87q-20 6 -33 6q-45 0 -73 -46t-28 -113q0 -89 76 -89q65 0 130 25l10 -104q-92 -42 -169 -42q-96 0 -145 52t-49 138q0 123 65 205t185 82q90 0 170 -39zM319 696h131l-114 -167h-116z" />
    <glyph glyph-name="Ccircumflex" unicode="&#x108;" horiz-adv-x="591" 
d="M566 416h-123l26 135q-36 11 -74 11q-88 0 -148.5 -88t-60.5 -209q0 -75 32.5 -111t100.5 -36q83 0 185 48l8 -127q-111 -50 -208 -50q-135 0 -200 67t-65 207q0 69 23 141t66 136t114.5 105t158.5 41q110 0 217 -42zM352 901h168l49 -167h-113l-31 94l-61 -94h-120z" />
    <glyph glyph-name="ccircumflex" unicode="&#x109;" horiz-adv-x="444" 
d="M401 265h-113l9 87q-20 6 -33 6q-45 0 -73 -46t-28 -113q0 -89 76 -89q65 0 130 25l10 -104q-92 -42 -169 -42q-96 0 -145 52t-49 138q0 123 65 205t185 82q90 0 170 -39zM240 696h168l49 -167h-113l-31 94l-61 -94h-120z" />
    <glyph glyph-name="Cdotaccent" unicode="&#x10a;" horiz-adv-x="591" 
d="M566 416h-123l26 135q-36 11 -74 11q-88 0 -148.5 -88t-60.5 -209q0 -75 32.5 -111t100.5 -36q83 0 185 48l8 -127q-111 -50 -208 -50q-135 0 -200 67t-65 207q0 69 23 141t66 136t114.5 105t158.5 41q110 0 217 -42zM415 731q-67 0 -67 58q0 45 26 68.5t67 23.5
q27 0 45.5 -16t18.5 -46q0 -45 -26.5 -66.5t-63.5 -21.5z" />
    <glyph glyph-name="cdotaccent" unicode="&#x10b;" horiz-adv-x="444" 
d="M401 265h-113l9 87q-20 6 -33 6q-45 0 -73 -46t-28 -113q0 -89 76 -89q65 0 130 25l10 -104q-92 -42 -169 -42q-96 0 -145 52t-49 138q0 123 65 205t185 82q90 0 170 -39zM296 526q-67 0 -67 58q0 45 26 68.5t67 23.5q27 0 45.5 -16t18.5 -46q0 -45 -26.5 -66.5
t-63.5 -21.5z" />
    <glyph glyph-name="Ccaron" unicode="&#x10c;" horiz-adv-x="591" 
d="M566 416h-123l26 135q-36 11 -74 11q-88 0 -148.5 -88t-60.5 -209q0 -75 32.5 -111t100.5 -36q83 0 185 48l8 -127q-111 -50 -208 -50q-135 0 -200 67t-65 207q0 69 23 141t66 136t114.5 105t158.5 41q110 0 217 -42zM498 734h-168l-49 167h113l31 -94l61 94h120z" />
    <glyph glyph-name="ccaron" unicode="&#x10d;" horiz-adv-x="444" 
d="M401 265h-113l9 87q-20 6 -33 6q-45 0 -73 -46t-28 -113q0 -89 76 -89q65 0 130 25l10 -104q-92 -42 -169 -42q-96 0 -145 52t-49 138q0 123 65 205t185 82q90 0 170 -39zM380 529h-168l-49 167h113l31 -94l61 94h120z" />
    <glyph glyph-name="Dcaron" unicode="&#x10e;" horiz-adv-x="670" 
d="M78 111l80 454h-67l20 111h234q153 0 227 -64.5t74 -194.5q0 -197 -94.5 -307t-299.5 -110h-260l19 111h67zM217 111h52q111 0 173 76.5t62 229.5q0 69 -40 108.5t-116 39.5h-53zM467 734h-168l-49 167h113l31 -94l61 94h120z" />
    <glyph glyph-name="dcaron" unicode="&#x10f;" horiz-adv-x="577" 
d="M533 696l-101 -585h62l-21 -111h-70q-80 0 -86 66q-23 -33 -62.5 -55t-86.5 -22q-73 0 -113 44.5t-40 127.5q0 139 66.5 222t165.5 83q76 0 110 -45l28 164h-79l21 111h206zM307 140l31 183q-23 21 -74 21q-57 0 -85 -48t-28 -107q0 -78 73 -78q50 0 83 29zM759 696
l-84 -155h-102l45 155h141z" />
    <glyph glyph-name="Dcroat" unicode="&#x110;" horiz-adv-x="679" 
d="M87 111l34 196h-67l13 76h68l32 182h-67l20 111h234q153 0 227 -64.5t74 -194.5q0 -195 -95.5 -306t-295.5 -111h-263l19 111h67zM226 111h52q111 0 173 76.5t62 229.5q0 69 -40 108.5t-116 39.5h-53l-31 -182h141l-14 -76h-141z" />
    <glyph glyph-name="dcroat" unicode="&#x111;" horiz-adv-x="540" 
d="M533 696l-25 -139h61l-13 -75h-61l-64 -371h62l-20 -111h-70q-80 0 -86 66q-23 -33 -62.5 -55t-86.5 -22q-73 0 -113 44.5t-40 127.5q0 139 66.5 222t165.5 83q76 0 110 -45l10 61h-59l13 75h59l5 28h-79l21 111h206zM307 140l31 183q-23 21 -74 21q-57 0 -85 -48
t-28 -107q0 -78 73 -78q50 0 83 29z" />
    <glyph glyph-name="Emacron" unicode="&#x112;" horiz-adv-x="591" 
d="M410 212h126l-37 -212h-507l19 111h66l80 454h-66l20 111h504l-37 -212h-127l18 101h-175l-30 -171h184l-20 -112h-184l-30 -171h178zM261 861h298l-19 -105h-297z" />
    <glyph glyph-name="emacron" unicode="&#x113;" horiz-adv-x="479" 
d="M382 139l19 -103q-92 -47 -179 -47q-102 0 -154.5 49.5t-52.5 138.5q0 126 72 207.5t187 81.5q93 0 137 -45.5t44 -116.5q0 -59 -26 -120h-281v-7q0 -34 21.5 -54t62.5 -20q69 0 150 36zM168 283h157q4 13 4 26q0 53 -67 53q-34 0 -59.5 -22.5t-34.5 -56.5zM161 656h298
l-19 -105h-297z" />
    <glyph glyph-name="Ebreve" unicode="&#x114;" horiz-adv-x="591" 
d="M410 212h126l-37 -212h-507l19 111h66l80 454h-66l20 111h504l-37 -212h-127l18 101h-175l-30 -171h184l-20 -112h-184l-30 -171h178zM487 894h84q-12 -68 -60 -112t-124 -44q-73 0 -104.5 44t-19.5 112h81q0 -29 16 -45.5t44 -16.5q27 0 49.5 17t33.5 45z" />
    <glyph glyph-name="ebreve" unicode="&#x115;" horiz-adv-x="479" 
d="M382 139l19 -103q-92 -47 -179 -47q-102 0 -154.5 49.5t-52.5 138.5q0 126 72 207.5t187 81.5q93 0 137 -45.5t44 -116.5q0 -59 -26 -120h-281v-7q0 -34 21.5 -54t62.5 -20q69 0 150 36zM168 283h157q4 13 4 26q0 53 -67 53q-34 0 -59.5 -22.5t-34.5 -56.5zM380 689h84
q-12 -68 -60 -112t-124 -44q-73 0 -104.5 44t-19.5 112h81q0 -29 16 -45.5t44 -16.5q27 0 49.5 17t33.5 45z" />
    <glyph glyph-name="Edotaccent" unicode="&#x116;" horiz-adv-x="591" 
d="M410 212h126l-37 -212h-507l19 111h66l80 454h-66l20 111h504l-37 -212h-127l18 101h-175l-30 -171h184l-20 -112h-184l-30 -171h178zM389 731q-67 0 -67 58q0 45 26 68.5t67 23.5q27 0 45.5 -16t18.5 -46q0 -45 -26.5 -66.5t-63.5 -21.5z" />
    <glyph glyph-name="edotaccent" unicode="&#x117;" horiz-adv-x="479" 
d="M382 139l19 -103q-92 -47 -179 -47q-102 0 -154.5 49.5t-52.5 138.5q0 126 72 207.5t187 81.5q93 0 137 -45.5t44 -116.5q0 -59 -26 -120h-281v-7q0 -34 21.5 -54t62.5 -20q69 0 150 36zM168 283h157q4 13 4 26q0 53 -67 53q-34 0 -59.5 -22.5t-34.5 -56.5zM287 526
q-67 0 -67 58q0 45 26 68.5t67 23.5q27 0 45.5 -16t18.5 -46q0 -45 -26.5 -66.5t-63.5 -21.5z" />
    <glyph glyph-name="Eogonek" unicode="&#x118;" horiz-adv-x="591" 
d="M410 212h126l-37 -212q-7 -3 -31.5 -15t-36.5 -18.5t-29 -17t-24.5 -19t-7.5 -16.5q0 -17 20 -17q27 0 62 15l-17 -92q-36 -18 -88 -18q-114 0 -114 73q0 65 73 98l61 27h-375l19 111h66l80 454h-66l20 111h504l-37 -212h-127l18 101h-175l-30 -171h184l-20 -112h-184
l-30 -171h178z" />
    <glyph glyph-name="eogonek" unicode="&#x119;" horiz-adv-x="479" 
d="M382 139l19 -103q-14 -9 -92 -46l-61 -39q-30 -20 -30 -37t20 -17q23 0 63 15l-17 -92q-39 -18 -88 -18q-115 0 -115 73q0 30 16.5 53t56.5 45l32 18q-147 18 -168 143q-3 21 -3 43q0 126 72 207.5t187 81.5q93 0 137 -45.5t44 -116.5q0 -59 -26 -120h-281v-7
q0 -34 21.5 -54t62.5 -20q69 0 150 36zM168 283h157q4 13 4 26q0 53 -67 53q-34 0 -59.5 -22.5t-34.5 -56.5z" />
    <glyph glyph-name="Ecaron" unicode="&#x11a;" horiz-adv-x="591" 
d="M410 212h126l-37 -212h-507l19 111h66l80 454h-66l20 111h504l-37 -212h-127l18 101h-175l-30 -171h184l-20 -112h-184l-30 -171h178zM473 734h-168l-49 167h113l31 -94l61 94h120z" />
    <glyph glyph-name="ecaron" unicode="&#x11b;" horiz-adv-x="479" 
d="M382 139l19 -103q-92 -47 -179 -47q-102 0 -154.5 49.5t-52.5 138.5q0 126 72 207.5t187 81.5q93 0 137 -45.5t44 -116.5q0 -59 -26 -120h-281v-7q0 -34 21.5 -54t62.5 -20q69 0 150 36zM168 283h157q4 13 4 26q0 53 -67 53q-34 0 -59.5 -22.5t-34.5 -56.5zM372 529h-168
l-49 167h113l31 -94l61 94h120z" />
    <glyph glyph-name="Gcircumflex" unicode="&#x11c;" horiz-adv-x="647" 
d="M598 438h-123l19 115q-42 9 -82 9q-72 0 -124.5 -46.5t-76 -112t-23.5 -138.5q0 -75 32.5 -111t118.5 -36q64 0 104 11l19 100h-146l20 114h274l-54 -308q-103 -46 -235 -46q-139 0 -209.5 72t-70.5 203q0 76 22.5 149t66.5 135t118.5 100t169.5 38q123 0 227 -40z
M379 901h168l49 -167h-113l-31 94l-61 -94h-120z" />
    <glyph glyph-name="gcircumflex" unicode="&#x11d;" horiz-adv-x="512" 
d="M485 456l-78 -456q-17 -103 -81.5 -164.5t-165.5 -61.5q-170 0 -170 121q0 23 6 48h119q0 -3 -0.5 -8t-0.5 -7q0 -51 52 -51q43 0 72 33t40 88l10 52q-47 -61 -125 -61q-69 0 -109 45.5t-40 124.5q0 137 66.5 222t170.5 85q70 0 110 -45l47 35h77zM296 140l32 183
q-26 21 -69 21q-30 0 -52 -15.5t-33.5 -40t-17 -50.5t-5.5 -52q0 -75 69 -75q43 0 76 29zM250 696h168l49 -167h-113l-31 94l-61 -94h-120z" />
    <glyph glyph-name="Gbreve" unicode="&#x11e;" horiz-adv-x="647" 
d="M598 438h-123l19 115q-42 9 -82 9q-72 0 -124.5 -46.5t-76 -112t-23.5 -138.5q0 -75 32.5 -111t118.5 -36q64 0 104 11l19 100h-146l20 114h274l-54 -308q-103 -46 -235 -46q-139 0 -209.5 72t-70.5 203q0 76 22.5 149t66.5 135t118.5 100t169.5 38q123 0 227 -40z
M541 894h84q-12 -68 -60 -112t-124 -44q-73 0 -104.5 44t-19.5 112h81q0 -29 16 -45.5t44 -16.5q27 0 49.5 17t33.5 45z" />
    <glyph glyph-name="gbreve" unicode="&#x11f;" horiz-adv-x="512" 
d="M485 456l-78 -456q-17 -103 -81.5 -164.5t-165.5 -61.5q-170 0 -170 121q0 23 6 48h119q0 -3 -0.5 -8t-0.5 -7q0 -51 52 -51q43 0 72 33t40 88l10 52q-47 -61 -125 -61q-69 0 -109 45.5t-40 124.5q0 137 66.5 222t170.5 85q70 0 110 -45l47 35h77zM296 140l32 183
q-26 21 -69 21q-30 0 -52 -15.5t-33.5 -40t-17 -50.5t-5.5 -52q0 -75 69 -75q43 0 76 29zM408 689h84q-12 -68 -60 -112t-124 -44q-73 0 -104.5 44t-19.5 112h81q0 -29 16 -45.5t44 -16.5q27 0 49.5 17t33.5 45z" />
    <glyph glyph-name="Gdotaccent" unicode="&#x120;" horiz-adv-x="647" 
d="M598 438h-123l19 115q-42 9 -82 9q-72 0 -124.5 -46.5t-76 -112t-23.5 -138.5q0 -75 32.5 -111t118.5 -36q64 0 104 11l19 100h-146l20 114h274l-54 -308q-103 -46 -235 -46q-139 0 -209.5 72t-70.5 203q0 76 22.5 149t66.5 135t118.5 100t169.5 38q123 0 227 -40z
M444 731q-67 0 -67 58q0 45 26 68.5t67 23.5q27 0 45.5 -16t18.5 -46q0 -45 -26.5 -66.5t-63.5 -21.5z" />
    <glyph glyph-name="gdotaccent" unicode="&#x121;" horiz-adv-x="512" 
d="M485 456l-78 -456q-17 -103 -81.5 -164.5t-165.5 -61.5q-170 0 -170 121q0 23 6 48h119q0 -3 -0.5 -8t-0.5 -7q0 -51 52 -51q43 0 72 33t40 88l10 52q-47 -61 -125 -61q-69 0 -109 45.5t-40 124.5q0 137 66.5 222t170.5 85q70 0 110 -45l47 35h77zM296 140l32 183
q-26 21 -69 21q-30 0 -52 -15.5t-33.5 -40t-17 -50.5t-5.5 -52q0 -75 69 -75q43 0 76 29zM309 526q-67 0 -67 58q0 45 26 68.5t67 23.5q27 0 45.5 -16t18.5 -46q0 -45 -26.5 -66.5t-63.5 -21.5z" />
    <glyph glyph-name="Gcommaaccent" unicode="&#x122;" horiz-adv-x="646" 
d="M598 438h-123l19 115q-42 9 -82 9q-72 0 -124.5 -46.5t-76 -112t-23.5 -138.5q0 -75 32.5 -111t118.5 -36q64 0 104 11l19 100h-146l20 114h274l-54 -308q-103 -46 -235 -46q-139 0 -209.5 72t-70.5 203q0 76 22.5 149t66.5 135t118.5 100t169.5 38q123 0 227 -40z
M381 -61l-84 -155h-102l45 155h141z" />
    <glyph glyph-name="gcommaaccent" unicode="&#x123;" horiz-adv-x="512" 
d="M485 456l-78 -456q-17 -103 -81.5 -164.5t-165.5 -61.5q-170 0 -170 121q0 23 6 48h119q0 -3 -0.5 -8t-0.5 -7q0 -51 52 -51q43 0 72 33t40 88l10 52q-47 -61 -125 -61q-69 0 -109 45.5t-40 124.5q0 137 66.5 222t170.5 85q70 0 110 -45l47 35h77zM296 140l32 183
q-26 21 -69 21q-30 0 -52 -15.5t-33.5 -40t-17 -50.5t-5.5 -52q0 -75 69 -75q43 0 76 29zM230 554l113 183h100l-68 -183h-145z" />
    <glyph glyph-name="Hcircumflex" unicode="&#x124;" horiz-adv-x="741" 
d="M467 565l19 111h283l-19 -111h-62l-80 -454h62l-20 -111h-283l20 111h84l31 178h-258l-31 -178h85l-20 -111h-286l20 111h63l80 454h-63l19 111h287l-20 -111h-85l-28 -158h258l28 158h-84zM397 901h168l49 -167h-113l-31 94l-61 -94h-120z" />
    <glyph glyph-name="hcircumflex" unicode="&#x125;" horiz-adv-x="558" 
d="M181 111h80l-21 -111h-271l21 111h63l82 474h-62l20 111h191l-53 -289q18 24 51.5 41.5t73.5 17.5q60 0 93.5 -28t38 -71t-2.5 -96l-27 -160h62l-20 -111h-65q-68 0 -92 25t-14 86l26 151q13 79 -54 79q-43 0 -85 -22zM294 896h168l49 -167h-113l-31 94l-61 -94h-120z
" />
    <glyph glyph-name="Hbar" unicode="&#x126;" horiz-adv-x="741" 
d="M468 565l19 111h283l-19 -111h-62l-9 -47h65l-13 -75h-65l-58 -332h62l-20 -111h-283l20 111h84l31 178h-258l-31 -178h85l-20 -111h-286l20 111h63l58 332h-60l14 75h59l9 47h-63l19 111h287l-20 -111h-85l-9 -47h258l9 47h-84zM266 407h258l6 36h-258z" />
    <glyph glyph-name="hbar" unicode="&#x127;" horiz-adv-x="558" 
d="M181 111h80l-21 -111h-271l21 111h63l64 371h-60l13 75h60l5 28h-62l20 111h191l-26 -139h60l-13 -75h-60l-14 -75q18 24 51.5 41.5t73.5 17.5q60 0 93.5 -28t38 -71t-2.5 -96l-27 -160h62l-20 -111h-65q-68 0 -92 25t-14 86l26 151q13 79 -54 79q-43 0 -85 -22z" />
    <glyph glyph-name="Itilde" unicode="&#x128;" horiz-adv-x="358" 
d="M-12 0l20 111h74l80 454h-74l19 111h283l-20 -111h-70l-80 -454h70l-20 -111h-282zM426 863l-16 -97q-33 25 -70 25q-22 0 -77 -21t-87 -21q-36 0 -65 21l17 97q26 -25 60 -25q22 0 75.5 21t93.5 21q37 0 69 -21z" />
    <glyph glyph-name="itilde" unicode="&#x129;" horiz-adv-x="346" 
d="M-16 0l20 111h92l41 233h-92l20 112h220l-60 -345h81l-19 -111h-303zM383 658l-16 -97q-33 25 -70 25q-22 0 -77 -21t-87 -21q-36 0 -65 21l17 97q26 -25 60 -25q22 0 75.5 21t93.5 21q38 0 69 -21z" />
    <glyph glyph-name="Imacron" unicode="&#x12a;" horiz-adv-x="358" 
d="M-12 0l20 111h74l80 454h-74l19 111h283l-20 -111h-70l-80 -454h70l-20 -111h-282zM126 861h298l-19 -105h-297z" />
    <glyph glyph-name="imacron" unicode="&#x12b;" horiz-adv-x="346" 
d="M-16 0l20 111h92l41 233h-92l20 112h220l-60 -345h81l-19 -111h-303zM92 656h298l-19 -105h-297z" />
    <glyph glyph-name="Ibreve" unicode="&#x12c;" horiz-adv-x="358" 
d="M-12 0l20 111h74l80 454h-74l19 111h283l-20 -111h-70l-80 -454h70l-20 -111h-282zM357 894h84q-12 -68 -60 -112t-124 -44q-73 0 -104.5 44t-19.5 112h81q0 -29 16 -45.5t44 -16.5q27 0 49.5 17t33.5 45z" />
    <glyph glyph-name="ibreve" unicode="&#x12d;" horiz-adv-x="346" 
d="M-16 0l20 111h92l41 233h-92l20 112h220l-60 -345h81l-19 -111h-303zM318 689h84q-12 -68 -60 -112t-124 -44q-73 0 -104.5 44t-19.5 112h81q0 -29 16 -45.5t44 -16.5q27 0 49.5 17t33.5 45z" />
    <glyph glyph-name="Iogonek" unicode="&#x12e;" horiz-adv-x="358" 
d="M-12 0l20 111h74l80 454h-74l19 111h283l-20 -111h-70l-80 -454h70l-20 -111h-58l-97 -51q-31 -16 -31 -35q0 -17 20 -17q27 0 62 15l-17 -92q-36 -18 -88 -18q-114 0 -114 73q0 65 73 98l61 27h-93z" />
    <glyph glyph-name="iogonek" unicode="&#x12f;" horiz-adv-x="336" 
d="M-16 0l21 111h81l40 233h-82l19 112h211l-59 -345h82l-21 -111h-57l-97 -51q-31 -16 -31 -35q0 -17 20 -17q27 0 62 15l-17 -92q-36 -18 -88 -18q-114 0 -114 73q0 65 73 98l61 27h-104zM215 536q-30 0 -50.5 14.5t-20.5 47.5q0 43 25 65.5t61 22.5q29 0 50 -16.5
t21 -50.5q0 -41 -26 -62t-60 -21z" />
    <glyph glyph-name="Idotaccent" unicode="&#x130;" horiz-adv-x="358" 
d="M-12 0l20 111h74l80 454h-74l19 111h283l-20 -111h-70l-80 -454h70l-20 -111h-282zM254 731q-67 0 -67 58q0 45 26 68.5t67 23.5q27 0 45.5 -16t18.5 -46q0 -45 -26.5 -66.5t-63.5 -21.5z" />
    <glyph glyph-name="dotlessi" unicode="&#x131;" horiz-adv-x="346" 
d="M-16 0l20 111h92l41 233h-92l20 112h220l-60 -345h81l-19 -111h-303z" />
    <glyph glyph-name="IJ" unicode="&#x132;" horiz-adv-x="685" 
d="M-12 0l20 111h74l80 454h-74l19 111h283l-20 -111h-70l-80 -454h70l-20 -111h-282zM425 565l19 111h282l-19 -111h-63l-95 -539q-30 -170 -180 -253l-67 89q46 32 72.5 64.5t36.5 88.5l97 550h-83z" />
    <glyph glyph-name="ij" unicode="&#x133;" horiz-adv-x="607" 
d="M-16 0l21 111h81l40 233h-82l19 112h211l-59 -345h82l-21 -111h-292zM215 536q-30 0 -50.5 14.5t-20.5 47.5q0 43 25 65.5t61 22.5q29 0 50 -16.5t21 -50.5q0 -41 -26 -62t-60 -21zM336 -226l-65 95q47 31 70.5 61.5t33.5 89.5l57 324h-79l20 112h208l-80 -455
q-13 -69 -54 -130.5t-111 -96.5zM516 536q-30 0 -50.5 14.5t-20.5 47.5q0 43 25 65.5t61 22.5q29 0 50 -16.5t21 -50.5q0 -41 -26 -62t-60 -21z" />
    <glyph glyph-name="Jcircumflex" unicode="&#x134;" horiz-adv-x="328" 
d="M67 565l19 111h282l-19 -111h-63l-95 -539q-30 -170 -180 -253l-67 89q46 32 72.5 64.5t36.5 88.5l97 550h-83zM177 901h168l49 -167h-113l-31 94l-61 -94h-120z" />
    <glyph glyph-name="jcircumflex" unicode="&#x135;" horiz-adv-x="277" 
d="M115 696h168l49 -167h-113l-31 94l-61 -94h-120zM6 -226l-65 95q47 31 70.5 61.5t33.5 89.5l57 324h-79l20 112h208l-80 -455q-13 -69 -54 -130.5t-111 -96.5z" />
    <glyph glyph-name="Kcommaaccent" unicode="&#x136;" horiz-adv-x="667" 
d="M265 350l206 215h-62l19 111h286l-19 -111h-68l-208 -213l131 -241h71l-19 -111h-295l19 111h76zM294 565l-80 -454h55l-19 -111h-258l20 111h64l80 454h-64l20 111h257l-20 -111h-55zM368 -61l-84 -155h-102l45 155h141z" />
    <glyph glyph-name="kcommaaccent" unicode="&#x137;" horiz-adv-x="564" 
d="M53 111l82 474h-62l21 111h190l-83 -453l148 101h-75l20 112h271l-21 -112h-69l-117 -85l61 -111q8 -15 12.5 -21t14.5 -11t26 -5h41l-20 -111q-56 0 -74 1q-53 2 -74 15.5t-41 55.5l-58 119l-58 -38l-6 -42h62l-21 -111h-253l20 111h63zM302 -61l-84 -155h-102l45 155
h141z" />
    <glyph glyph-name="kgreenlandic" unicode="&#x138;" horiz-adv-x="579" 
d="M68 111l39 234h-62l19 111h192l-40 -213l148 101h-75l20 112h271l-21 -112h-69l-117 -85l61 -111q8 -15 12.5 -21t14.5 -11t26 -5h41l-20 -111q-56 0 -74 1q-53 2 -74 15.5t-41 55.5l-58 119l-58 -38l-6 -42h62l-21 -111h-253l20 111h63z" />
    <glyph glyph-name="Lacute" unicode="&#x139;" horiz-adv-x="531" 
d="M383 241h124l-43 -241h-472l19 111h64l80 454h-64l20 111h269l-19 -111h-68l-80 -454h147zM294 901h131l-114 -167h-116z" />
    <glyph glyph-name="lacute" unicode="&#x13a;" horiz-adv-x="269" 
d="M68 696h190l-102 -557q-4 -28 25 -28q26 0 51 5l-21 -117q-47 -10 -77 -10q-70 0 -94.5 38.5t-14.5 95.5l84 462h-62zM245 896h131l-114 -167h-116z" />
    <glyph glyph-name="Lcommaaccent" unicode="&#x13b;" horiz-adv-x="530" 
d="M383 241h124l-43 -241h-472l19 111h64l80 454h-64l20 111h269l-19 -111h-68l-80 -454h147zM284 -61l-84 -155h-102l45 155h141z" />
    <glyph glyph-name="lcommaaccent" unicode="&#x13c;" horiz-adv-x="269" 
d="M68 696h190l-102 -557q-4 -28 25 -28q26 0 51 5l-21 -117q-47 -10 -77 -10q-70 0 -94.5 38.5t-14.5 95.5l84 462h-62zM172 -61l-84 -155h-102l45 155h141z" />
    <glyph glyph-name="Lcaron" unicode="&#x13d;" horiz-adv-x="545" 
d="M383 241h124l-43 -241h-472l19 111h64l80 454h-64l20 111h269l-19 -111h-68l-80 -454h147zM612 676l-84 -155h-102l45 155h141z" />
    <glyph glyph-name="lcaron" unicode="&#x13e;" horiz-adv-x="305" 
d="M68 696h190l-102 -557q-4 -28 25 -28q26 0 51 5l-21 -117q-47 -10 -77 -10q-70 0 -94.5 38.5t-14.5 95.5l84 462h-62zM483 696l-84 -155h-102l45 155h141z" />
    <glyph glyph-name="Ldot" unicode="&#x13f;" horiz-adv-x="531" 
d="M383 241h124l-43 -241h-472l19 111h64l80 454h-64l20 111h269l-19 -111h-68l-80 -454h147zM401 305q-32 0 -52.5 20t-20.5 49q0 40 28 66t69 26q32 0 52.5 -20t20.5 -50q0 -39 -28.5 -65t-68.5 -26z" />
    <glyph glyph-name="ldot" unicode="&#x140;" horiz-adv-x="388" 
d="M68 696h190l-102 -557q-4 -28 25 -28q26 0 51 5l-21 -117q-47 -10 -77 -10q-70 0 -94.5 38.5t-14.5 95.5l84 462h-62zM317 283q-32 0 -52.5 20t-20.5 49q0 40 28 66t69 26q32 0 52.5 -20t20.5 -50q0 -39 -28.5 -65t-68.5 -26z" />
    <glyph glyph-name="Lslash" unicode="&#x141;" horiz-adv-x="539" 
d="M391 241h124l-43 -241h-472l19 111h64l25 142l-66 -25l14 76l65 25l42 236h-64l20 111h269l-19 -111h-68l-32 -180l75 29l-13 -76l-75 -29l-35 -198h147z" />
    <glyph glyph-name="lslash" unicode="&#x142;" horiz-adv-x="272" 
d="M8 271l17 95l49 18l37 201h-62l21 111h190l-48 -260l56 21l-18 -95l-55 -21l-37 -202q-4 -28 25 -28q26 0 51 5l-21 -117q-47 -10 -77 -10q-70 0 -94.5 38.5t-14.5 95.5l30 166z" />
    <glyph glyph-name="Nacute" unicode="&#x143;" horiz-adv-x="733" 
d="M467 565l19 111h287l-19 -111h-62l-100 -565h-147l-173 461l-60 -350h98l-19 -111h-298l19 111h62l80 454h-62l20 111h214l169 -459l59 348h-87zM469 901h131l-114 -167h-116z" />
    <glyph glyph-name="nacute" unicode="&#x144;" horiz-adv-x="571" 
d="M-15 0l20 111h64l39 233h-61l20 112h152l13 -63q19 28 57 50.5t92 22.5q77 0 106 -51t17 -119l-33 -185h62l-20 -111h-65q-67 0 -91.5 27t-14.5 84l31 173q5 28 -11 43.5t-51 15.5q-23 0 -46 -9.5t-33 -19.5l-36 -203h87l-21 -111h-277zM352 696h131l-114 -167h-116z" />
    <glyph glyph-name="Ncommaaccent" unicode="&#x145;" horiz-adv-x="734" 
d="M467 565l19 111h287l-19 -111h-62l-100 -565h-147l-173 461l-60 -350h98l-19 -111h-298l19 111h62l80 454h-62l20 111h214l169 -459l59 348h-87zM375 -61l-84 -155h-102l45 155h141z" />
    <glyph glyph-name="ncommaaccent" unicode="&#x146;" horiz-adv-x="572" 
d="M-15 0l20 111h64l39 233h-61l20 112h152l13 -63q19 28 57 50.5t92 22.5q77 0 106 -51t17 -119l-33 -185h62l-20 -111h-65q-67 0 -91.5 27t-14.5 84l31 173q5 28 -11 43.5t-51 15.5q-23 0 -46 -9.5t-33 -19.5l-36 -203h87l-21 -111h-277zM317 -61l-84 -155h-102l45 155
h141z" />
    <glyph glyph-name="Ncaron" unicode="&#x147;" horiz-adv-x="733" 
d="M467 565l19 111h287l-19 -111h-62l-100 -565h-147l-173 461l-60 -350h98l-19 -111h-298l19 111h62l80 454h-62l20 111h214l169 -459l59 348h-87zM535 734h-168l-49 167h113l31 -94l61 94h120z" />
    <glyph glyph-name="ncaron" unicode="&#x148;" horiz-adv-x="571" 
d="M-15 0l20 111h64l39 233h-61l20 112h152l13 -63q19 28 57 50.5t92 22.5q77 0 106 -51t17 -119l-33 -185h62l-20 -111h-65q-67 0 -91.5 27t-14.5 84l31 173q5 28 -11 43.5t-51 15.5q-23 0 -46 -9.5t-33 -19.5l-36 -203h87l-21 -111h-277zM394 529h-168l-49 167h113l31 -94
l61 94h120z" />
    <glyph glyph-name="napostrophe" unicode="&#x149;" horiz-adv-x="571" 
d="M-15 0l20 111h64l39 233h-61l20 112h152l13 -63q19 28 57 50.5t92 22.5q77 0 106 -51t17 -119l-33 -185h62l-20 -111h-65q-67 0 -91.5 27t-14.5 84l31 173q5 28 -11 43.5t-51 15.5q-23 0 -46 -9.5t-33 -19.5l-36 -203h87l-21 -111h-277zM143 676l-106 -189h-96l65 189
h137z" />
    <glyph glyph-name="Eng" unicode="&#x14a;" horiz-adv-x="747" 
d="M465 1l-190 463l-62 -353h100l-19 -111h-302l19 111h64l80 454h-64l20 111h203l189 -472l64 361h-90l19 111h291l-20 -111h-62l-100 -565q-26 -148 -167 -226l-78 88q40 27 69 64.5t36 74.5z" />
    <glyph glyph-name="eng" unicode="&#x14b;" horiz-adv-x="554" 
d="M320 -17l53 301q5 29 -10 44t-52 15q-23 0 -46 -9.5t-33 -19.5l-36 -203h87l-21 -111h-277l20 111h64l39 233h-61l20 112h152l13 -63q19 28 57 50.5t92 22.5q78 0 106 -53t15 -130l-50 -282q-26 -150 -166 -227l-64 89q87 59 98 120z" />
    <glyph glyph-name="Omacron" unicode="&#x14c;" horiz-adv-x="647" 
d="M190 242q0 -132 104 -132q83 0 133 91t50 239q0 53 -24.5 89t-76.5 36q-81 0 -133.5 -95.5t-52.5 -227.5zM627 441q0 -71 -12.5 -136t-40.5 -123t-68.5 -100.5t-100.5 -67.5t-133 -25q-116 0 -173.5 70t-57.5 182q0 64 12 125.5t39.5 120t67.5 103t100.5 71t134.5 26.5
q121 0 176.5 -66.5t55.5 -179.5zM277 861h298l-19 -105h-297z" />
    <glyph glyph-name="omacron" unicode="&#x14d;" horiz-adv-x="480" 
d="M266 466q89 0 135 -50t46 -137q0 -51 -13 -99.5t-41 -93t-78.5 -71t-117.5 -26.5q-88 0 -134.5 50t-46.5 137q0 52 13.5 101t41 92.5t78 70t117.5 26.5zM213 108q47 0 73.5 45.5t26.5 120.5q0 73 -63 73q-46 0 -72.5 -45.5t-26.5 -120.5q0 -73 62 -73zM155 656h298
l-19 -105h-297z" />
    <glyph glyph-name="Obreve" unicode="&#x14e;" horiz-adv-x="647" 
d="M190 242q0 -132 104 -132q83 0 133 91t50 239q0 53 -24.5 89t-76.5 36q-81 0 -133.5 -95.5t-52.5 -227.5zM627 441q0 -71 -12.5 -136t-40.5 -123t-68.5 -100.5t-100.5 -67.5t-133 -25q-116 0 -173.5 70t-57.5 182q0 64 12 125.5t39.5 120t67.5 103t100.5 71t134.5 26.5
q121 0 176.5 -66.5t55.5 -179.5zM503 894h84q-12 -68 -60 -112t-124 -44q-73 0 -104.5 44t-19.5 112h81q0 -29 16 -45.5t44 -16.5q27 0 49.5 17t33.5 45z" />
    <glyph glyph-name="obreve" unicode="&#x14f;" horiz-adv-x="480" 
d="M266 466q89 0 135 -50t46 -137q0 -51 -13 -99.5t-41 -93t-78.5 -71t-117.5 -26.5q-88 0 -134.5 50t-46.5 137q0 52 13.5 101t41 92.5t78 70t117.5 26.5zM213 108q47 0 73.5 45.5t26.5 120.5q0 73 -63 73q-46 0 -72.5 -45.5t-26.5 -120.5q0 -73 62 -73zM377 689h84
q-12 -68 -60 -112t-124 -44q-73 0 -104.5 44t-19.5 112h81q0 -29 16 -45.5t44 -16.5q27 0 49.5 17t33.5 45z" />
    <glyph glyph-name="Ohungarumlaut" unicode="&#x150;" horiz-adv-x="647" 
d="M190 242q0 -132 104 -132q83 0 133 91t50 239q0 53 -24.5 89t-76.5 36q-81 0 -133.5 -95.5t-52.5 -227.5zM627 441q0 -71 -12.5 -136t-40.5 -123t-68.5 -100.5t-100.5 -67.5t-133 -25q-116 0 -173.5 70t-57.5 182q0 64 12 125.5t39.5 120t67.5 103t100.5 71t134.5 26.5
q121 0 176.5 -66.5t55.5 -179.5zM350 901h132l-114 -167h-117zM537 901h132l-114 -167h-117z" />
    <glyph glyph-name="ohungarumlaut" unicode="&#x151;" horiz-adv-x="480" 
d="M266 466q89 0 135 -50t46 -137q0 -51 -13 -99.5t-41 -93t-78.5 -71t-117.5 -26.5q-88 0 -134.5 50t-46.5 137q0 52 13.5 101t41 92.5t78 70t117.5 26.5zM213 108q47 0 73.5 45.5t26.5 120.5q0 73 -63 73q-46 0 -72.5 -45.5t-26.5 -120.5q0 -73 62 -73zM230 696h132
l-114 -167h-117zM417 696h132l-114 -167h-117z" />
    <glyph glyph-name="OE" unicode="&#x152;" horiz-adv-x="887" 
d="M707 212h126l-38 -212h-428q-46 -11 -95 -11q-115 0 -172.5 72.5t-57.5 180.5q0 93 21.5 172t63.5 141t111 97t159 35q43 0 91 -11h424l-38 -212h-127l18 101h-175l-30 -171h184l-19 -112h-185l-30 -171h179zM191 250q0 -140 104 -140q53 0 81 16l74 422q-27 17 -73 17
q-89 0 -137.5 -91.5t-48.5 -223.5z" />
    <glyph glyph-name="oe" unicode="&#x153;" horiz-adv-x="780" 
d="M266 466q97 0 144 -80q63 80 165 80q93 0 137 -45.5t44 -116.5q0 -59 -26 -120h-276v-7q0 -34 20 -54t60 -20q68 0 149 36l19 -103q-89 -47 -185 -47q-110 0 -158 78q-32 -37 -69 -57.5t-93 -20.5q-88 0 -134.5 50t-46.5 137q0 52 13.5 101t41 92.5t78 70t117.5 26.5z
M213 108q47 0 73.5 45.5t26.5 120.5q0 73 -63 73q-46 0 -72.5 -45.5t-26.5 -120.5q0 -73 62 -73zM472 283h151q4 13 4 26q0 53 -63 53q-34 0 -58.5 -22.5t-33.5 -56.5z" />
    <glyph glyph-name="Racute" unicode="&#x154;" horiz-adv-x="647" 
d="M77 111l80 454h-66l20 111h296q217 0 217 -182q0 -68 -46 -121t-119 -73q31 -32 51.5 -89t24.5 -100h74l-20 -111h-278l20 111h58q1 31 -20.5 91t-47.5 82h-76l-30 -173h55l-19 -111h-258l19 111h65zM481 495q0 31 -22 50.5t-67 19.5h-97l-31 -173h90q127 0 127 103z
M418 901h131l-114 -167h-116z" />
    <glyph glyph-name="racute" unicode="&#x155;" horiz-adv-x="418" 
d="M47 344l19 112h181l-17 -94q18 37 59.5 70.5t83.5 33.5q33 0 66 -5l-36 -144l-80 13q-63 -5 -96 -47l-31 -172h93l-19 -111h-284l18 101l65 20l39 223h-61zM270 696h131l-114 -167h-116z" />
    <glyph glyph-name="Rcommaaccent" unicode="&#x156;" horiz-adv-x="647" 
d="M77 111l80 454h-66l20 111h296q217 0 217 -182q0 -68 -46 -121t-119 -73q31 -32 51.5 -89t24.5 -100h74l-20 -111h-278l20 111h58q1 31 -20.5 91t-47.5 82h-76l-30 -173h55l-19 -111h-258l19 111h65zM481 495q0 31 -22 50.5t-67 19.5h-97l-31 -173h90q127 0 127 103z
M355 -61l-84 -155h-102l45 155h141z" />
    <glyph glyph-name="rcommaaccent" unicode="&#x157;" horiz-adv-x="416" 
d="M46 344l19 112h181l-17 -94q18 37 59.5 70.5t83.5 33.5q33 0 66 -5l-36 -144l-80 13q-63 -5 -96 -47l-31 -172h93l-19 -111h-284l18 101l65 20l39 223h-61zM196 -61l-84 -155h-102l45 155h141z" />
    <glyph glyph-name="Rcaron" unicode="&#x158;" horiz-adv-x="647" 
d="M77 111l80 454h-66l20 111h296q217 0 217 -182q0 -68 -46 -121t-119 -73q31 -32 51.5 -89t24.5 -100h74l-20 -111h-278l20 111h58q1 31 -20.5 91t-47.5 82h-76l-30 -173h55l-19 -111h-258l19 111h65zM481 495q0 31 -22 50.5t-67 19.5h-97l-31 -173h90q127 0 127 103z
M470 734h-168l-49 167h113l31 -94l61 94h120z" />
    <glyph glyph-name="rcaron" unicode="&#x159;" horiz-adv-x="418" 
d="M47 344l19 112h181l-17 -94q18 37 59.5 70.5t83.5 33.5q33 0 66 -5l-36 -144l-80 13q-63 -5 -96 -47l-31 -172h93l-19 -111h-284l18 101l65 20l39 223h-61zM345 529h-168l-49 167h113l31 -94l61 94h120z" />
    <glyph glyph-name="Sacute" unicode="&#x15a;" horiz-adv-x="548" 
d="M551 636l-32 -180h-116v109q-33 11 -72 11q-44 0 -70 -26t-26 -60q0 -50 50 -70l84 -32q72 -27 101 -70t29 -110q0 -89 -70 -154t-202 -65q-129 0 -220 48l26 185h116l8 -110q26 -15 88 -15q49 0 75 24.5t26 61.5q0 51 -47 70l-89 37q-69 28 -97.5 70.5t-28.5 114.5
q0 33 15 68.5t44.5 68.5t83.5 54t123 21q57 0 112 -15t89 -36zM378 901h131l-114 -167h-116z" />
    <glyph glyph-name="sacute" unicode="&#x15b;" horiz-adv-x="435" 
d="M281 312l5 50q-22 13 -46 13q-20 0 -33.5 -12.5t-13.5 -31.5q0 -27 30 -39l57 -23q51 -21 77 -47t26 -69q0 -80 -62 -122t-143 -42q-185 0 -185 104q0 27 8 52h133l-4 -53q17 -14 53 -14q20 0 34.5 12t14.5 32q0 29 -29 40l-59 24q-48 18 -73.5 45t-25.5 71
q0 77 60.5 120.5t139.5 43.5q168 0 168 -94q0 -27 -12 -60h-120zM292 696h131l-114 -167h-116z" />
    <glyph glyph-name="Scircumflex" unicode="&#x15c;" horiz-adv-x="548" 
d="M551 636l-32 -180h-116v109q-33 11 -72 11q-44 0 -70 -26t-26 -60q0 -50 50 -70l84 -32q72 -27 101 -70t29 -110q0 -89 -70 -154t-202 -65q-129 0 -220 48l26 185h116l8 -110q26 -15 88 -15q49 0 75 24.5t26 61.5q0 51 -47 70l-89 37q-69 28 -97.5 70.5t-28.5 114.5
q0 33 15 68.5t44.5 68.5t83.5 54t123 21q57 0 112 -15t89 -36zM307 901h168l49 -167h-113l-31 94l-61 -94h-120z" />
    <glyph glyph-name="scircumflex" unicode="&#x15d;" horiz-adv-x="435" 
d="M281 312l5 50q-22 13 -46 13q-20 0 -33.5 -12.5t-13.5 -31.5q0 -27 30 -39l57 -23q51 -21 77 -47t26 -69q0 -80 -62 -122t-143 -42q-185 0 -185 104q0 27 8 52h133l-4 -53q17 -14 53 -14q20 0 34.5 12t14.5 32q0 29 -29 40l-59 24q-48 18 -73.5 45t-25.5 71
q0 77 60.5 120.5t139.5 43.5q168 0 168 -94q0 -27 -12 -60h-120zM198 696h168l49 -167h-113l-31 94l-61 -94h-120z" />
    <glyph glyph-name="Scedilla" unicode="&#x15e;" horiz-adv-x="549" 
d="M551 636l-32 -180h-116v109q-33 11 -72 11q-44 0 -70 -26t-26 -60q0 -50 50 -70l84 -32q72 -27 101 -70t29 -110q0 -86 -65.5 -149.5t-188.5 -68.5l-24 -44q14 4 34 4q27 0 45.5 -16.5t18.5 -42.5q0 -91 -129 -91q-46 0 -98 23l19 53q44 -24 79 -24q18 0 28.5 9.5
t10.5 24.5q0 22 -22 22q-15 0 -27 -10q-32 13 -43 18l42 75q-99 7 -172 46l26 185h116l8 -110q26 -15 88 -15q49 0 75 24.5t26 61.5q0 51 -47 70l-89 37q-69 28 -97.5 70.5t-28.5 114.5q0 33 15 68.5t44.5 68.5t83.5 54t123 21q57 0 112 -15t89 -36z" />
    <glyph glyph-name="scedilla" unicode="&#x15f;" horiz-adv-x="435" 
d="M281 312l5 50q-22 13 -46 13q-20 0 -33.5 -12.5t-13.5 -31.5q0 -27 30 -39l57 -23q51 -21 77 -47t26 -69q0 -75 -55 -116.5t-131 -46.5l-24 -44q14 4 34 4q27 0 45.5 -16.5t18.5 -42.5q0 -91 -129 -91q-46 0 -98 23l19 53q44 -24 79 -24q18 0 28.5 9.5t10.5 24.5
q0 22 -22 22q-15 0 -27 -10q-32 13 -43 18l42 75q-138 12 -138 102q0 27 8 52h133l-4 -53q17 -14 53 -14q20 0 34.5 12t14.5 32q0 29 -29 40l-59 24q-48 18 -73.5 45t-25.5 71q0 77 60.5 120.5t139.5 43.5q168 0 168 -94q0 -27 -12 -60h-120z" />
    <glyph glyph-name="Scaron" unicode="&#x160;" horiz-adv-x="548" 
d="M551 636l-32 -180h-116v109q-33 11 -72 11q-44 0 -70 -26t-26 -60q0 -50 50 -70l84 -32q72 -27 101 -70t29 -110q0 -89 -70 -154t-202 -65q-129 0 -220 48l26 185h116l8 -110q26 -15 88 -15q49 0 75 24.5t26 61.5q0 51 -47 70l-89 37q-69 28 -97.5 70.5t-28.5 114.5
q0 33 15 68.5t44.5 68.5t83.5 54t123 21q57 0 112 -15t89 -36zM446 734h-168l-49 167h113l31 -94l61 94h120z" />
    <glyph glyph-name="scaron" unicode="&#x161;" horiz-adv-x="435" 
d="M281 312l5 50q-22 13 -46 13q-20 0 -33.5 -12.5t-13.5 -31.5q0 -27 30 -39l57 -23q51 -21 77 -47t26 -69q0 -80 -62 -122t-143 -42q-185 0 -185 104q0 27 8 52h133l-4 -53q17 -14 53 -14q20 0 34.5 12t14.5 32q0 29 -29 40l-59 24q-48 18 -73.5 45t-25.5 71
q0 77 60.5 120.5t139.5 43.5q168 0 168 -94q0 -27 -12 -60h-120zM341 529h-168l-49 167h113l31 -94l61 94h120z" />
    <glyph glyph-name="Tcommaaccent" unicode="&#x162;" horiz-adv-x="578" 
d="M90 676h539l-39 -219h-114l19 108h-90l-80 -454h86l-20 -111h-140l-30 -53q14 4 34 4q27 0 45.5 -16.5t18.5 -42.5q0 -91 -129 -91q-46 0 -98 23l19 53q44 -24 79 -24q18 0 28.5 9.5t10.5 24.5q0 22 -22 22q-15 0 -27 -10q-32 13 -43 18l47 83h-102l19 111h88l80 454h-84
l-19 -108h-114z" />
    <glyph glyph-name="tcommaaccent" unicode="&#x163;" horiz-adv-x="347" 
d="M133 566l132 20l-23 -130h106l-21 -112h-105l-33 -193q-7 -40 39 -40q42 0 75 5l-21 -114q-31 -8 -86 -12l-24 -44q14 4 34 4q27 0 45.5 -16.5t18.5 -42.5q0 -91 -129 -91q-46 0 -98 23l19 53q44 -24 79 -24q18 0 28.5 9.5t10.5 24.5q0 22 -22 22q-14 0 -27 -10
q-32 13 -43 18l44 77q-99 20 -76 141l37 210h-69l14 93l75 19z" />
    <glyph glyph-name="Tcaron" unicode="&#x164;" horiz-adv-x="578" 
d="M90 676h539l-39 -219h-114l19 108h-90l-80 -454h86l-20 -111h-309l19 111h88l80 454h-84l-19 -108h-114zM451 734h-168l-49 167h113l31 -94l61 94h120z" />
    <glyph glyph-name="tcaron" unicode="&#x165;" horiz-adv-x="346" 
d="M132 566l132 20l-23 -130h106l-21 -112h-105l-33 -193q-7 -40 39 -40q42 0 75 5l-21 -114q-45 -13 -105 -13q-147 0 -121 145l37 210h-69l14 93l75 19zM543 696l-84 -155h-102l45 155h141z" />
    <glyph glyph-name="Tbar" unicode="&#x166;" horiz-adv-x="578" 
d="M152 368h82l35 197h-84l-19 -108h-114l38 219h539l-39 -219h-114l19 108h-90l-35 -197h80l-19 -105h-79l-27 -152h86l-20 -111h-309l19 111h88l27 152h-82z" />
    <glyph glyph-name="tbar" unicode="&#x167;" horiz-adv-x="349" 
d="M134 566l132 20l-23 -130h106l-21 -112h-105l-12 -68h106l-15 -75h-104l-8 -50q-7 -40 39 -40q42 0 75 5l-21 -114q-45 -13 -105 -13q-147 0 -121 145l12 67h-65l13 75h65l12 68h-69l14 93l75 19z" />
    <glyph glyph-name="Utilde" unicode="&#x168;" horiz-adv-x="669" 
d="M635 565l-54 -309q-25 -139 -96.5 -202.5t-193.5 -63.5q-118 0 -178.5 68.5t-37.5 197.5l55 309h-61l20 111h276l-20 -111h-79l-55 -309q-13 -75 9.5 -110t81.5 -35q61 0 95.5 34.5t47.5 110.5l54 309h-78l19 111h276l-20 -111h-61zM583 863l-16 -97q-33 25 -70 25
q-22 0 -77 -21t-87 -21q-36 0 -65 21l17 97q26 -25 60 -25q22 0 75.5 21t93.5 21q38 0 69 -21z" />
    <glyph glyph-name="utilde" unicode="&#x169;" horiz-adv-x="557" 
d="M44 456h188l-49 -278q-11 -66 43 -66q60 0 100 54l31 179h-69l20 111h198l-61 -344h65l-21 -112h-65q-76 0 -85 69q-57 -80 -154 -80q-83 0 -114 49t-19 125l31 182h-60zM473 658l-16 -97q-33 25 -70 25q-22 0 -77 -21t-87 -21q-36 0 -65 21l17 97q26 -25 60 -25
q22 0 75.5 21t93.5 21q38 0 69 -21z" />
    <glyph glyph-name="Umacron" unicode="&#x16a;" horiz-adv-x="669" 
d="M635 565l-54 -309q-25 -139 -96.5 -202.5t-193.5 -63.5q-118 0 -178.5 68.5t-37.5 197.5l55 309h-61l20 111h276l-20 -111h-79l-55 -309q-13 -75 9.5 -110t81.5 -35q61 0 95.5 34.5t47.5 110.5l54 309h-78l19 111h276l-20 -111h-61zM284 861h298l-19 -105h-297z" />
    <glyph glyph-name="umacron" unicode="&#x16b;" horiz-adv-x="557" 
d="M44 456h188l-49 -278q-11 -66 43 -66q60 0 100 54l31 179h-69l20 111h198l-61 -344h65l-21 -112h-65q-76 0 -85 69q-57 -80 -154 -80q-83 0 -114 49t-19 125l31 182h-60zM175 656h298l-19 -105h-297z" />
    <glyph glyph-name="Ubreve" unicode="&#x16c;" horiz-adv-x="669" 
d="M635 565l-54 -309q-25 -139 -96.5 -202.5t-193.5 -63.5q-118 0 -178.5 68.5t-37.5 197.5l55 309h-61l20 111h276l-20 -111h-79l-55 -309q-13 -75 9.5 -110t81.5 -35q61 0 95.5 34.5t47.5 110.5l54 309h-78l19 111h276l-20 -111h-61zM506 894h84q-12 -68 -60 -112
t-124 -44q-73 0 -104.5 44t-19.5 112h81q0 -29 16 -45.5t44 -16.5q27 0 49.5 17t33.5 45z" />
    <glyph glyph-name="ubreve" unicode="&#x16d;" horiz-adv-x="557" 
d="M44 456h188l-49 -278q-11 -66 43 -66q60 0 100 54l31 179h-69l20 111h198l-61 -344h65l-21 -112h-65q-76 0 -85 69q-57 -80 -154 -80q-83 0 -114 49t-19 125l31 182h-60zM394 689h84q-12 -68 -60 -112t-124 -44q-73 0 -104.5 44t-19.5 112h81q0 -29 16 -45.5t44 -16.5
q27 0 49.5 17t33.5 45z" />
    <glyph glyph-name="Uring" unicode="&#x16e;" horiz-adv-x="669" 
d="M635 565l-54 -309q-25 -139 -96.5 -202.5t-193.5 -63.5q-118 0 -178.5 68.5t-37.5 197.5l55 309h-61l20 111h276l-20 -111h-79l-55 -309q-13 -75 9.5 -110t81.5 -35q61 0 95.5 34.5t47.5 110.5l54 309h-78l19 111h276l-20 -111h-61zM316 806q0 48 35 84t93 36
q46 0 69.5 -25t23.5 -60q0 -46 -36.5 -82t-96.5 -36q-43 0 -65.5 24.5t-22.5 58.5zM388 817q0 -29 29 -29q22 0 33.5 12.5t11.5 29.5q0 31 -31 31q-19 0 -31 -14t-12 -30z" />
    <glyph glyph-name="uring" unicode="&#x16f;" horiz-adv-x="557" 
d="M44 456h188l-49 -278q-11 -66 43 -66q60 0 100 54l31 179h-69l20 111h198l-61 -344h65l-21 -112h-65q-76 0 -85 69q-57 -80 -154 -80q-83 0 -114 49t-19 125l31 182h-60zM207 601q0 48 35 84t93 36q46 0 69.5 -25t23.5 -60q0 -46 -36.5 -82t-96.5 -36q-43 0 -65.5 24.5
t-22.5 58.5zM279 612q0 -29 29 -29q22 0 33.5 12.5t11.5 29.5q0 31 -31 31q-19 0 -31 -14t-12 -30z" />
    <glyph glyph-name="Uhungarumlaut" unicode="&#x170;" horiz-adv-x="669" 
d="M635 565l-54 -309q-25 -139 -96.5 -202.5t-193.5 -63.5q-118 0 -178.5 68.5t-37.5 197.5l55 309h-61l20 111h276l-20 -111h-79l-55 -309q-13 -75 9.5 -110t81.5 -35q61 0 95.5 34.5t47.5 110.5l54 309h-78l19 111h276l-20 -111h-61zM358 901h132l-114 -167h-117zM545 901
h132l-114 -167h-117z" />
    <glyph glyph-name="uhungarumlaut" unicode="&#x171;" horiz-adv-x="557" 
d="M44 456h188l-49 -278q-11 -66 43 -66q60 0 100 54l31 179h-69l20 111h198l-61 -344h65l-21 -112h-65q-76 0 -85 69q-57 -80 -154 -80q-83 0 -114 49t-19 125l31 182h-60zM246 696h132l-114 -167h-117zM433 696h132l-114 -167h-117z" />
    <glyph glyph-name="Uogonek" unicode="&#x172;" horiz-adv-x="671" 
d="M637 565l-54 -309q-43 -234 -228 -261l-74 -45q-32 -20 -32 -35q0 -17 20 -17q27 0 62 15l-17 -92q-36 -18 -88 -18q-114 0 -114 73q0 62 73 98l43 22q-88 17 -129.5 83.5t-21.5 176.5l55 309h-61l20 111h276l-20 -111h-79l-55 -309q-13 -75 9.5 -110t81.5 -35
q61 0 95.5 34.5t47.5 110.5l54 309h-78l19 111h276l-20 -111h-61z" />
    <glyph glyph-name="uogonek" unicode="&#x173;" horiz-adv-x="557" 
d="M44 456h188l-49 -278q-11 -66 43 -66q60 0 100 54l31 179h-69l20 111h198l-61 -344h65l-21 -112l-97 -51q-31 -16 -31 -35q0 -17 20 -17q27 0 62 15l-17 -92q-36 -18 -88 -18q-114 0 -114 73q0 67 73 98l80 35q-32 15 -38 61q-57 -80 -154 -80q-83 0 -114.5 49t-18.5 125
l31 182h-60z" />
    <glyph glyph-name="Wcircumflex" unicode="&#x174;" horiz-adv-x="952" 
d="M696 565l19 111h298l-20 -111h-60l-227 -565h-168l-46 380l-177 -380h-168l-29 565h-62l20 111h266l-20 -111h-69l4 -424l194 401l-16 134h152l47 -535l154 424h-92zM497 901h168l49 -167h-113l-31 94l-61 -94h-120z" />
    <glyph glyph-name="wcircumflex" unicode="&#x175;" horiz-adv-x="735" 
d="M509 344l20 112h227l-20 -112h-48l-151 -344h-147q-15 253 -19 307q-46 -113 -126 -307h-143l-35 344h-45l20 112h219l-20 -112h-51v-207l138 319h133l22 -317l74 205h-48zM349 696h168l49 -167h-113l-31 94l-61 -94h-120z" />
    <glyph glyph-name="Ycircumflex" unicode="&#x176;" horiz-adv-x="634" 
d="M54 565l19 111h275l-19 -111h-75l72 -191l141 191h-75l20 111h289l-19 -111h-64l-237 -304l-27 -150h74l-19 -111h-292l20 111h79l27 150l-125 304h-64zM331 901h168l49 -167h-113l-31 94l-61 -94h-120z" />
    <glyph glyph-name="ycircumflex" unicode="&#x177;" horiz-adv-x="554" 
d="M-34 -205l16 92h123l66 117l-87 340h-66l20 112h209l-20 -112l34 -195l107 195h-84l19 112h275l-20 -112h-58l-264 -457q-65 -113 -170 -113q-66 0 -100 21zM262 696h168l49 -167h-113l-31 94l-61 -94h-120z" />
    <glyph glyph-name="Ydieresis" unicode="&#x178;" horiz-adv-x="634" 
d="M54 565l19 111h275l-19 -111h-75l72 -191l141 191h-75l20 111h289l-19 -111h-64l-237 -304l-27 -150h74l-19 -111h-292l20 111h79l27 150l-125 304h-64zM291 731q-66 0 -66 58q0 45 25.5 68.5t66.5 23.5q28 0 46.5 -16t18.5 -46q0 -44 -27 -66t-64 -22zM486 731
q-66 0 -66 58q0 45 26 68.5t67 23.5q27 0 45.5 -16t18.5 -46q0 -44 -27 -66t-64 -22z" />
    <glyph glyph-name="Zacute" unicode="&#x179;" horiz-adv-x="590" 
d="M609 676l-18 -101l-389 -464h187l28 155h124l-47 -266h-501l18 100l392 464h-182l-20 -114h-124l40 226h492zM408 901h131l-114 -167h-116z" />
    <glyph glyph-name="zacute" unicode="&#x17a;" horiz-adv-x="456" 
d="M441 456l-16 -90l-248 -275h110l14 80h105l-30 -171h-390l15 90l259 274h-103l-13 -78h-100l23 170h374zM300 696h131l-114 -167h-116z" />
    <glyph glyph-name="Zdotaccent" unicode="&#x17b;" horiz-adv-x="590" 
d="M609 676l-18 -101l-389 -464h187l28 155h124l-47 -266h-501l18 100l392 464h-182l-20 -114h-124l40 226h492zM368 731q-67 0 -67 58q0 45 26 68.5t67 23.5q27 0 45.5 -16t18.5 -46q0 -45 -26.5 -66.5t-63.5 -21.5z" />
    <glyph glyph-name="zdotaccent" unicode="&#x17c;" horiz-adv-x="456" 
d="M441 456l-16 -90l-248 -275h110l14 80h105l-30 -171h-390l15 90l259 274h-103l-13 -78h-100l23 170h374zM274 526q-67 0 -67 58q0 45 26 68.5t67 23.5q27 0 45.5 -16t18.5 -46q0 -45 -26.5 -66.5t-63.5 -21.5z" />
    <glyph glyph-name="Zcaron" unicode="&#x17d;" horiz-adv-x="590" 
d="M609 676l-18 -101l-389 -464h187l28 155h124l-47 -266h-501l18 100l392 464h-182l-20 -114h-124l40 226h492zM454 734h-168l-49 167h113l31 -94l61 94h120z" />
    <glyph glyph-name="zcaron" unicode="&#x17e;" horiz-adv-x="456" 
d="M441 456l-16 -90l-248 -275h110l14 80h105l-30 -171h-390l15 90l259 274h-103l-13 -78h-100l23 170h374zM351 529h-168l-49 167h113l31 -94l61 94h120z" />
    <glyph glyph-name="florin" unicode="&#x192;" 
d="M351 344l-74 -420q-12 -66 -52.5 -108t-113.5 -42q-57 0 -91 12l19 109q57 -3 69 -3q36 0 43 44l72 408h-81l20 112h81l18 100q12 69 55.5 109.5t112.5 40.5q55 0 89 -12l-20 -109q-54 3 -68 3q-35 0 -44 -44l-15 -88h90l-20 -112h-90z" />
    <glyph glyph-name="Aringacute" unicode="&#x1fa;" horiz-adv-x="677" 
d="M339 806q0 66 55 100l61 101h131l-67 -93q41 -23 41 -73q0 -46 -36.5 -82t-96.5 -36q-43 0 -65.5 24.5t-22.5 58.5zM411 817q0 -29 29 -29q22 0 33.5 12.5t11.5 29.5q0 31 -31 31q-19 0 -31 -14t-12 -30zM352 0l20 111h69l-9 81h-212l-39 -81h69l-19 -111h-274l20 111h55
l238 454h-54l20 111h346l-19 -111h-53l77 -454h55l-20 -111h-270zM271 306h152l-37 232z" />
    <glyph glyph-name="aringacute" unicode="&#x1fb;" horiz-adv-x="523" 
d="M362 421l46 35h72l-54 -321q-3 -15 1 -21t16 -6h22l-21 -108q-27 -6 -64 -6q-78 0 -81 65q-50 -70 -140 -70q-64 0 -104 47.5t-40 129.5q0 133 66 216.5t165 83.5q75 0 116 -45zM209 601q0 31 16 59t44 44l64 99h131l-73 -95q39 -23 39 -72q0 -46 -36.5 -82t-96.5 -36
q-43 0 -65.5 24.5t-22.5 58.5zM291 140l32 183q-23 21 -68 21q-36 0 -60.5 -26t-34 -59.5t-9.5 -70.5q0 -77 66 -77q45 0 74 29zM281 612q0 -29 29 -29q22 0 33.5 12.5t11.5 29.5q0 31 -31 31q-19 0 -31 -14t-12 -30z" />
    <glyph glyph-name="AEacute" unicode="&#x1fc;" horiz-adv-x="948" 
d="M694 901h131l-114 -167h-116zM320 306h148l41 232zM357 676h615l-37 -212h-127l18 101h-175l-30 -171h184l-20 -112h-184l-30 -171h179l17 101h126l-37 -212h-511l19 111h69l14 81h-213l-62 -81h71l-19 -111h-277l20 111h55l370 454h-55z" />
    <glyph glyph-name="aeacute" unicode="&#x1fd;" horiz-adv-x="720" 
d="M455 696h131l-114 -167h-116zM486 103q67 0 133 34l25 -101q-86 -47 -192 -47q-99 0 -139 73q-76 -73 -198 -73q-58 0 -89.5 29t-31.5 78q0 92 61.5 126.5t191.5 42.5l43 3l14 83h-108l-11 -62h-115q-7 17 -7 42q0 60 53 97.5t155 37.5q88 0 131 -40q61 40 132 40
q83 0 122 -46t39 -114q0 -58 -27 -122h-255q-9 -81 73 -81zM431 280h136q4 12 4 25q0 27 -16 40.5t-39 13.5q-67 0 -85 -79zM139 124q0 -28 35 -28q45 0 92 35l9 54l-43 -5q-54 -6 -73.5 -18.5t-19.5 -37.5z" />
    <glyph glyph-name="Oslashacute" unicode="&#x1fe;" horiz-adv-x="647" 
d="M627 441q0 -71 -12.5 -136t-40.5 -123t-68.5 -100.5t-100.5 -67.5t-133 -25q-42 0 -83 12l-23 -39h-102l3 14l42 71q-68 68 -68 194q0 64 12 125.5t39.5 120t67.5 103t100.5 71t134.5 26.5q46 0 84 -11l18 30h105l-3 -13l-37 -63q65 -64 65 -189zM477 440q0 23 -4 40
l-217 -365q14 -5 38 -5q83 0 133 91t50 239zM190 242q0 -29 4 -49l216 366q-15 6 -34 6q-81 0 -133.5 -95.5t-52.5 -227.5zM437 901h131l-114 -167h-116z" />
    <glyph glyph-name="oslashacute" unicode="&#x1ff;" horiz-adv-x="480" 
d="M266 466q36 0 69 -10l30 47h79l-2 -13l-45 -70q50 -50 50 -141q0 -51 -13 -99.5t-41 -93t-78.5 -71t-117.5 -26.5q-38 0 -71 11l-30 -48h-77l3 14l44 69q-50 49 -50 141q0 52 13.5 101t41 92.5t78 70t117.5 26.5zM318 696h131l-114 -167h-116zM213 108q47 0 73.5 45.5
t26.5 120.5q0 10 -1 14l-115 -179q5 -1 16 -1zM151 181v-12l113 177q-2 0 -6.5 0.5t-7.5 0.5q-46 0 -72.5 -45.5t-26.5 -120.5z" />
    <glyph glyph-name="Scommaaccent" unicode="&#x218;" horiz-adv-x="548" 
d="M551 636l-32 -180h-116v109q-33 11 -72 11q-44 0 -70 -26t-26 -60q0 -50 50 -70l84 -32q72 -27 101 -70t29 -110q0 -89 -70 -154t-202 -65q-129 0 -220 48l26 185h116l8 -110q26 -15 88 -15q49 0 75 24.5t26 61.5q0 51 -47 70l-89 37q-69 28 -97.5 70.5t-28.5 114.5
q0 33 15 68.5t44.5 68.5t83.5 54t123 21q57 0 112 -15t89 -36zM305 -61l-84 -155h-102l45 155h141z" />
    <glyph glyph-name="scommaaccent" unicode="&#x219;" horiz-adv-x="435" 
d="M281 312l5 50q-22 13 -46 13q-20 0 -33.5 -12.5t-13.5 -31.5q0 -27 30 -39l57 -23q51 -21 77 -47t26 -69q0 -80 -62 -122t-143 -42q-185 0 -185 104q0 27 8 52h133l-4 -53q17 -14 53 -14q20 0 34.5 12t14.5 32q0 29 -29 40l-59 24q-48 18 -73.5 45t-25.5 71
q0 77 60.5 120.5t139.5 43.5q168 0 168 -94q0 -27 -12 -60h-120zM228 -61l-84 -155h-102l45 155h141z" />
    <glyph glyph-name="uni021A" unicode="&#x21a;" horiz-adv-x="579" 
d="M90 676h539l-39 -219h-114l19 108h-90l-80 -454h86l-20 -111h-309l19 111h88l80 454h-84l-19 -108h-114zM306 -61l-84 -155h-102l45 155h141z" />
    <glyph glyph-name="uni021B" unicode="&#x21b;" horiz-adv-x="346" 
d="M132 566l132 20l-23 -130h106l-21 -112h-105l-33 -193q-7 -40 39 -40q42 0 75 5l-21 -114q-45 -13 -105 -13q-147 0 -121 145l37 210h-69l14 93l75 19zM212 -61l-84 -155h-102l45 155h141z" />
    <glyph glyph-name="dotlessj" unicode="&#x237;" horiz-adv-x="277" 
d="M6 -226l-65 95q47 31 70.5 61.5t33.5 89.5l57 324h-79l20 112h208l-80 -455q-13 -69 -54 -130.5t-111 -96.5z" />
    <glyph glyph-name="circumflex" unicode="&#x2c6;" horiz-adv-x="582" 
d="M330 696h168l49 -167h-113l-31 94l-61 -94h-120z" />
    <glyph glyph-name="caron" unicode="&#x2c7;" horiz-adv-x="582" 
d="M469 529h-168l-49 167h113l31 -94l61 94h120z" />
    <glyph glyph-name="breve" unicode="&#x2d8;" horiz-adv-x="582" 
d="M482 689h84q-12 -68 -60 -112t-124 -44q-73 0 -104.5 44t-19.5 112h81q0 -29 16 -45.5t44 -16.5q27 0 49.5 17t33.5 45z" />
    <glyph glyph-name="dotaccent" unicode="&#x2d9;" horiz-adv-x="582" 
d="M383 526q-67 0 -67 58q0 45 26 68.5t67 23.5q27 0 45.5 -16t18.5 -46q0 -45 -26.5 -66.5t-63.5 -21.5z" />
    <glyph glyph-name="ring" unicode="&#x2da;" horiz-adv-x="582" 
d="M288 601q0 48 35 84t93 36q46 0 69.5 -25t23.5 -60q0 -46 -36.5 -82t-96.5 -36q-43 0 -65.5 24.5t-22.5 58.5zM360 612q0 -29 29 -29q22 0 33.5 12.5t11.5 29.5q0 31 -31 31q-19 0 -31 -14t-12 -30z" />
    <glyph glyph-name="ogonek" unicode="&#x2db;" horiz-adv-x="582" 
d="M413 1v-1l-97 -51q-31 -16 -31 -35q0 -17 20 -17q27 0 62 15l-17 -92q-36 -18 -88 -18q-114 0 -114 73q0 65 73 98l133 59z" />
    <glyph glyph-name="tilde" unicode="&#x2dc;" horiz-adv-x="582" 
d="M555 658l-16 -97q-33 25 -70 25q-22 0 -77 -21t-87 -21q-36 0 -65 21l17 97q26 -25 60 -25q22 0 75.5 21t93.5 21q38 0 69 -21z" />
    <glyph glyph-name="hungarumlaut" unicode="&#x2dd;" horiz-adv-x="582" 
d="M289 696h132l-114 -167h-117zM476 696h132l-114 -167h-117z" />
    <glyph glyph-name="uni0394" unicode="&#x394;" horiz-adv-x="708" 
d="M-19 0l368 676h156l129 -676h-653zM466 111l-62 421l-211 -421h273z" />
    <glyph glyph-name="uni03A9" unicode="&#x3a9;" horiz-adv-x="729" 
d="M19 111h135q-87 92 -87 213q0 63 21 124.5t62 116t113 88.5t163 34q72 0 126 -21.5t85 -59t45.5 -81.5t14.5 -95q0 -100 -50.5 -181t-127.5 -138h134l-19 -111h-277l19 111q71 53 120.5 129t49.5 171q0 68 -32.5 111t-99.5 43q-53 0 -93.5 -22.5t-63 -60t-33 -79.5
t-10.5 -87q0 -58 23.5 -114t57.5 -91l-19 -111h-277z" />
    <glyph glyph-name="uni03BC" unicode="&#x3bc;" horiz-adv-x="608" 
d="M141 -216h-129l99 561h-59l19 111h189l-48 -268q-7 -39 7 -57.5t55 -18.5q22 0 46.5 12.5t39.5 34.5l33 186h-76l19 111h204l-61 -344h65l-20 -112h-164l15 83q-67 -93 -170 -93q-10 0 -28 2z" />
    <glyph glyph-name="pi" unicode="&#x3c0;" horiz-adv-x="572" 
d="M50 0l60 344h-88l19 112h537l-20 -112h-89l-33 -190q-8 -44 36 -44q18 0 29 1l-21 -117q-38 -5 -71 -5q-68 0 -93 40t-13 107l37 208h-102l-60 -344h-128z" />
    <glyph glyph-name="Wgrave" unicode="&#x1e80;" horiz-adv-x="952" 
d="M696 565l19 111h298l-20 -111h-60l-227 -565h-168l-46 380l-177 -380h-168l-29 565h-62l20 111h266l-20 -111h-69l4 -424l194 401l-16 134h152l47 -535l154 424h-92zM432 901h132l40 -167h-117z" />
    <glyph glyph-name="wgrave" unicode="&#x1e81;" horiz-adv-x="735" 
d="M509 344l20 112h227l-20 -112h-48l-151 -344h-147q-15 253 -19 307q-46 -113 -126 -307h-143l-35 344h-45l20 112h219l-20 -112h-51v-207l138 319h133l22 -317l74 205h-48zM294 696h132l40 -167h-117z" />
    <glyph glyph-name="Wacute" unicode="&#x1e82;" horiz-adv-x="952" 
d="M696 565l19 111h298l-20 -111h-60l-227 -565h-168l-46 380l-177 -380h-168l-29 565h-62l20 111h266l-20 -111h-69l4 -424l194 401l-16 134h152l47 -535l154 424h-92zM571 901h131l-114 -167h-116z" />
    <glyph glyph-name="wacute" unicode="&#x1e83;" horiz-adv-x="735" 
d="M509 344l20 112h227l-20 -112h-48l-151 -344h-147q-15 253 -19 307q-46 -113 -126 -307h-143l-35 344h-45l20 112h219l-20 -112h-51v-207l138 319h133l22 -317l74 205h-48zM451 696h131l-114 -167h-116z" />
    <glyph glyph-name="Wdieresis" unicode="&#x1e84;" horiz-adv-x="952" 
d="M696 565l19 111h298l-20 -111h-60l-227 -565h-168l-46 380l-177 -380h-168l-29 565h-62l20 111h266l-20 -111h-69l4 -424l194 401l-16 134h152l47 -535l154 424h-92zM444 731q-66 0 -66 58q0 45 25.5 68.5t66.5 23.5q28 0 46.5 -16t18.5 -46q0 -44 -27 -66t-64 -22z
M639 731q-66 0 -66 58q0 45 26 68.5t67 23.5q27 0 45.5 -16t18.5 -46q0 -44 -27 -66t-64 -22z" />
    <glyph glyph-name="wdieresis" unicode="&#x1e85;" horiz-adv-x="735" 
d="M509 344l20 112h227l-20 -112h-48l-151 -344h-147q-15 253 -19 307q-46 -113 -126 -307h-143l-35 344h-45l20 112h219l-20 -112h-51v-207l138 319h133l22 -317l74 205h-48zM310 526q-66 0 -66 58q0 45 25.5 68.5t66.5 23.5q28 0 46.5 -16t18.5 -46q0 -44 -27 -66t-64 -22
zM505 526q-66 0 -66 58q0 45 26 68.5t67 23.5q27 0 45.5 -16t18.5 -46q0 -44 -27 -66t-64 -22z" />
    <glyph glyph-name="Ygrave" unicode="&#x1ef2;" horiz-adv-x="634" 
d="M54 565l19 111h275l-19 -111h-75l72 -191l141 191h-75l20 111h289l-19 -111h-64l-237 -304l-27 -150h74l-19 -111h-292l20 111h79l27 150l-125 304h-64zM276 901h132l40 -167h-117z" />
    <glyph glyph-name="ygrave" unicode="&#x1ef3;" horiz-adv-x="554" 
d="M-34 -205l16 92h123l66 117l-87 340h-66l20 112h209l-20 -112l34 -195l107 195h-84l19 112h275l-20 -112h-58l-264 -457q-65 -113 -170 -113q-66 0 -100 21zM215 696h132l40 -167h-117z" />
    <glyph glyph-name="endash" unicode="&#x2013;" horiz-adv-x="594" 
d="M47 333h495v-125h-495v125z" />
    <glyph glyph-name="emdash" unicode="&#x2014;" horiz-adv-x="734" 
d="M47 333h635v-125h-635v125z" />
    <glyph glyph-name="quoteleft" unicode="&#x2018;" horiz-adv-x="217" 
d="M47 412l109 264h97l-66 -264h-140z" />
    <glyph glyph-name="quoteright" unicode="&#x2019;" horiz-adv-x="212" 
d="M265 676l-108 -264h-98l66 264h140z" />
    <glyph glyph-name="quotesinglbase" unicode="&#x201a;" horiz-adv-x="222" 
d="M169 156l-109 -264h-98l66 264h141z" />
    <glyph glyph-name="quotedblleft" unicode="&#x201c;" horiz-adv-x="400" 
d="M230 412l109 264h97l-66 -264h-140zM47 412l109 264h97l-66 -264h-140z" />
    <glyph glyph-name="quotedblright" unicode="&#x201d;" horiz-adv-x="395" 
d="M265 676l-108 -264h-98l66 264h140zM448 676l-109 -264h-97l66 264h140z" />
    <glyph glyph-name="quotedblbase" unicode="&#x201e;" horiz-adv-x="405" 
d="M169 155l-109 -264h-98l66 264h141zM351 155l-108 -264h-98l66 264h140z" />
    <glyph glyph-name="dagger" unicode="&#x2020;" horiz-adv-x="423" 
d="M35 311h139l68 385h86l-68 -385h140l-15 -82h-139l-78 -445h-87l78 445h-138z" />
    <glyph glyph-name="daggerdbl" unicode="&#x2021;" horiz-adv-x="446" 
d="M71 449h137l44 247h86l-44 -247h142l-15 -82h-141l-45 -256h141l-15 -82h-140l-43 -245h-87l43 245h-137l14 82h138l45 256h-137z" />
    <glyph glyph-name="bullet" unicode="&#x2022;" 
d="M278 131q-64 0 -105 39.5t-41 98.5q0 60 41 99.5t105 39.5q63 0 104 -39.5t41 -99.5q0 -59 -41 -98.5t-104 -39.5z" />
    <glyph glyph-name="ellipsis" unicode="&#x2026;" horiz-adv-x="692" 
d="M64 -6q-32 0 -51.5 19t-19.5 48q0 40 29 67t70 27q32 0 51.5 -19t19.5 -49q0 -39 -29.5 -66t-69.5 -27zM532 -6q-32 0 -52 19t-20 48q0 40 29.5 67t70.5 27q31 0 50.5 -19t19.5 -49q0 -39 -29 -66t-69 -27zM292 -6q-32 0 -51.5 19t-19.5 48q0 40 29 67t71 27
q31 0 50.5 -19t19.5 -49q0 -39 -29.5 -66t-69.5 -27z" />
    <glyph glyph-name="perthousand" unicode="&#x2030;" horiz-adv-x="1151" 
d="M713 676l-3 -15l-516 -661h-92l2 15l514 661h95zM274 686q69 0 104 -37.5t35 -95.5q0 -85 -52 -143t-146 -58q-68 0 -103 37.5t-35 96.5q0 84 53 142t144 58zM234 458q33 0 50 20.5t17 55.5q0 45 -46 45q-32 0 -49 -20t-17 -55q0 -46 45 -46zM600 323q69 0 104 -37.5
t35 -95.5q0 -85 -52 -143t-146 -58q-68 0 -103 37.5t-35 96.5q0 84 52.5 142t144.5 58zM559 95q68 0 68 76q0 45 -46 45q-32 0 -49 -20t-17 -55q0 -46 44 -46zM960 323q69 0 104 -37.5t35 -95.5q0 -85 -52 -143t-146 -58q-68 0 -103 37.5t-35 96.5q0 84 52.5 142t144.5 58z
M919 95q68 0 68 76q0 45 -46 45q-32 0 -49 -20t-17 -55q0 -46 44 -46z" />
    <glyph glyph-name="guilsinglleft" unicode="&#x2039;" horiz-adv-x="337" 
d="M19 270l242 235l73 -59l-159 -177l97 -176l-94 -58z" />
    <glyph glyph-name="guilsinglright" unicode="&#x203a;" horiz-adv-x="337" 
d="M156 505l160 -235l-243 -235l-73 58l159 176l-96 177z" />
    <glyph glyph-name="fraction" unicode="&#x2044;" horiz-adv-x="150" 
d="M393 676l-2 -15l-517 -661h-92l3 15l513 661h95z" />
    <glyph glyph-name="zerosuperior" unicode="&#x2070;" horiz-adv-x="386" 
d="M187 556q0 -63 47 -63q38 0 59 43t21 109q0 65 -45 65q-39 0 -60.5 -42.5t-21.5 -111.5zM417 655q0 -46 -11 -87.5t-33.5 -78t-63 -58t-93.5 -21.5q-65 0 -99 36.5t-34 100.5q0 44 10.5 85t33 78.5t64 60t96.5 22.5q64 0 97 -36.5t33 -101.5z" />
    <glyph glyph-name="foursuperior" unicode="&#x2074;" horiz-adv-x="357" 
d="M383 558l-14 -74h-48l-12 -68h-96l12 68h-174l12 66l150 177q11 13 22.5 28t16.5 24l6 9h117l-41 -230h49zM162 558h76l18 107z" />
    <glyph glyph-name="fivesuperior" unicode="&#x2075;" horiz-adv-x="335" 
d="M54 440l26 93h77l-6 -37q15 -4 35 -4q64 0 64 49q0 36 -54 36q-22 0 -80 -10l-22 13l64 208h222l-15 -81h-143l-16 -51q24 4 50 4q47 0 73 -27t26 -71q0 -72 -48 -112t-131 -40q-74 0 -122 30z" />
    <glyph glyph-name="sixsuperior" unicode="&#x2076;" horiz-adv-x="359" 
d="M286 711q-36 0 -65 -22.5t-34 -57.5q33 31 94 31q40 0 67.5 -29t27.5 -74q0 -65 -43.5 -107t-120.5 -42q-66 0 -97.5 42t-31.5 100q0 109 56.5 175t161.5 66q59 0 109 -34l-43 -75q-38 27 -81 27zM221 492q25 0 38.5 13.5t13.5 34.5q0 32 -36 32q-31 0 -53 -20
q-5 -25 5 -42.5t32 -17.5z" />
    <glyph glyph-name="sevensuperior" unicode="&#x2077;" horiz-adv-x="318" 
d="M80 416l186 298h-76l-11 -63h-90l24 137h284l-10 -61q-42 -53 -69 -98l-126 -213h-112z" />
    <glyph glyph-name="eightsuperior" unicode="&#x2078;" horiz-adv-x="360" 
d="M393 704q0 -56 -59 -90q41 -26 41 -77q0 -56 -48.5 -91.5t-124.5 -35.5q-59 0 -95 25.5t-36 68.5q0 33 18 57.5t42 35.5q-23 26 -23 67q0 56 46.5 92.5t115.5 36.5q58 0 90.5 -25t32.5 -64zM238 548l-54 19q-13 -19 -13 -37q0 -16 14.5 -28t42.5 -12q21 0 31.5 9.5
t10.5 18.5q0 19 -32 30zM207 687q0 -20 30 -32l34 -13q24 14 24 40q0 14 -12 24.5t-34 10.5q-18 0 -30 -8t-12 -22z" />
    <glyph glyph-name="ninesuperior" unicode="&#x2079;" horiz-adv-x="358" 
d="M186 492q37 0 66.5 23t29.5 57q-35 -31 -91 -31q-40 0 -67.5 28t-27.5 69q0 69 44 112t120 43q68 0 98.5 -41.5t30.5 -100.5q0 -109 -56.5 -175t-161.5 -66q-59 0 -109 34l43 75q38 -27 81 -27zM251 711q-25 0 -38.5 -13.5t-13.5 -34.5q0 -32 36 -32q31 0 53 20
q5 25 -5 42.5t-32 17.5z" />
    <glyph glyph-name="zeroinferior" unicode="&#x2080;" horiz-adv-x="387" 
d="M96 40q0 -63 47 -63q38 0 59 43t21 109q0 65 -45 65q-39 0 -60.5 -42.5t-21.5 -111.5zM326 139q0 -46 -11 -87.5t-33.5 -78t-63 -58t-93.5 -21.5q-65 0 -99 36.5t-34 100.5q0 44 10.5 85t33 78.5t64 60t96.5 22.5q64 0 97 -36.5t33 -101.5z" />
    <glyph glyph-name="oneinferior" unicode="&#x2081;" horiz-adv-x="310" 
d="M-34 -100l15 81h92l34 195l-84 -34l-7 74l123 56h84l-52 -291h74l-14 -81h-265z" />
    <glyph glyph-name="twoinferior" unicode="&#x2082;" horiz-adv-x="345" 
d="M110 132l-99 -7q-2 8 -2 19q0 56 39.5 94.5t114.5 38.5q58 0 89.5 -27.5t31.5 -70.5q0 -45 -30 -82t-82 -74q-19 -14 -64 -42h74l6 33h79l-20 -114h-277l12 66q44 30 122 94q28 22 40 33.5t24 31t12 40.5q0 15 -8.5 23t-21.5 8q-41 0 -41 -49q0 -8 1 -15z" />
    <glyph glyph-name="threeinferior" unicode="&#x2083;" horiz-adv-x="332" 
d="M89 157h-69l5 85q58 35 125 35t94.5 -29t27.5 -66q0 -36 -21 -62t-58 -36q61 -12 61 -74q0 -51 -42.5 -83.5t-116.5 -32.5q-92 0 -136 40l57 70q33 -28 83 -28q54 0 54 38q0 25 -54 25h-45l14 80h41q27 0 43.5 13t16.5 33q0 31 -34 31q-20 0 -41 -7z" />
    <glyph glyph-name="fourinferior" unicode="&#x2084;" horiz-adv-x="356" 
d="M292 42l-14 -74h-48l-12 -68h-96l12 68h-174l12 66l150 177q11 13 22.5 28t17.5 24l5 9h117l-41 -230h49zM71 42h76l18 107z" />
    <glyph glyph-name="fiveinferior" unicode="&#x2085;" horiz-adv-x="335" 
d="M-37 -76l26 93h77l-6 -37q15 -4 35 -4q64 0 64 49q0 36 -54 36q-22 0 -80 -10l-22 13l64 208h222l-15 -81h-143l-16 -51q24 4 50 4q47 0 73 -27t26 -71q0 -72 -48 -112t-131 -40q-74 0 -122 30z" />
    <glyph glyph-name="sixinferior" unicode="&#x2086;" horiz-adv-x="359" 
d="M195 195q-36 0 -65 -22.5t-34 -57.5q33 31 94 31q40 0 67.5 -29t27.5 -74q0 -65 -43.5 -107t-120.5 -42q-66 0 -97.5 42t-31.5 100q0 109 56.5 175t161.5 66q59 0 109 -34l-43 -75q-38 27 -81 27zM130 -24q25 0 38.5 13.5t13.5 34.5q0 32 -36 32q-31 0 -53 -20
q-5 -25 5 -42.5t32 -17.5z" />
    <glyph glyph-name="seveninferior" unicode="&#x2087;" horiz-adv-x="318" 
d="M-11 -100l186 298h-76l-11 -63h-90l24 137h284l-10 -61q-42 -53 -69 -98l-126 -213h-112z" />
    <glyph glyph-name="eightinferior" unicode="&#x2088;" horiz-adv-x="360" 
d="M302 188q0 -56 -59 -90q41 -26 41 -77q0 -56 -48.5 -91.5t-124.5 -35.5q-59 0 -95 25.5t-36 68.5q0 33 18 57.5t42 35.5q-23 26 -23 67q0 56 46.5 92.5t115.5 36.5q58 0 90.5 -25t32.5 -64zM147 32l-54 19q-13 -19 -13 -37q0 -16 15 -28t42 -12q21 0 31.5 9.5t10.5 18.5
q0 19 -32 30zM116 171q0 -20 30 -32l34 -13q24 14 24 40q0 14 -12 24.5t-34 10.5q-18 0 -30 -8t-12 -22z" />
    <glyph glyph-name="nineinferior" unicode="&#x2089;" horiz-adv-x="358" 
d="M95 -24q37 0 66.5 23t29.5 57q-35 -31 -91 -31q-40 0 -67.5 28t-27.5 69q0 69 44 112t120 43q68 0 98.5 -41.5t30.5 -100.5q0 -109 -56.5 -175t-161.5 -66q-59 0 -109 34l43 75q38 -27 81 -27zM160 195q-25 0 -38.5 -13.5t-13.5 -34.5q0 -32 36 -32q31 0 53 20
q5 25 -5 42.5t-32 17.5z" />
    <glyph glyph-name="rupee" unicode="&#x20a8;" horiz-adv-x="581" 
d="M117 676l488 1l-15 -85h-117q18 -36 15 -83h87l-15 -85h-88q-40 -107 -155 -144q34 -33 57.5 -81.5t27.5 -87.5h76l-19 -111h-283l19 111h58q0 29 -24.5 80t-54.5 73h-130l19 108h106q69 0 103 10.5t54 41.5h-253l15 85h255q-8 33 -36.5 44.5t-97.5 11.5h-112z" />
    <glyph glyph-name="Euro" unicode="&#x20ac;" 
d="M69 445h41q28 111 104 176t196 65q93 0 173 -39l-52 -116q-68 31 -128 31q-104 0 -146 -117h238l-34 -85h-224q-6 -28 -6 -50h216l-30 -85h-186q4 -48 33 -77.5t72 -29.5q69 0 135 27l9 -118q-76 -38 -167 -38q-215 0 -228 236h-55l15 85h42q1 24 6 50h-39z" />
    <glyph glyph-name="afii61289" unicode="&#x2113;" horiz-adv-x="410" 
d="M349 30q-48 -41 -119 -41q-55 0 -86 32.5t-31 95.5v103q-23 -23 -58 -47l-41 67q68 52 99 86v214q0 84 35 125.5t95 41.5q53 0 82.5 -35t29.5 -99q0 -74 -39.5 -141t-117.5 -141v-159q0 -57 44 -57q38 0 78 30zM268 561q0 27 -10.5 39.5t-25.5 12.5q-34 0 -34 -55v-159
q70 75 70 162z" />
    <glyph glyph-name="uni2117" unicode="&#x2117;" horiz-adv-x="857" 
d="M60 334q0 161 107.5 267t271.5 106t271.5 -106t107.5 -267q0 -160 -107.5 -266.5t-271.5 -106.5q-163 0 -271 106.5t-108 266.5zM157 334q0 -125 78.5 -202.5t203.5 -77.5t203.5 77.5t78.5 202.5t-78.5 202.5t-203.5 77.5t-203.5 -77.5t-78.5 -202.5zM288 522h169
q78 0 117.5 -34t39.5 -93q0 -123 -157 -123h-36v-55h61v-75h-194v75h39v229h-39v76zM515 397q0 49 -56 49h-38v-97h38q56 0 56 48z" />
    <glyph glyph-name="trademark" unicode="&#x2122;" horiz-adv-x="670" 
d="M124 607h208l-15 -85h-50l6 38h-25l-25 -143h31l-8 -47h-122l8 47h31l25 143h-22l-7 -38h-50zM480 435l66 172h108l-9 -47h-19l-14 -143h25l-8 -47h-105l9 47h23l14 125l-69 -172h-67l-5 169l-30 -122h23l-8 -47h-103l8 47h22l39 143h-21l9 47h109z" />
    <glyph glyph-name="Omega" unicode="&#x2126;" horiz-adv-x="729" 
d="M19 111h135q-87 92 -87 213q0 63 21 124.5t62 116t113 88.5t163 34q72 0 126 -21.5t85 -59t45.5 -81.5t14.5 -95q0 -100 -50.5 -181t-127.5 -138h134l-19 -111h-277l19 111q71 53 120.5 129t49.5 171q0 68 -32.5 111t-99.5 43q-53 0 -93.5 -22.5t-63 -60t-33 -79.5
t-10.5 -87q0 -58 23.5 -114t57.5 -91l-19 -111h-277z" />
    <glyph glyph-name="estimated" unicode="&#x212e;" horiz-adv-x="760" 
d="M718 338h-511v-230q74 -74 183 -74q80 0 139 36.5t106 115.5l45 -27q-59 -92 -125 -131.5t-165 -39.5q-146 0 -236.5 100t-90.5 250q0 151 90 250.5t237 99.5q146 0 236.5 -98t91.5 -252zM207 384h369v184q-81 75 -187 75q-107 0 -182 -75v-184z" />
    <glyph glyph-name="onethird" unicode="&#x2153;" horiz-adv-x="799" 
d="M586 257h-69l5 85q58 35 125 35t94.5 -29t27.5 -66q0 -36 -21 -62t-58 -36q61 -12 61 -74q0 -51 -42.5 -83.5t-116.5 -32.5q-92 0 -136 40l57 70q33 -28 83 -28q54 0 54 38q0 25 -54 25h-45l14 80h41q27 0 43.5 13t16.5 33q0 31 -34 31q-20 0 -41 -7zM57 309l15 81h92
l34 195l-84 -34l-7 74l123 56h84l-52 -291h74l-14 -81h-265zM743 676l-2 -15l-517 -661h-92l3 15l513 661h95z" />
    <glyph glyph-name="twothirds" unicode="&#x2154;" horiz-adv-x="815" 
d="M200 541l-99 -7q-2 8 -2 19q0 56 39.5 94.5t114.5 38.5q58 0 89.5 -27.5t31.5 -70.5q0 -79 -94 -143l-82 -55h74l6 33h79l-20 -114h-277l12 66q72 53 122 94q28 22 40 33.5t24 31t12 40.5q0 15 -8.5 23t-21.5 8q-41 0 -41 -49q0 -9 1 -15zM759 676l-2 -15l-517 -661h-92
l3 15l513 661h95zM602 257h-69l5 85q58 35 125 35t94.5 -29t27.5 -66q0 -36 -21 -62t-58 -36q61 -12 61 -74q0 -51 -42.5 -83.5t-116.5 -32.5q-92 0 -136 40l57 70q33 -28 83 -28q54 0 54 38q0 25 -54 25h-45l14 80h41q27 0 43.5 13t16.5 33q0 31 -34 31q-20 0 -41 -7z" />
    <glyph glyph-name="oneeighth" unicode="&#x215b;" horiz-adv-x="807" 
d="M57 309l15 81h92l34 195l-84 -34l-7 74l123 56h84l-52 -291h74l-14 -81h-265zM743 676l-2 -15l-517 -661h-92l3 15l513 661h95zM777 288q0 -56 -59 -90q41 -26 41 -77q0 -56 -48.5 -91.5t-124.5 -35.5q-59 0 -95 25.5t-36 68.5q0 33 18 57.5t42 35.5q-23 26 -23 67
q0 56 46.5 92.5t115.5 36.5q58 0 90.5 -25t32.5 -64zM622 132l-54 19q-13 -19 -13 -37q0 -16 14.5 -28t42.5 -12q21 0 31.5 9.5t10.5 18.5q0 19 -32 30zM591 271q0 -20 30 -32l34 -13q24 14 24 40q0 14 -12 24.5t-34 10.5q-18 0 -30 -8t-12 -22z" />
    <glyph glyph-name="threeeighths" unicode="&#x215c;" horiz-adv-x="779" 
d="M715 676l-2 -15l-517 -661h-92l3 15l513 661h95zM180 566h-69l5 85q58 35 125 35t94.5 -29t27.5 -66q0 -36 -21 -62t-58 -36q61 -12 61 -74q0 -51 -42.5 -83.5t-116.5 -32.5q-92 0 -136 40l57 70q33 -28 83 -28q54 0 54 38q0 25 -54 25h-45l14 80h41q27 0 43.5 13
t16.5 33q0 31 -34 31q-20 0 -41 -7zM749 288q0 -56 -59 -90q41 -26 41 -77q0 -56 -48.5 -91.5t-124.5 -35.5q-59 0 -95 25.5t-36 68.5q0 33 18 57.5t42 35.5q-23 26 -23 67q0 56 46.5 92.5t115.5 36.5q58 0 90.5 -25t32.5 -64zM594 132l-54 19q-13 -19 -13 -37
q0 -16 14.5 -28t42.5 -12q21 0 31.5 9.5t10.5 18.5q0 19 -32 30zM563 271q0 -20 30 -32l34 -13q24 14 24 40q0 14 -12 24.5t-34 10.5q-18 0 -30 -8t-12 -22z" />
    <glyph glyph-name="fiveeighths" unicode="&#x215d;" horiz-adv-x="783" 
d="M753 288q0 -56 -59 -90q41 -26 41 -77q0 -56 -48.5 -91.5t-124.5 -35.5q-59 0 -95 25.5t-36 68.5q0 33 18 57.5t42 35.5q-23 26 -23 67q0 56 46.5 92.5t115.5 36.5q58 0 90.5 -25t32.5 -64zM598 132l-54 19q-13 -19 -13 -37q0 -16 14.5 -28t42.5 -12q21 0 31.5 9.5
t10.5 18.5q0 19 -32 30zM567 271q0 -20 30 -32l34 -13q24 14 24 40q0 14 -12 24.5t-34 10.5q-18 0 -30 -8t-12 -22zM719 676l-2 -15l-517 -661h-92l3 15l513 661h95zM51 333l26 93h77l-6 -37q15 -4 35 -4q64 0 64 49q0 36 -54 36q-22 0 -80 -10l-22 13l64 208h222l-15 -81
h-143l-16 -51q24 4 50 4q47 0 73 -27t26 -71q0 -72 -48 -112t-131 -40q-74 0 -122 30z" />
    <glyph glyph-name="seveneighths" unicode="&#x215e;" horiz-adv-x="757" 
d="M693 676l-2 -15l-517 -661h-92l3 15l513 661h95zM727 288q0 -56 -59 -90q41 -26 41 -77q0 -56 -48.5 -91.5t-124.5 -35.5q-59 0 -95 25.5t-36 68.5q0 33 18 57.5t42 35.5q-23 26 -23 67q0 56 46.5 92.5t115.5 36.5q58 0 90.5 -25t32.5 -64zM572 132l-54 19
q-13 -19 -13 -37q0 -16 14.5 -28t42.5 -12q21 0 31.5 9.5t10.5 18.5q0 19 -32 30zM541 271q0 -20 30 -32l34 -13q24 14 24 40q0 14 -12 24.5t-34 10.5q-18 0 -30 -8t-12 -22zM135 309l186 298h-76l-11 -63h-90l24 137h284l-10 -61q-42 -53 -69 -98l-126 -213h-112z" />
    <glyph glyph-name="arrowleft" unicode="&#x2190;" horiz-adv-x="750" 
d="M83 253v72l256 256l73 -74l-162 -162h425v-112h-425l162 -162l-73 -74z" />
    <glyph glyph-name="arrowup" unicode="&#x2191;" horiz-adv-x="750" 
d="M339 596h72l256 -256l-74 -73l-162 162v-425h-112v425l-162 -162l-74 73z" />
    <glyph glyph-name="arrowright" unicode="&#x2192;" horiz-adv-x="750" 
d="M682 340v-72l-256 -256l-73 74l162 162h-425v112h425l-162 162l73 74z" />
    <glyph glyph-name="arrowdown" unicode="&#x2193;" horiz-adv-x="750" 
d="M426 -3h-72l-256 256l74 73l162 -162v425h112v-425l162 162l74 -73z" />
    <glyph glyph-name="uni2196" unicode="&#x2196;" horiz-adv-x="750" 
d="M147 480l51 51h362v-104h-230l301 -301l-79 -79l-301 301v-230h-104v362z" />
    <glyph glyph-name="uni2197" unicode="&#x2197;" horiz-adv-x="750" 
d="M566 532l51 -51v-362h-104v230l-301 -301l-79 79l301 301h-230v104h362z" />
    <glyph glyph-name="uni2198" unicode="&#x2198;" horiz-adv-x="750" 
d="M618 113l-51 -51h-362v104h230l-301 301l79 79l301 -301v230h104v-362z" />
    <glyph glyph-name="uni2199" unicode="&#x2199;" horiz-adv-x="750" 
d="M199 61l-51 51v362h104v-230l301 301l79 -79l-301 -301h230v-104h-362z" />
    <glyph glyph-name="partialdiff" unicode="&#x2202;" horiz-adv-x="546" 
d="M244 696h158q44 -49 72.5 -132.5t28.5 -178.5q0 -69 -15 -135.5t-46 -126.5t-87 -97t-128 -37q-97 0 -148.5 55t-51.5 147q0 105 63.5 180.5t155.5 75.5q81 0 121 -67v27q0 77 -32 153.5t-91 135.5zM240 111q42 0 70.5 42.5t34.5 107.5q-22 53 -87 53q-40 0 -66 -33
t-26 -83q0 -39 18.5 -63t55.5 -24z" />
    <glyph glyph-name="Delta" unicode="&#x2206;" horiz-adv-x="708" 
d="M-19 0l368 676h156l129 -676h-653zM466 111l-62 421l-211 -421h273z" />
    <glyph glyph-name="product" unicode="&#x220f;" horiz-adv-x="759" 
d="M114 676h670l-20 -111h-63l-118 -670h63l-19 -111h-286l19 111h86l118 671h-267l-118 -671h87l-20 -111h-289l20 111h64l118 670h-64z" />
    <glyph glyph-name="summation" unicode="&#x2211;" horiz-adv-x="598" 
d="M373 -5h126l-38 -212h-505l23 131l289 330l-178 305l23 127h503l-38 -212h-126l17 101h-240l185 -326l-303 -345h244z" />
    <glyph glyph-name="minus" unicode="&#x2212;" 
d="M29 208v125h497v-125h-497z" />
    <glyph glyph-name="uni2215" unicode="&#x2215;" horiz-adv-x="150" 
d="M393 676l-2 -15l-517 -661h-92l3 15l513 661h95z" />
    <glyph glyph-name="uni2219" unicode="&#x2219;" horiz-adv-x="232" 
d="M102 188q-32 0 -52.5 20t-20.5 49q0 40 28 66t69 26q32 0 52.5 -20t20.5 -50q0 -39 -28.5 -65t-68.5 -26z" />
    <glyph glyph-name="radical" unicode="&#x221a;" horiz-adv-x="574" 
d="M654 696l-399 -912h-139l-69 300l-70 -29l-23 88l197 79l52 -273l317 747h134z" />
    <glyph glyph-name="infinity" unicode="&#x221e;" horiz-adv-x="713" 
d="M662 292q0 -80 -52 -133.5t-123 -53.5q-101 0 -144 89q-44 -45 -82 -66.5t-89 -21.5q-53 0 -89 36t-36 93q0 78 51.5 132t121.5 54q97 0 146 -93q81 95 170 95q54 0 90 -37t36 -94zM558 275q0 23 -12.5 37t-35.5 14q-41 0 -92 -65q31 -59 70 -59q31 0 50.5 20.5
t19.5 52.5zM291 261q-11 27 -30 46t-41 19q-30 0 -50.5 -22t-20.5 -54q0 -23 13 -36t36 -13q46 0 93 60z" />
    <glyph glyph-name="integral" unicode="&#x222b;" horiz-adv-x="349" 
d="M398 585q-54 3 -68 3q-37 0 -44 -44l-109 -620q-12 -65 -54.5 -107.5t-115.5 -42.5q-53 0 -87 12l19 109q54 -3 68 -3q37 0 44 44l109 620q12 65 53.5 107.5t116.5 42.5q53 0 87 -12z" />
    <glyph glyph-name="approxequal" unicode="&#x2248;" 
d="M495 442v-123q-49 -40 -107 -40q-46 0 -115 31t-109 31q-41 0 -104 -38v123q61 40 115 40q41 0 109 -31t112 -31q48 0 99 38zM495 237v-123q-49 -40 -107 -40q-46 0 -115 31t-109 31q-41 0 -104 -38v123q61 40 115 40q41 0 109 -31t112 -31q48 0 99 38z" />
    <glyph glyph-name="notequal" unicode="&#x2260;" 
d="M58 220h168l23 100h-191v125h221l23 95l65 -14l-20 -81h146v-125h-176l-24 -100h200v-125h-230l-24 -102l-64 14l21 88h-138v125z" />
    <glyph glyph-name="lessequal" unicode="&#x2264;" 
d="M59 340v152l436 156v-129l-314 -104l314 -103v-128zM60 147h435v-125h-435v125z" />
    <glyph glyph-name="greaterequal" unicode="&#x2265;" 
d="M509 492v-152l-436 -156v128l314 103l-314 104v129zM73 147h435v-125h-435v125z" />
    <glyph glyph-name="lozenge" unicode="&#x25ca;" horiz-adv-x="615" 
d="M451 355l-90 215l-171 -215l93 -229zM599 355l-278 -355h-125l-151 355l274 341h125z" />
    <glyph glyph-name="circle" unicode="&#x25cb;" horiz-adv-x="781" 
d="M61 337q0 153 94 251t245 98q152 0 246.5 -98t94.5 -251q0 -151 -94.5 -249.5t-246.5 -98.5q-151 0 -245 98.5t-94 249.5zM151 337q0 -118 67 -189.5t182 -71.5q116 0 183 71.5t67 189.5q0 119 -67 190.5t-183 71.5q-115 0 -182 -71.5t-67 -190.5z" />
    <glyph glyph-name="commaaccent" unicode="&#xf6c3;" horiz-adv-x="582" 
d="M359 -61l-84 -155h-102l45 155h141z" />
    <glyph glyph-name="uniF8FF" unicode="&#xf8ff;" horiz-adv-x="611" 
d="M108 0v656h413v-656h-413zM146 38h337v580h-337v-580z" />
    <glyph glyph-name="exclam.sc" horiz-adv-x="260" 
d="M164 180h-107l37 327h151zM79 -4q-30 0 -48 17t-18 43q0 35 26.5 58t64.5 23q28 0 46 -17t18 -43q0 -34 -26.5 -57.5t-62.5 -23.5z" />
    <glyph glyph-name="numbersign.sc" horiz-adv-x="551" 
d="M76 106h-75l39 109h74l23 75h-72l36 109h72l36 108h121l-37 -108h52l37 108h120l-36 -108h75l-39 -109h-72l-24 -75h74l-39 -109h-74l-35 -106h-121l37 106h-51l-37 -106h-121zM257 290l-24 -75h52l24 75h-52z" />
    <glyph glyph-name="dollar.sc" horiz-adv-x="482" 
d="M206 -77h-51l12 70q-93 4 -161 37l20 141h111l12 -72q15 -6 35 -7l18 98l-33 12q-105 38 -105 132q0 67 47 120.5t148 60.5l10 54h51l-10 -54q90 -8 143 -42l-25 -141h-111l-4 76l-21 3l-17 -96l34 -12q60 -21 83.5 -55t24.5 -81q0 -62 -50.5 -115t-148.5 -59zM272 135
q0 24 -22 37l-14 -78q36 10 36 41zM207 364q0 -23 20 -31l14 76q-34 -13 -34 -45z" />
    <glyph glyph-name="percent.sc" horiz-adv-x="676" 
d="M579 507l-3 -14l-406 -493h-85l2 14l405 493h87zM206 515q60 0 92 -30.5t32 -75.5q0 -66 -41 -110t-119 -44q-59 0 -91 30.5t-32 76.5q0 65 41.5 109t117.5 44zM182 353q42 0 42 39q0 24 -31 24q-42 0 -42 -38q0 -25 31 -25zM495 251q60 0 92.5 -30.5t32.5 -75.5
q0 -66 -41.5 -109.5t-119.5 -43.5q-59 0 -90.5 30t-31.5 76q0 65 41 109t117 44zM472 90q41 0 41 38q0 24 -30 24q-42 0 -42 -37q0 -25 31 -25z" />
    <glyph glyph-name="ampersand.sc" horiz-adv-x="534" 
d="M379 -8q-69 0 -87 49q-56 -49 -140 -49q-64 0 -103 35t-39 92q0 64 36 101t85 48q-62 20 -62 88q0 19 4 37.5t17 41.5t34.5 40t60.5 28.5t90 11.5q57 0 128 -22l-47 -106q-48 15 -96 15q-61 0 -61 -50q0 -39 62 -39h65l5 32l126 18l-8 -50h49l-18 -102h-49l-15 -80
q-2 -14 3 -19.5t21 -5.5q21 0 36 2l-22 -108q-35 -8 -75 -8zM197 106q46 0 96 22l15 83h-74q-86 0 -86 -64q0 -41 49 -41z" />
    <glyph glyph-name="section.sc" horiz-adv-x="461" 
d="M410 235q0 -67 -62 -107q34 -29 34 -72q0 -65 -62.5 -103t-158.5 -38q-82 0 -166 25l20 121h94l7 -44q33 -7 72 -7q49 0 49 20q0 15 -43 33l-60 23q-54 21 -79.5 47t-25.5 65q0 63 65 105q-36 27 -36 75q0 56 60.5 96.5t156.5 40.5q87 0 163 -26l-20 -123h-95l-7 44
q-22 7 -58 7q-59 0 -59 -22q0 -9 10 -14.5t41 -15.5l55 -19q105 -36 105 -111zM178 260q-11 -11 -11 -27q0 -25 53 -45l43 -17q8 9 8 27q0 25 -46 44z" />
    <glyph glyph-name="paragraph.sc" horiz-adv-x="492" 
d="M291 342l-57 -323h-110l14 82q-61 0 -91.5 25.5t-30.5 69.5q0 66 43.5 106t130.5 40h101zM252 -169l-62 71q35 26 51.5 48t22.5 54l60 338h109l-59 -338q-19 -105 -122 -173z" />
    <glyph glyph-name="parenleft.sc" horiz-adv-x="279" 
d="M192 -69l-100 -38q-68 114 -68 265q0 125 45.5 219t145.5 211l87 -37q-71 -108 -109.5 -203.5t-38.5 -197.5q0 -114 38 -219z" />
    <glyph glyph-name="slash.sc" horiz-adv-x="338" 
d="M351 503l-2 -10l-245 -493h-126l2 11l242 492h129z" />
    <glyph glyph-name="parenright.sc" horiz-adv-x="282" 
d="M-34 -69q84 120 113.5 205.5t29.5 176.5q0 120 -35 238l100 37q69 -136 69 -268q0 -226 -191 -427z" />
    <glyph glyph-name="bracketleft.sc" horiz-adv-x="332" 
d="M124 582h227l-18 -102h-94l-84 -480h93l-18 -102h-226z" />
    <glyph glyph-name="backslash.sc" horiz-adv-x="339" 
d="M62 493l2 10h129l73 -492l-2 -11h-127z" />
    <glyph glyph-name="bracketright.sc" horiz-adv-x="333" 
d="M89 582h227l-120 -684h-227l18 102h94l84 480h-94z" />
    <glyph glyph-name="braceleft.sc" horiz-adv-x="309" 
d="M261 456l-20 -118q-6 -33 -30 -56.5t-43.5 -30.5t-39.5 -11q32 -2 60 -25t19 -69l-23 -127q-3 -16 5 -23.5t23 -6.5l-16 -91q-90 0 -123 25t-23 85l22 124q6 34 -18 48t-48 14l16 92q7 0 19 3t27 10t27.5 21t15.5 33l21 119q10 60 52.5 85t131.5 25l-16 -91
q-33 0 -39 -35z" />
    <glyph glyph-name="bar.sc" horiz-adv-x="234" 
d="M145 -102h-71v684h71v-684z" />
    <glyph glyph-name="braceright.sc" horiz-adv-x="309" 
d="M289 286l-16 -92q-9 0 -20.5 -2.5t-26.5 -8.5t-26.5 -19.5t-14.5 -31.5l-22 -124q-10 -60 -52 -85t-132 -25l16 91q33 0 38 28l22 129q13 76 112 94q-12 2 -25 8t-27.5 16.5t-22 30t-3.5 43.5l21 118q6 35 -26 35l16 91q89 0 122 -25t23 -85l-21 -119q-6 -35 19 -51
t46 -16z" />
    <glyph glyph-name="zero.sc" horiz-adv-x="515" 
d="M170 191q0 -43 15 -63t48 -20q105 0 105 204q0 87 -62 87q-47 0 -76.5 -48.5t-29.5 -159.5zM475 323q0 -331 -256 -331q-188 0 -188 190q0 333 260 333q184 0 184 -192z" />
    <glyph glyph-name="one.sc" horiz-adv-x="406" 
d="M-8 0l20 113h121l46 261l-112 -47l-8 103l165 77h111l-70 -394h97l-19 -113h-351z" />
    <glyph glyph-name="two.sc" horiz-adv-x="451" 
d="M182 315l-133 -10q-7 94 54.5 152t155.5 58q75 0 114 -38t39 -101q0 -38 -12.5 -70t-38 -59t-48.5 -46t-60 -45.5t-56 -42.5h80l8 44h105l-28 -157h-369l16 91q71 52 157 122q40 32 57.5 48.5t34 43t16.5 52.5q0 22 -11 33t-28 11q-57 0 -53 -86z" />
    <glyph glyph-name="three.sc" horiz-adv-x="435" 
d="M157 349h-92l7 117q76 49 171 49q85 0 120.5 -38.5t35.5 -85.5q0 -52 -28 -89t-77 -52q83 -22 83 -92q0 -76 -59 -121t-168 -45q-54 0 -99.5 16.5t-67.5 37.5l76 98q44 -38 110 -38q72 0 72 44q0 23 -17.5 30.5t-54.5 7.5h-60l20 112h54q33 0 55 17t22 45q0 15 -9.5 27.5
t-32.5 12.5q-30 0 -53 -9z" />
    <glyph glyph-name="four.sc" horiz-adv-x="470" 
d="M428 195l-18 -103h-65l-16 -92h-129l16 92h-231l16 91l200 241l62 83h155l-55 -312h65zM141 195h93l29 155z" />
    <glyph glyph-name="five.sc" horiz-adv-x="441" 
d="M-13 36l36 124h104l-9 -48q22 -6 45 -6q85 0 85 60q0 52 -69 52q-34 0 -108 -13l-29 18l86 284h294l-20 -113h-188l-22 -69q34 8 66 8q62 0 97 -37t35 -97q0 -97 -59 -152t-168 -55q-110 0 -176 44z" />
    <glyph glyph-name="six.sc" horiz-adv-x="474" 
d="M303 402q-57 0 -86.5 -29.5t-36.5 -74.5q3 1 14.5 7.5t21 10.5t27 8t36.5 4q66 0 104.5 -34.5t38.5 -96.5q0 -93 -56.5 -149t-159.5 -56q-85 0 -131 48t-46 143q0 153 69 242.5t213 89.5q75 0 156 -37l-60 -103q-54 27 -104 27zM214 106q33 0 52 15.5t19 43.5
q0 38 -51 38q-35 0 -69 -19q-14 -78 49 -78z" />
    <glyph glyph-name="seven.sc" horiz-adv-x="424" 
d="M14 0l261 404h-99l-17 -95h-121l35 198h378l-14 -85q-40 -51 -93 -134l-180 -288h-150z" />
    <glyph glyph-name="eight.sc" horiz-adv-x="473" 
d="M440 393q0 -40 -23 -71.5t-55 -50.5q54 -37 54 -98q0 -81 -65 -131t-168 -50q-78 0 -125.5 34.5t-47.5 92.5q0 45 24.5 79t56.5 48q-31 34 -31 87q0 79 62.5 130.5t154.5 51.5q77 0 120 -34.5t43 -87.5zM162 204q-17 -24 -17 -53q0 -19 16.5 -33.5t52.5 -14.5q61 0 61 36
q0 11 -7 18.5t-14 11t-23 9.5zM278 309q30 20 30 53q0 18 -15.5 32.5t-44.5 14.5q-22 0 -38 -10.5t-16 -28.5q0 -26 32 -40z" />
    <glyph glyph-name="nine.sc" horiz-adv-x="473" 
d="M57 142q50 -36 119 -36q46 0 81 28t36 70q-47 -33 -114 -33q-60 0 -96.5 35.5t-36.5 97.5q0 93 57.5 152t154.5 59q49 0 85 -17t55 -46t27.5 -61.5t8.5 -69.5q0 -162 -68 -245.5t-203 -83.5q-95 0 -164 47zM248 401q-29 0 -47 -18t-18 -46q0 -41 48 -41q41 0 68 15
q8 41 -5.5 65.5t-45.5 24.5z" />
    <glyph glyph-name="question.sc" horiz-adv-x="393" 
d="M154 337h-93l-2 118q77 60 175 60q73 0 110.5 -31.5t37.5 -76.5q0 -32 -12.5 -59.5t-37.5 -49t-43 -33.5t-49 -30l-9 -55h-108l20 110q108 42 108 84q0 28 -46 28q-22 0 -41 -8zM139 -4q-29 0 -47 17t-18 43q0 35 26.5 58t63.5 23q30 0 47.5 -16.5t17.5 -42.5
q0 -35 -26 -58.5t-64 -23.5z" />
    <glyph glyph-name="a.sc" 
d="M270 0l18 102h49l-3 32h-151l-16 -32h50l-18 -102h-234l18 102h43l165 303h-43l18 102h310l-18 -102h-41l58 -303h42l-18 -102h-229zM230 239h96l-26 138z" />
    <glyph glyph-name="b.sc" horiz-adv-x="528" 
d="M-5 0l18 102h49l53 303h-49l18 102h249q75 0 111.5 -30t36.5 -81q0 -47 -23.5 -79.5t-57.5 -46.5q28 -11 47 -40.5t19 -63.5q0 -166 -212 -166h-259zM194 102h70q70 0 70 66q0 41 -50 41h-72zM231 312h55q32 0 45.5 16.5t13.5 38.5q0 38 -44 38h-54z" />
    <glyph glyph-name="c.sc" horiz-adv-x="505" 
d="M346 304l16 92q-26 3 -53 3q-66 0 -102.5 -45.5t-36.5 -131.5q0 -109 101 -109q69 0 143 20l5 -109q-102 -32 -167 -32q-222 0 -222 210q0 138 71.5 225.5t224.5 87.5q95 0 177 -30l-39 -181h-118z" />
    <glyph glyph-name="d.sc" horiz-adv-x="562" 
d="M62 102l53 303h-51l18 102h189q130 0 191.5 -46.5t61.5 -154.5q0 -147 -82 -226.5t-235 -79.5h-214l18 102h51zM195 102h39q78 0 116 53t38 144q0 51 -26.5 78.5t-75.5 27.5h-40z" />
    <glyph glyph-name="e.sc" horiz-adv-x="509" 
d="M325 175h119l-31 -175h-419l18 102h50l53 303h-50l18 102h418l-32 -178h-120l13 76h-116l-18 -103h133l-18 -104h-134l-16 -96h119z" />
    <glyph glyph-name="f.sc" horiz-adv-x="466" 
d="M-5 0l18 102h49l53 303h-49l18 102h397l-33 -185h-121l15 83h-95l-21 -120h133l-19 -105h-133l-13 -78h99l-18 -102h-280z" />
    <glyph glyph-name="g.sc" horiz-adv-x="546" 
d="M269 265h230l-43 -240q-98 -33 -201 -33q-106 0 -166.5 53t-60.5 152q0 67 17 122.5t53 100.5t99 70t148 25q74 0 179 -32l-40 -167h-118l17 78q-28 3 -62 3q-151 0 -151 -181q0 -50 26 -79.5t81 -29.5q42 0 72 6l9 47h-108z" />
    <glyph glyph-name="h.sc" horiz-adv-x="624" 
d="M357 405l18 102h245l-18 -102h-48l-54 -303h49l-18 -102h-245l18 102h65l18 101h-175l-17 -101h66l-18 -102h-249l18 102h51l53 303h-50l18 102h249l-18 -102h-67l-16 -92h175l16 92h-66z" />
    <glyph glyph-name="i.sc" horiz-adv-x="325" 
d="M-8 0l18 102h57l53 303h-57l18 102h243l-18 -102h-54l-53 -303h53l-18 -102h-242z" />
    <glyph glyph-name="j.sc" horiz-adv-x="300" 
d="M47 405l18 102h243l-18 -102h-50l-68 -385q-22 -127 -141 -191l-64 83q17 12 23.5 16.5t20 17.5t20 28.5t10.5 36.5l70 394h-64z" />
    <glyph glyph-name="k.sc" horiz-adv-x="579" 
d="M233 261l126 144h-42l18 102h251l-18 -102h-57l-131 -144l85 -159h53l-18 -102h-254l18 102h58zM252 405l-54 -303h36l-18 -102h-221l18 102h47l54 303h-47l18 102h220l-18 -102h-35z" />
    <glyph glyph-name="l.sc" horiz-adv-x="458" 
d="M302 197h119l-35 -197h-391l18 102h49l53 303h-49l18 102h229l-18 -102h-48l-53 -303h91z" />
    <glyph glyph-name="m.sc" horiz-adv-x="748" 
d="M346 142l142 365h236l-18 -102h-43l-30 -303h54l-18 -102h-224l18 102h50l28 264l-147 -366h-143l-12 359l-67 -257h52l-18 -102h-224l18 102h49l82 303h-43l18 102h230z" />
    <glyph glyph-name="n.sc" horiz-adv-x="618" 
d="M362 405l18 102h243l-18 -102h-46l-71 -405h-127l-134 299l-34 -197h76l-18 -102h-255l18 102h47l53 303h-47l18 102h175l133 -297l34 195h-65z" />
    <glyph glyph-name="o.sc" horiz-adv-x="545" 
d="M173 197q0 -93 70 -93q56 0 88.5 51.5t32.5 153.5q0 93 -68 93q-55 0 -89 -52t-34 -153zM507 318q0 -67 -14 -122t-44.5 -102.5t-87 -74.5t-134.5 -27q-99 0 -148 55t-49 142q0 51 7 94.5t26 87.5t49.5 75t81 50.5t116.5 19.5q101 0 149 -55t48 -143z" />
    <glyph glyph-name="p.sc" horiz-adv-x="510" 
d="M247 406l-54 -304h90l-18 -102h-270l18 102h49l54 303h-49l18 102h235q89 0 134 -36t45 -100q0 -95 -56 -148.5t-176 -53.5h-23l18 104h27q74 0 74 82q0 51 -50 51h-66z" />
    <glyph glyph-name="q.sc" horiz-adv-x="565" 
d="M507 318q0 -106 -34 -182q34 -63 36 -136h-125q0 19 -9.5 46t-29 59t-59 54t-92.5 22q-14 0 -21 -1q7 -76 70 -76q25 0 50 14q18 -16 32.5 -45.5t18.5 -57.5q-49 -23 -117 -23q-99 0 -148 55t-49 142q0 51 7 94.5t26 87.5t49.5 75t81 50.5t116.5 19.5q101 0 149 -55
t48 -143zM296 402q-42 0 -73 -30.5t-43 -90.5q28 2 43 2q76 0 137 -32q4 23 4 58q0 93 -68 93z" />
    <glyph glyph-name="r.sc" horiz-adv-x="553" 
d="M61 102l55 303h-51l18 102h244q184 0 184 -138q0 -53 -34.5 -91.5t-87.5 -58.5q18 -21 33 -56t20 -61h56l-17 -102h-231l18 102h38q-2 22 -16.5 53.5t-29.5 48.5h-49l-18 -102h36l-17 -102h-217l16 102h50zM374 362q0 43 -50 43h-76l-20 -102h71q38 0 56.5 16.5
t18.5 42.5z" />
    <glyph glyph-name="s.sc" horiz-adv-x="470" 
d="M448 473l-25 -141h-111l-4 76q-25 5 -47 5q-26 0 -42.5 -13.5t-16.5 -35.5q0 -24 29 -34l73 -27q60 -23 84 -56t24 -80q0 -30 -13 -59.5t-38.5 -56t-70 -43t-102.5 -16.5q-108 0 -187 38l20 141h111l12 -72q24 -8 61 -8q31 0 46.5 13t15.5 31q0 31 -36 43l-67 24
q-105 38 -105 132q0 32 11.5 62.5t35.5 58t69 44.5t105 17q47 0 94.5 -13t73.5 -30z" />
    <glyph glyph-name="t.sc" horiz-adv-x="496" 
d="M66 507h445l-32 -184h-108l15 82h-52l-53 -303h65l-18 -102h-263l18 102h68l53 303h-48l-14 -82h-108z" />
    <glyph glyph-name="u.sc" horiz-adv-x="563" 
d="M238 -7q-99 0 -147.5 51t-31.5 151l37 210h-46l18 102h234l-18 -102h-58l-37 -209q-16 -91 61 -91q78 0 94 91l37 209h-57l18 102h233l-18 -102h-46l-37 -210q-35 -202 -236 -202z" />
    <glyph glyph-name="v.sc" horiz-adv-x="554" 
d="M314 405l18 102h252l-18 -102h-52l-199 -405h-177l-56 405h-49l18 102h241l-18 -102h-59l30 -280l125 280h-56z" />
    <glyph glyph-name="w.sc" horiz-adv-x="774" 
d="M539 405l18 102h243l-18 -102h-45l-163 -405h-160l-27 260l-126 -260h-159l-21 405h-47l18 102h229l-18 -102h-47l-5 -272l137 275l-20 99h152l30 -374l95 272h-66z" />
    <glyph glyph-name="x.sc" horiz-adv-x="562" 
d="M55 405l18 102h232l-18 -102h-38l41 -68l63 68h-38l18 102h234l-18 -102h-48l-147 -145l104 -158h46l-18 -102h-228l18 102h36l-45 69l-70 -69h40l-18 -102h-238l18 102h47l154 158l-95 145h-50z" />
    <glyph glyph-name="y.sc" horiz-adv-x="534" 
d="M33 405l18 102h236l-18 -102h-56l50 -109l87 109h-55l18 102h252l-18 -102h-54l-177 -214l-16 -89h54l-18 -102h-245l18 102h59l16 89l-99 214h-52z" />
    <glyph glyph-name="z.sc" horiz-adv-x="505" 
d="M495 507l-16 -92l-300 -313h133l21 119h117l-39 -221h-416l16 91l301 313h-128l-14 -83h-118l33 186h410z" />
    <glyph glyph-name="agrave.sc" 
d="M270 0l18 102h49l-3 32h-151l-16 -32h50l-18 -102h-234l18 102h43l165 303h-43l18 102h310l-18 -102h-41l58 -303h42l-18 -102h-229zM230 239h96l-26 138zM223 726h132l40 -167h-117z" />
    <glyph glyph-name="aacute.sc" 
d="M270 0l18 102h49l-3 32h-151l-16 -32h50l-18 -102h-234l18 102h43l165 303h-43l18 102h310l-18 -102h-41l58 -303h42l-18 -102h-229zM230 239h96l-26 138zM369 726h131l-114 -167h-116z" />
    <glyph glyph-name="acircumflex.sc" 
d="M270 0l18 102h49l-3 32h-151l-16 -32h50l-18 -102h-234l18 102h43l165 303h-43l18 102h310l-18 -102h-41l58 -303h42l-18 -102h-229zM230 239h96l-26 138zM277 726h168l49 -167h-113l-31 94l-61 -94h-120z" />
    <glyph glyph-name="atilde.sc" 
d="M270 0l18 102h49l-3 32h-151l-16 -32h50l-18 -102h-234l18 102h43l165 303h-43l18 102h310l-18 -102h-41l58 -303h42l-18 -102h-229zM230 239h96l-26 138zM503 688l-16 -97q-33 25 -70 25q-22 0 -77 -21t-87 -21q-36 0 -65 21l17 97q26 -25 60 -25q22 0 75.5 21t93.5 21
q38 0 69 -21z" />
    <glyph glyph-name="adieresis.sc" 
d="M270 0l18 102h49l-3 32h-151l-16 -32h50l-18 -102h-234l18 102h43l165 303h-43l18 102h310l-18 -102h-41l58 -303h42l-18 -102h-229zM230 239h96l-26 138zM236 556q-66 0 -66 58q0 45 25.5 68.5t66.5 23.5q28 0 46.5 -16t18.5 -46q0 -44 -27 -66t-64 -22zM431 556
q-66 0 -66 58q0 45 26 68.5t67 23.5q27 0 45.5 -16t18.5 -46q0 -44 -27 -66t-64 -22z" />
    <glyph glyph-name="amacron.sc" 
d="M270 0l18 102h49l-3 32h-151l-16 -32h50l-18 -102h-234l18 102h43l165 303h-43l18 102h310l-18 -102h-41l58 -303h42l-18 -102h-229zM230 239h96l-26 138zM203 676h298l-19 -105h-297z" />
    <glyph glyph-name="abreve.sc" 
d="M270 0l18 102h49l-3 32h-151l-16 -32h50l-18 -102h-234l18 102h43l165 303h-43l18 102h310l-18 -102h-41l58 -303h42l-18 -102h-229zM230 239h96l-26 138zM429 709h84q-12 -68 -60 -112t-124 -44q-73 0 -104.5 44t-19.5 112h81q0 -29 16 -45.5t44 -16.5q27 0 49.5 17
t33.5 45z" />
    <glyph glyph-name="aring.sc" 
d="M270 0l18 102h49l-3 32h-151l-16 -32h50l-18 -102h-234l18 102h43l165 303h-43l18 102h310l-18 -102h-41l58 -303h42l-18 -102h-229zM230 239h96l-26 138zM238 630q0 48 35 84t93 36q46 0 69.5 -25t23.5 -60q0 -46 -36 -82t-97 -36q-43 0 -65.5 25t-22.5 58zM310 641
q0 -29 29 -29q22 0 34 12.5t12 29.5q0 13 -8 22t-24 9q-19 0 -31 -14t-12 -30z" />
    <glyph glyph-name="aringacute.sc" 
d="M270 0l18 102h49l-3 32h-151l-16 -32h50l-18 -102h-234l18 102h43l165 303h-43l18 102h310l-18 -102h-41l58 -303h42l-18 -102h-229zM237 630q0 33 18 63t51 45l59 91h132l-73 -96q34 -24 34 -68q0 -46 -36 -82t-97 -36q-43 0 -65.5 25t-22.5 58zM230 239h96l-26 138z
M309 641q0 -29 29 -29q22 0 34 12.5t12 29.5q0 13 -8 22t-24 9q-19 0 -31 -14t-12 -30z" />
    <glyph glyph-name="aogonek.sc" 
d="M270 0l18 102h49l-3 32h-151l-16 -32h50l-18 -102h-234l18 102h43l165 303h-43l18 102h310l-18 -102h-41l58 -303h42l-18 -102h-40l-97 -51q-31 -16 -31 -35q0 -17 20 -17q27 0 62 15l-17 -92q-36 -18 -88 -18q-114 0 -114 73q0 65 73 98l61 27h-58zM230 239h96l-26 138z
" />
    <glyph glyph-name="ae.sc" horiz-adv-x="778" 
d="M248 507h522l-31 -178h-121l13 76h-116l-18 -103h133l-18 -104h-133l-17 -96h120l13 73h119l-31 -175h-421l18 102h51l6 32h-145l-22 -32h39l-18 -102h-231l18 102h42l253 303h-43zM265 237h90l26 147z" />
    <glyph glyph-name="aeacute.sc" horiz-adv-x="778" 
d="M248 507h522l-31 -178h-121l13 76h-116l-18 -103h133l-18 -104h-133l-17 -96h120l13 73h119l-31 -175h-421l18 102h51l6 32h-145l-22 -32h39l-18 -102h-231l18 102h42l253 303h-43zM265 237h90l26 147zM548 726h131l-114 -167h-116z" />
    <glyph glyph-name="cacute.sc" horiz-adv-x="505" 
d="M346 304l16 92q-26 3 -53 3q-66 0 -102.5 -45.5t-36.5 -131.5q0 -109 101 -109q69 0 143 20l5 -109q-102 -32 -167 -32q-222 0 -222 210q0 138 71.5 225.5t224.5 87.5q95 0 177 -30l-39 -181h-118zM371 726h131l-114 -167h-116z" />
    <glyph glyph-name="ccircumflex.sc" horiz-adv-x="505" 
d="M346 304l16 92q-26 3 -53 3q-66 0 -102.5 -45.5t-36.5 -131.5q0 -109 101 -109q69 0 143 20l5 -109q-102 -32 -167 -32q-222 0 -222 210q0 138 71.5 225.5t224.5 87.5q95 0 177 -30l-39 -181h-118zM276 726h168l49 -167h-113l-31 94l-61 -94h-120z" />
    <glyph glyph-name="ccaron.sc" horiz-adv-x="505" 
d="M346 304l16 92q-26 3 -53 3q-66 0 -102.5 -45.5t-36.5 -131.5q0 -109 101 -109q69 0 143 20l5 -109q-102 -32 -167 -32q-222 0 -222 210q0 138 71.5 225.5t224.5 87.5q95 0 177 -30l-39 -181h-118zM419 559h-168l-49 167h113l31 -94l61 94h120z" />
    <glyph glyph-name="cdotaccent.sc" horiz-adv-x="505" 
d="M346 304l16 92q-26 3 -53 3q-66 0 -102.5 -45.5t-36.5 -131.5q0 -109 101 -109q69 0 143 20l5 -109q-102 -32 -167 -32q-222 0 -222 210q0 138 71.5 225.5t224.5 87.5q95 0 177 -30l-39 -181h-118zM331 556q-67 0 -67 58q0 45 26 68.5t67 23.5q27 0 45.5 -16t18.5 -46
q0 -45 -26.5 -66.5t-63.5 -21.5z" />
    <glyph glyph-name="ccedilla.sc" horiz-adv-x="505" 
d="M346 304l16 92q-26 3 -53 3q-66 0 -102.5 -45.5t-36.5 -131.5q0 -109 101 -109q69 0 143 20l5 -109q-94 -29 -154 -32l-26 -46q14 4 34 4q27 0 45.5 -16.5t18.5 -42.5q0 -91 -129 -91q-46 0 -98 23l19 53q44 -24 79 -24q18 0 28.5 9.5t10.5 24.5q0 22 -22 22
q-15 0 -27 -10q-32 13 -43 18l45 80q-170 23 -170 206q0 138 71.5 225.5t224.5 87.5q95 0 177 -30l-39 -181h-118z" />
    <glyph glyph-name="dcaron.sc" horiz-adv-x="562" 
d="M62 102l53 303h-51l18 102h189q130 0 191.5 -46.5t61.5 -154.5q0 -147 -82 -226.5t-235 -79.5h-214l18 102h51zM195 102h39q78 0 116 53t38 144q0 51 -26.5 78.5t-75.5 27.5h-40zM392 559h-168l-49 167h113l31 -94l61 94h120z" />
    <glyph glyph-name="dcroat.sc" horiz-adv-x="567" 
d="M67 102l22 129h-44l13 76h45l17 98h-51l18 102h189q130 0 191.5 -46.5t61.5 -154.5q0 -147 -82 -226.5t-235 -79.5h-214l18 102h51zM200 102h39q78 0 116 53t38 144q0 51 -26.5 78.5t-75.5 27.5h-40l-16 -98h82l-14 -76h-82z" />
    <glyph glyph-name="eth.sc" horiz-adv-x="567" 
d="M67 102l22 129h-44l13 76h45l17 98h-51l18 102h189q130 0 191.5 -46.5t61.5 -154.5q0 -147 -82 -226.5t-235 -79.5h-214l18 102h51zM200 102h39q78 0 116 53t38 144q0 51 -26.5 78.5t-75.5 27.5h-40l-16 -98h82l-14 -76h-82z" />
    <glyph glyph-name="egrave.sc" horiz-adv-x="509" 
d="M325 175h119l-31 -175h-419l18 102h50l53 303h-50l18 102h418l-32 -178h-120l13 76h-116l-18 -103h133l-18 -104h-134l-16 -96h119zM200 726h132l40 -167h-117z" />
    <glyph glyph-name="eacute.sc" horiz-adv-x="509" 
d="M325 175h119l-31 -175h-419l18 102h50l53 303h-50l18 102h418l-32 -178h-120l13 76h-116l-18 -103h133l-18 -104h-134l-16 -96h119zM351 726h131l-114 -167h-116z" />
    <glyph glyph-name="ecircumflex.sc" horiz-adv-x="509" 
d="M325 175h119l-31 -175h-419l18 102h50l53 303h-50l18 102h418l-32 -178h-120l13 76h-116l-18 -103h133l-18 -104h-134l-16 -96h119zM256 726h168l49 -167h-113l-31 94l-61 -94h-120z" />
    <glyph glyph-name="ecaron.sc" horiz-adv-x="509" 
d="M325 175h119l-31 -175h-419l18 102h50l53 303h-50l18 102h418l-32 -178h-120l13 76h-116l-18 -103h133l-18 -104h-134l-16 -96h119zM396 559h-168l-49 167h113l31 -94l61 94h120z" />
    <glyph glyph-name="edieresis.sc" horiz-adv-x="509" 
d="M325 175h119l-31 -175h-419l18 102h50l53 303h-50l18 102h418l-32 -178h-120l13 76h-116l-18 -103h133l-18 -104h-134l-16 -96h119zM214 556q-66 0 -66 58q0 45 25.5 68.5t66.5 23.5q28 0 46.5 -16t18.5 -46q0 -44 -27 -66t-64 -22zM409 556q-66 0 -66 58q0 45 26 68.5
t67 23.5q27 0 45.5 -16t18.5 -46q0 -44 -27 -66t-64 -22z" />
    <glyph glyph-name="emacron.sc" horiz-adv-x="509" 
d="M325 175h119l-31 -175h-419l18 102h50l53 303h-50l18 102h418l-32 -178h-120l13 76h-116l-18 -103h133l-18 -104h-134l-16 -96h119zM179 676h298l-19 -105h-297z" />
    <glyph glyph-name="ebreve.sc" horiz-adv-x="509" 
d="M325 175h119l-31 -175h-419l18 102h50l53 303h-50l18 102h418l-32 -178h-120l13 76h-116l-18 -103h133l-18 -104h-134l-16 -96h119zM402 709h84q-12 -68 -60 -112t-124 -44q-73 0 -104.5 44t-19.5 112h81q0 -29 16 -45.5t44 -16.5q27 0 49.5 17t33.5 45z" />
    <glyph glyph-name="edotaccent.sc" horiz-adv-x="509" 
d="M325 175h119l-31 -175h-419l18 102h50l53 303h-50l18 102h418l-32 -178h-120l13 76h-116l-18 -103h133l-18 -104h-134l-16 -96h119zM312 556q-67 0 -67 58q0 45 26 68.5t67 23.5q27 0 45.5 -16t18.5 -46q0 -45 -26.5 -66.5t-63.5 -21.5z" />
    <glyph glyph-name="eogonek.sc" horiz-adv-x="509" 
d="M325 175h119l-31 -174l-97 -52q-31 -16 -31 -35q0 -17 20 -17q27 0 62 15l-17 -92q-36 -18 -88 -18q-114 0 -114 73q0 65 73 98l61 27h-288l18 102h50l53 303h-50l18 102h418l-32 -178h-120l13 76h-116l-18 -103h133l-18 -104h-134l-16 -96h119z" />
    <glyph glyph-name="gcircumflex.sc" horiz-adv-x="546" 
d="M269 265h230l-43 -240q-98 -33 -201 -33q-106 0 -166.5 53t-60.5 152q0 67 17 122.5t53 100.5t99 70t148 25q74 0 179 -32l-40 -167h-118l17 78q-28 3 -62 3q-151 0 -151 -181q0 -50 26 -79.5t81 -29.5q42 0 72 6l9 47h-108zM297 726h168l49 -167h-113l-31 94l-61 -94
h-120z" />
    <glyph glyph-name="gbreve.sc" horiz-adv-x="546" 
d="M269 265h230l-43 -240q-98 -33 -201 -33q-106 0 -166.5 53t-60.5 152q0 67 17 122.5t53 100.5t99 70t148 25q74 0 179 -32l-40 -167h-118l17 78q-28 3 -62 3q-151 0 -151 -181q0 -50 26 -79.5t81 -29.5q42 0 72 6l9 47h-108zM452 709h84q-12 -68 -60 -112t-124 -44
q-73 0 -104.5 44t-19.5 112h81q0 -29 16 -45.5t44 -16.5q27 0 49.5 17t33.5 45z" />
    <glyph glyph-name="gdotaccent.sc" horiz-adv-x="546" 
d="M269 265h230l-43 -240q-98 -33 -201 -33q-106 0 -166.5 53t-60.5 152q0 67 17 122.5t53 100.5t99 70t148 25q74 0 179 -32l-40 -167h-118l17 78q-28 3 -62 3q-151 0 -151 -181q0 -50 26 -79.5t81 -29.5q42 0 72 6l9 47h-108zM355 556q-67 0 -67 58q0 45 26 68.5t67 23.5
q27 0 45.5 -16t18.5 -46q0 -45 -26.5 -66.5t-63.5 -21.5z" />
    <glyph glyph-name="gcommaaccent.sc" horiz-adv-x="546" 
d="M269 265h230l-43 -240q-98 -33 -201 -33q-106 0 -166.5 53t-60.5 152q0 67 17 122.5t53 100.5t99 70t148 25q74 0 179 -32l-40 -167h-118l17 78q-28 3 -62 3q-151 0 -151 -181q0 -50 26 -79.5t81 -29.5q42 0 72 6l9 47h-108zM323 -61l-84 -155h-102l45 155h141z" />
    <glyph glyph-name="hcircumflex.sc" horiz-adv-x="624" 
d="M357 405l18 102h245l-18 -102h-48l-54 -303h49l-18 -102h-245l18 102h65l18 101h-175l-17 -101h66l-18 -102h-249l18 102h51l53 303h-50l18 102h249l-18 -102h-67l-16 -92h175l16 92h-66zM305 726h168l49 -167h-113l-31 94l-61 -94h-120z" />
    <glyph glyph-name="hbar.sc" horiz-adv-x="623" 
d="M61 380h50l5 25h-50l18 102h249l-18 -102h-67l-5 -25h175l5 25h-66l18 102h245l-18 -102h-48l-5 -25h49l-8 -45h-49l-41 -233h49l-18 -102h-245l18 102h65l18 101h-175l-17 -101h66l-18 -102h-249l18 102h51l41 233h-51zM232 313h175l4 22h-175z" />
    <glyph glyph-name="igrave.sc" horiz-adv-x="325" 
d="M-8 0l18 102h57l53 303h-57l18 102h243l-18 -102h-54l-53 -303h53l-18 -102h-242zM107 726h132l40 -167h-117z" />
    <glyph glyph-name="iacute.sc" horiz-adv-x="325" 
d="M-8 0l18 102h57l53 303h-57l18 102h243l-18 -102h-54l-53 -303h53l-18 -102h-242zM253 726h131l-114 -167h-116z" />
    <glyph glyph-name="ibreve.sc" horiz-adv-x="325" 
d="M-8 0l18 102h57l53 303h-57l18 102h243l-18 -102h-54l-53 -303h53l-18 -102h-242zM314 709h84q-12 -68 -60 -112t-124 -44q-73 0 -104.5 44t-19.5 112h81q0 -29 16 -45.5t44 -16.5q27 0 49.5 17t33.5 45z" />
    <glyph glyph-name="icircumflex.sc" horiz-adv-x="325" 
d="M-8 0l18 102h57l53 303h-57l18 102h243l-18 -102h-54l-53 -303h53l-18 -102h-242zM159 726h168l49 -167h-113l-31 94l-61 -94h-120z" />
    <glyph glyph-name="itilde.sc" horiz-adv-x="325" 
d="M-8 0l18 102h57l53 303h-57l18 102h243l-18 -102h-54l-53 -303h53l-18 -102h-242zM386 688l-16 -97q-33 25 -70 25q-22 0 -77 -21t-87 -21q-36 0 -65 21l17 97q26 -25 60 -25q22 0 75.5 21t93.5 21q37 0 69 -21z" />
    <glyph glyph-name="idieresis.sc" horiz-adv-x="325" 
d="M-8 0l18 102h57l53 303h-57l18 102h243l-18 -102h-54l-53 -303h53l-18 -102h-242zM116 556q-66 0 -66 58q0 45 25.5 68.5t66.5 23.5q28 0 46.5 -16t18.5 -46q0 -44 -27 -66t-64 -22zM311 556q-66 0 -66 58q0 45 26 68.5t67 23.5q27 0 45.5 -16t18.5 -46q0 -44 -27 -66
t-64 -22z" />
    <glyph glyph-name="imacron.sc" horiz-adv-x="325" 
d="M-8 0l18 102h57l53 303h-57l18 102h243l-18 -102h-54l-53 -303h53l-18 -102h-242zM83 676h298l-19 -105h-297z" />
    <glyph glyph-name="idotaccent.sc" horiz-adv-x="325" 
d="M-8 0l18 102h57l53 303h-57l18 102h243l-18 -102h-54l-53 -303h53l-18 -102h-242zM216 556q-67 0 -67 58q0 45 26 68.5t67 23.5q27 0 45.5 -16t18.5 -46q0 -45 -26.5 -66.5t-63.5 -21.5z" />
    <glyph glyph-name="iogonek.sc" horiz-adv-x="325" 
d="M-8 0l18 102h57l53 303h-57l18 102h243l-18 -102h-54l-53 -303h53l-18 -102h-44l-97 -51q-31 -16 -31 -35q0 -17 20 -17q27 0 62 15l-17 -92q-36 -18 -88 -18q-114 0 -114 73q0 65 73 98l61 27h-67z" />
    <glyph glyph-name="jcircumflex.sc" horiz-adv-x="300" 
d="M47 405l18 102h243l-18 -102h-50l-68 -385q-22 -127 -141 -191l-64 83q17 12 23.5 16.5t20 17.5t20 28.5t10.5 36.5l70 394h-64zM145 726h168l49 -167h-113l-31 94l-61 -94h-120z" />
    <glyph glyph-name="kcommaaccent.sc" horiz-adv-x="579" 
d="M234 261l126 144h-42l18 102h251l-18 -102h-57l-131 -144l85 -159h53l-18 -102h-254l18 102h58zM253 405l-54 -303h36l-18 -102h-221l18 102h47l54 303h-47l18 102h220l-18 -102h-35zM258 -61l-84 -155h-102l45 155h141z" />
    <glyph glyph-name="lacute.sc" horiz-adv-x="458" 
d="M302 197h119l-35 -197h-391l18 102h49l53 303h-49l18 102h229l-18 -102h-48l-53 -303h91zM246 726h131l-114 -167h-116z" />
    <glyph glyph-name="lcaron.sc" horiz-adv-x="496" 
d="M302 197h119l-35 -197h-391l18 102h49l53 303h-49l18 102h229l-18 -102h-48l-53 -303h91zM531 507l-98 -175h-98l55 175h141z" />
    <glyph glyph-name="lcommaaccent.sc" horiz-adv-x="458" 
d="M302 197h119l-35 -197h-391l18 102h49l53 303h-49l18 102h229l-18 -102h-48l-53 -303h91zM266 -61l-84 -155h-102l45 155h141z" />
    <glyph glyph-name="lslash.sc" horiz-adv-x="468" 
d="M50 263l53 19l22 123h-49l18 102h229l-18 -102h-48l-13 -71l52 19l-18 -102l-51 -19l-23 -130h91l17 95h119l-35 -197h-391l18 102h49l14 78l-54 -19z" />
    <glyph glyph-name="ldot.sc" horiz-adv-x="460" 
d="M302 197h119l-35 -197h-391l18 102h49l53 303h-49l18 102h229l-18 -102h-48l-53 -303h91zM350 230q-67 0 -67 58q0 45 26 68.5t67 23.5q27 0 45.5 -16t18.5 -46q0 -45 -26.5 -66.5t-63.5 -21.5z" />
    <glyph glyph-name="nacute.sc" horiz-adv-x="618" 
d="M362 405l18 102h243l-18 -102h-46l-71 -405h-127l-134 299l-34 -197h76l-18 -102h-255l18 102h47l53 303h-47l18 102h175l133 -297l34 195h-65zM394 726h131l-114 -167h-116z" />
    <glyph glyph-name="ncaron.sc" horiz-adv-x="618" 
d="M362 405l18 102h243l-18 -102h-46l-71 -405h-127l-134 299l-34 -197h76l-18 -102h-255l18 102h47l53 303h-47l18 102h175l133 -297l34 195h-65zM444 559h-168l-49 167h113l31 -94l61 94h120z" />
    <glyph glyph-name="ntilde.sc" horiz-adv-x="618" 
d="M362 405l18 102h243l-18 -102h-46l-71 -405h-127l-134 299l-34 -197h76l-18 -102h-255l18 102h47l53 303h-47l18 102h175l133 -297l34 195h-65zM528 688l-16 -97q-33 25 -70 25q-22 0 -77 -21t-87 -21q-36 0 -65 21l17 97q26 -25 60 -25q22 0 75.5 21t93.5 21
q37 0 69 -21z" />
    <glyph glyph-name="ncommaaccent.sc" horiz-adv-x="618" 
d="M362 405l18 102h243l-18 -102h-46l-71 -405h-127l-134 299l-34 -197h76l-18 -102h-255l18 102h47l53 303h-47l18 102h175l133 -297l34 195h-65zM344 -61l-84 -155h-102l45 155h141z" />
    <glyph glyph-name="ograve.sc" horiz-adv-x="545" 
d="M173 197q0 -93 70 -93q56 0 88.5 51.5t32.5 153.5q0 93 -68 93q-55 0 -89 -52t-34 -153zM507 318q0 -67 -14 -122t-44.5 -102.5t-87 -74.5t-134.5 -27q-99 0 -148 55t-49 142q0 51 7 94.5t26 87.5t49.5 75t81 50.5t116.5 19.5q101 0 149 -55t48 -143zM215 726h132
l40 -167h-117z" />
    <glyph glyph-name="oacute.sc" horiz-adv-x="545" 
d="M173 197q0 -93 70 -93q56 0 88.5 51.5t32.5 153.5q0 93 -68 93q-55 0 -89 -52t-34 -153zM507 318q0 -67 -14 -122t-44.5 -102.5t-87 -74.5t-134.5 -27q-99 0 -148 55t-49 142q0 51 7 94.5t26 87.5t49.5 75t81 50.5t116.5 19.5q101 0 149 -55t48 -143zM363 726h131
l-114 -167h-116z" />
    <glyph glyph-name="ocircumflex.sc" horiz-adv-x="545" 
d="M173 197q0 -93 70 -93q56 0 88.5 51.5t32.5 153.5q0 93 -68 93q-55 0 -89 -52t-34 -153zM507 318q0 -67 -14 -122t-44.5 -102.5t-87 -74.5t-134.5 -27q-99 0 -148 55t-49 142q0 51 7 94.5t26 87.5t49.5 75t81 50.5t116.5 19.5q101 0 149 -55t48 -143zM267 726h168
l49 -167h-113l-31 94l-61 -94h-120z" />
    <glyph glyph-name="otilde.sc" horiz-adv-x="545" 
d="M173 197q0 -93 70 -93q56 0 88.5 51.5t32.5 153.5q0 93 -68 93q-55 0 -89 -52t-34 -153zM507 318q0 -67 -14 -122t-44.5 -102.5t-87 -74.5t-134.5 -27q-99 0 -148 55t-49 142q0 51 7 94.5t26 87.5t49.5 75t81 50.5t116.5 19.5q101 0 149 -55t48 -143zM495 688l-16 -97
q-33 25 -70 25q-22 0 -77 -21t-87 -21q-36 0 -65 21l17 97q26 -25 60 -25q22 0 75.5 21t93.5 21q38 0 69 -21z" />
    <glyph glyph-name="odieresis.sc" horiz-adv-x="545" 
d="M173 197q0 -93 70 -93q56 0 88.5 51.5t32.5 153.5q0 93 -68 93q-55 0 -89 -52t-34 -153zM507 318q0 -67 -14 -122t-44.5 -102.5t-87 -74.5t-134.5 -27q-99 0 -148 55t-49 142q0 51 7 94.5t26 87.5t49.5 75t81 50.5t116.5 19.5q101 0 149 -55t48 -143zM226 556
q-66 0 -66 58q0 45 25.5 68.5t66.5 23.5q28 0 46.5 -16t18.5 -46q0 -44 -27 -66t-64 -22zM421 556q-66 0 -66 58q0 45 26 68.5t67 23.5q27 0 45.5 -16t18.5 -46q0 -44 -27 -66t-64 -22z" />
    <glyph glyph-name="omacron.sc" horiz-adv-x="545" 
d="M173 197q0 -93 70 -93q56 0 88.5 51.5t32.5 153.5q0 93 -68 93q-55 0 -89 -52t-34 -153zM507 318q0 -67 -14 -122t-44.5 -102.5t-87 -74.5t-134.5 -27q-99 0 -148 55t-49 142q0 51 7 94.5t26 87.5t49.5 75t81 50.5t116.5 19.5q101 0 149 -55t48 -143zM193 676h298
l-19 -105h-297z" />
    <glyph glyph-name="obreve.sc" horiz-adv-x="545" 
d="M173 197q0 -93 70 -93q56 0 88.5 51.5t32.5 153.5q0 93 -68 93q-55 0 -89 -52t-34 -153zM507 318q0 -67 -14 -122t-44.5 -102.5t-87 -74.5t-134.5 -27q-99 0 -148 55t-49 142q0 51 7 94.5t26 87.5t49.5 75t81 50.5t116.5 19.5q101 0 149 -55t48 -143zM415 709h84
q-12 -68 -60 -112t-124 -44q-73 0 -104.5 44t-19.5 112h81q0 -29 16 -45.5t44 -16.5q27 0 49.5 17t33.5 45z" />
    <glyph glyph-name="ohungarumlaut.sc" horiz-adv-x="545" 
d="M173 197q0 -93 70 -93q56 0 88.5 51.5t32.5 153.5q0 93 -68 93q-55 0 -89 -52t-34 -153zM507 318q0 -67 -14 -122t-44.5 -102.5t-87 -74.5t-134.5 -27q-99 0 -148 55t-49 142q0 51 7 94.5t26 87.5t49.5 75t81 50.5t116.5 19.5q101 0 149 -55t48 -143zM267 726h132
l-114 -167h-117zM454 726h132l-114 -167h-117z" />
    <glyph glyph-name="oslash.sc" horiz-adv-x="545" 
d="M508 318q0 -67 -14 -122t-44.5 -102.5t-87 -74.5t-134.5 -27q-43 0 -78 11l-15 -23h-77l3 14l28 44q-58 52 -58 151q0 51 7 94.5t26 87.5t49.5 75t81 50.5t116.5 19.5q41 0 76 -11l17 26h79l-2 -13l-31 -48q58 -51 58 -152zM365 309q0 10 -2 26l-146 -227q11 -4 27 -4
q56 0 88.5 51.5t32.5 153.5zM174 197q0 -17 1 -24l144 226q-9 3 -22 3q-55 0 -89 -52t-34 -153z" />
    <glyph glyph-name="oslashacute.sc" horiz-adv-x="545" 
d="M508 318q0 -67 -14 -122t-44.5 -102.5t-87 -74.5t-134.5 -27q-43 0 -78 11l-15 -23h-77l3 14l28 44q-58 52 -58 151q0 51 7 94.5t26 87.5t49.5 75t81 50.5t116.5 19.5q41 0 76 -11l17 26h79l-2 -13l-31 -48q58 -51 58 -152zM360 726h131l-114 -167h-116zM365 309
q0 10 -2 26l-146 -227q11 -4 27 -4q56 0 88.5 51.5t32.5 153.5zM174 197q0 -17 1 -24l144 226q-9 3 -22 3q-55 0 -89 -52t-34 -153z" />
    <glyph glyph-name="oe.sc" horiz-adv-x="741" 
d="M558 175h118l-30 -175h-352q-35 -8 -74 -8q-99 0 -145 54t-46 141q0 50 7.5 94.5t27 88.5t51 75.5t82.5 51t117 19.5q44 0 75 -9h344l-31 -178h-121l13 76h-116l-18 -103h133l-18 -104h-133l-17 -96h120zM242 104q31 0 54 10l49 278q-20 10 -50 10q-55 0 -89 -52
t-34 -153q0 -93 70 -93z" />
    <glyph glyph-name="racute.sc" horiz-adv-x="553" 
d="M61 102l55 303h-51l18 102h244q184 0 184 -138q0 -53 -34.5 -91.5t-87.5 -58.5q18 -21 33 -56t20 -61h56l-17 -102h-231l18 102h38q-2 22 -16.5 53.5t-29.5 48.5h-49l-18 -102h36l-17 -102h-217l16 102h50zM374 362q0 43 -50 43h-76l-20 -102h71q38 0 56.5 16.5
t18.5 42.5zM343 726h131l-114 -167h-116z" />
    <glyph glyph-name="rcaron.sc" horiz-adv-x="553" 
d="M61 102l55 303h-51l18 102h244q184 0 184 -138q0 -53 -34.5 -91.5t-87.5 -58.5q18 -21 33 -56t20 -61h56l-17 -102h-231l18 102h38q-2 22 -16.5 53.5t-29.5 48.5h-49l-18 -102h36l-17 -102h-217l16 102h50zM374 362q0 43 -50 43h-76l-20 -102h71q38 0 56.5 16.5
t18.5 42.5zM391 559h-168l-49 167h113l31 -94l61 94h120z" />
    <glyph glyph-name="rcommaaccent.sc" horiz-adv-x="554" 
d="M62 102l55 303h-51l18 102h244q184 0 184 -138q0 -53 -34.5 -91.5t-87.5 -58.5q18 -21 33 -56t20 -61h56l-17 -102h-231l18 102h38q-2 22 -16.5 53.5t-29.5 48.5h-49l-18 -102h36l-17 -102h-217l16 102h50zM375 362q0 43 -50 43h-76l-20 -102h71q38 0 56.5 16.5
t18.5 42.5zM301 -61l-84 -155h-102l45 155h141z" />
    <glyph glyph-name="sacute.sc" horiz-adv-x="470" 
d="M448 473l-25 -141h-111l-4 76q-25 5 -47 5q-26 0 -42.5 -13.5t-16.5 -35.5q0 -24 29 -34l73 -27q60 -23 84 -56t24 -80q0 -30 -13 -59.5t-38.5 -56t-70 -43t-102.5 -16.5q-108 0 -187 38l20 141h111l12 -72q24 -8 61 -8q31 0 46.5 13t15.5 31q0 31 -36 43l-67 24
q-105 38 -105 132q0 32 11.5 62.5t35.5 58t69 44.5t105 17q47 0 94.5 -13t73.5 -30zM325 726h131l-114 -167h-116z" />
    <glyph glyph-name="scircumflex.sc" horiz-adv-x="470" 
d="M448 473l-25 -141h-111l-4 76q-25 5 -47 5q-26 0 -42.5 -13.5t-16.5 -35.5q0 -24 29 -34l73 -27q60 -23 84 -56t24 -80q0 -30 -13 -59.5t-38.5 -56t-70 -43t-102.5 -16.5q-108 0 -187 38l20 141h111l12 -72q24 -8 61 -8q31 0 46.5 13t15.5 31q0 31 -36 43l-67 24
q-105 38 -105 132q0 32 11.5 62.5t35.5 58t69 44.5t105 17q47 0 94.5 -13t73.5 -30zM232 726h168l49 -167h-113l-31 94l-61 -94h-120z" />
    <glyph glyph-name="scaron.sc" horiz-adv-x="470" 
d="M448 473l-25 -141h-111l-4 76q-25 5 -47 5q-26 0 -42.5 -13.5t-16.5 -35.5q0 -24 29 -34l73 -27q60 -23 84 -56t24 -80q0 -30 -13 -59.5t-38.5 -56t-70 -43t-102.5 -16.5q-108 0 -187 38l20 141h111l12 -72q24 -8 61 -8q31 0 46.5 13t15.5 31q0 31 -36 43l-67 24
q-105 38 -105 132q0 32 11.5 62.5t35.5 58t69 44.5t105 17q47 0 94.5 -13t73.5 -30zM373 559h-168l-49 167h113l31 -94l61 94h120z" />
    <glyph glyph-name="scedilla.sc" horiz-adv-x="470" 
d="M448 473l-25 -141h-111l-4 76q-25 5 -47 5q-26 0 -42.5 -13.5t-16.5 -35.5q0 -24 29 -34l73 -27q60 -23 84 -56t24 -80q0 -61 -48.5 -113t-143.5 -60l-26 -48q14 4 34 4q27 0 45.5 -16.5t18.5 -42.5q0 -91 -129 -91q-46 0 -98 23l19 53q44 -24 79 -24q18 0 28.5 9.5
t10.5 24.5q0 22 -22 22q-14 0 -27 -10q-32 13 -43 18l44 77q-88 5 -153 37l20 141h111l12 -72q24 -8 61 -8q31 0 46.5 13t15.5 31q0 31 -36 43l-67 24q-105 38 -105 132q0 32 11.5 62.5t35.5 58t69 44.5t105 17q47 0 94.5 -13t73.5 -30z" />
    <glyph glyph-name="scommaaccent.sc" horiz-adv-x="470" 
d="M448 473l-25 -141h-111l-4 76q-25 5 -47 5q-26 0 -42.5 -13.5t-16.5 -35.5q0 -24 29 -34l73 -27q60 -23 84 -56t24 -80q0 -30 -13 -59.5t-38.5 -56t-70 -43t-102.5 -16.5q-108 0 -187 38l20 141h111l12 -72q24 -8 61 -8q31 0 46.5 13t15.5 31q0 31 -36 43l-67 24
q-105 38 -105 132q0 32 11.5 62.5t35.5 58t69 44.5t105 17q47 0 94.5 -13t73.5 -30zM252 -61l-84 -155h-102l45 155h141z" />
    <glyph glyph-name="tcaron.sc" horiz-adv-x="496" 
d="M66 507h445l-32 -184h-108l15 82h-52l-53 -303h65l-18 -102h-263l18 102h68l53 303h-48l-14 -82h-108zM382 559h-168l-49 167h113l31 -94l61 94h120z" />
    <glyph glyph-name="tcommaaccent.sc" horiz-adv-x="496" 
d="M66 507h445l-32 -184h-108l15 82h-52l-53 -303h65l-18 -102h-103l-30 -53q14 4 34 4q27 0 45.5 -16.5t18.5 -42.5q0 -91 -129 -91q-46 0 -98 23l19 53q44 -24 79 -24q18 0 28.5 9.5t10.5 24.5q0 22 -22 22q-15 0 -27 -10q-32 13 -43 18l47 83h-93l18 102h68l53 303h-48
l-14 -82h-108z" />
    <glyph glyph-name="uni021A.sc" horiz-adv-x="496" 
d="M66 507h445l-32 -184h-108l15 82h-52l-53 -303h65l-18 -102h-263l18 102h68l53 303h-48l-14 -82h-108zM258 -29l-84 -155h-102l45 155h141z" />
    <glyph glyph-name="tbar.sc" horiz-adv-x="496" 
d="M108 285h75l21 120h-48l-14 -82h-108l32 184h445l-32 -184h-108l15 82h-52l-21 -120h90l-18 -102h-90l-14 -81h65l-18 -102h-263l18 102h68l14 81h-75z" />
    <glyph glyph-name="thorn.sc" horiz-adv-x="525" 
d="M127 407h-66l20 100h296l-19 -100h-94l-5 -37h124q119 0 119 -93q0 -72 -37 -106.5t-122 -34.5h-125l-5 -36h96l-20 -100h-297l20 100h64zM374 257q0 12 -15 12h-118l-5 -28h119q19 0 19 16z" />
    <glyph glyph-name="ugrave.sc" horiz-adv-x="563" 
d="M238 -7q-99 0 -147.5 51t-31.5 151l37 210h-46l18 102h234l-18 -102h-58l-37 -209q-16 -91 61 -91q78 0 94 91l37 209h-57l18 102h233l-18 -102h-46l-37 -210q-35 -202 -236 -202zM220 726h132l40 -167h-117z" />
    <glyph glyph-name="uacute.sc" horiz-adv-x="563" 
d="M238 -7q-99 0 -147.5 51t-31.5 151l37 210h-46l18 102h234l-18 -102h-58l-37 -209q-16 -91 61 -91q78 0 94 91l37 209h-57l18 102h233l-18 -102h-46l-37 -210q-35 -202 -236 -202zM369 726h131l-114 -167h-116z" />
    <glyph glyph-name="ucircumflex.sc" horiz-adv-x="563" 
d="M238 -7q-99 0 -147.5 51t-31.5 151l37 210h-46l18 102h234l-18 -102h-58l-37 -209q-16 -91 61 -91q78 0 94 91l37 209h-57l18 102h233l-18 -102h-46l-37 -210q-35 -202 -236 -202zM274 726h168l49 -167h-113l-31 94l-61 -94h-120z" />
    <glyph glyph-name="utilde.sc" horiz-adv-x="563" 
d="M238 -7q-99 0 -147.5 51t-31.5 151l37 210h-46l18 102h234l-18 -102h-58l-37 -209q-16 -91 61 -91q78 0 94 91l37 209h-57l18 102h233l-18 -102h-46l-37 -210q-35 -202 -236 -202zM502 688l-16 -97q-33 25 -70 25q-22 0 -77 -21t-87 -21q-36 0 -65 21l17 97
q26 -25 60 -25q22 0 75.5 21t93.5 21q37 0 69 -21z" />
    <glyph glyph-name="udieresis.sc" horiz-adv-x="563" 
d="M238 -7q-99 0 -147.5 51t-31.5 151l37 210h-46l18 102h234l-18 -102h-58l-37 -209q-16 -91 61 -91q78 0 94 91l37 209h-57l18 102h233l-18 -102h-46l-37 -210q-35 -202 -236 -202zM232 556q-66 0 -66 58q0 45 25.5 68.5t66.5 23.5q28 0 46.5 -16t18.5 -46q0 -44 -27 -66
t-64 -22zM427 556q-66 0 -66 58q0 45 26 68.5t67 23.5q27 0 45.5 -16t18.5 -46q0 -44 -27 -66t-64 -22z" />
    <glyph glyph-name="umacron.sc" horiz-adv-x="563" 
d="M238 -7q-99 0 -147.5 51t-31.5 151l37 210h-46l18 102h234l-18 -102h-58l-37 -209q-16 -91 61 -91q78 0 94 91l37 209h-57l18 102h233l-18 -102h-46l-37 -210q-35 -202 -236 -202zM200 676h298l-19 -105h-297z" />
    <glyph glyph-name="ubreve.sc" horiz-adv-x="563" 
d="M238 -7q-99 0 -147.5 51t-31.5 151l37 210h-46l18 102h234l-18 -102h-58l-37 -209q-16 -91 61 -91q78 0 94 91l37 209h-57l18 102h233l-18 -102h-46l-37 -210q-35 -202 -236 -202zM421 709h84q-12 -68 -60 -112t-124 -44q-73 0 -104.5 44t-19.5 112h81q0 -29 16 -45.5
t44 -16.5q27 0 49.5 17t33.5 45z" />
    <glyph glyph-name="uring.sc" horiz-adv-x="563" 
d="M238 -7q-99 0 -147.5 51t-31.5 151l37 210h-46l18 102h234l-18 -102h-58l-37 -209q-16 -91 61 -91q78 0 94 91l37 209h-57l18 102h233l-18 -102h-46l-37 -210q-35 -202 -236 -202zM235 630q0 48 35 84t93 36q46 0 69.5 -25t23.5 -60q0 -46 -36 -82t-97 -36
q-43 0 -65.5 25t-22.5 58zM307 641q0 -29 29 -29q22 0 34 12.5t12 29.5q0 13 -8 22t-24 9q-19 0 -31 -14t-12 -30z" />
    <glyph glyph-name="uhungarumlaut.sc" horiz-adv-x="563" 
d="M238 -7q-99 0 -147.5 51t-31.5 151l37 210h-46l18 102h234l-18 -102h-58l-37 -209q-16 -91 61 -91q78 0 94 91l37 209h-57l18 102h233l-18 -102h-46l-37 -210q-35 -202 -236 -202zM276 726h132l-114 -167h-117zM463 726h132l-114 -167h-117z" />
    <glyph glyph-name="uogonek.sc" horiz-adv-x="563" 
d="M68 -125q0 55 73 98l41 25q-72 13 -105 63t-18 134l37 210h-46l18 102h234l-18 -102h-58l-37 -209q-16 -91 61 -91q78 0 94 91l37 209h-57l18 102h233l-18 -102h-46l-37 -210q-29 -166 -169 -195l-68 -51q-2 -1 -5 -4q-25 -22 -27 -32q0 -16 20 -16q23 0 63 15l-17 -92
q-39 -18 -88 -18q-115 0 -115 73z" />
    <glyph glyph-name="wacute.sc" horiz-adv-x="774" 
d="M539 405l18 102h243l-18 -102h-45l-163 -405h-160l-27 260l-126 -260h-159l-21 405h-47l18 102h229l-18 -102h-47l-5 -272l137 275l-20 99h152l30 -374l95 272h-66zM472 726h131l-114 -167h-116z" />
    <glyph glyph-name="wcircumflex.sc" horiz-adv-x="774" 
d="M539 405l18 102h243l-18 -102h-45l-163 -405h-160l-27 260l-126 -260h-159l-21 405h-47l18 102h229l-18 -102h-47l-5 -272l137 275l-20 99h152l30 -374l95 272h-66zM379 726h168l49 -167h-113l-31 94l-61 -94h-120z" />
    <glyph glyph-name="wdieresis.sc" horiz-adv-x="774" 
d="M539 405l18 102h243l-18 -102h-45l-163 -405h-160l-27 260l-126 -260h-159l-21 405h-47l18 102h229l-18 -102h-47l-5 -272l137 275l-20 99h152l30 -374l95 272h-66zM338 556q-66 0 -66 58q0 45 25.5 68.5t66.5 23.5q28 0 46.5 -16t18.5 -46q0 -44 -27 -66t-64 -22z
M533 556q-66 0 -66 58q0 45 26 68.5t67 23.5q27 0 45.5 -16t18.5 -46q0 -44 -27 -66t-64 -22z" />
    <glyph glyph-name="wgrave.sc" horiz-adv-x="774" 
d="M539 405l18 102h243l-18 -102h-45l-163 -405h-160l-27 260l-126 -260h-159l-21 405h-47l18 102h229l-18 -102h-47l-5 -272l137 275l-20 99h152l30 -374l95 272h-66zM329 726h132l40 -167h-117z" />
    <glyph glyph-name="yacute.sc" horiz-adv-x="534" 
d="M33 405l18 102h236l-18 -102h-56l50 -109l87 109h-55l18 102h252l-18 -102h-54l-177 -214l-16 -89h54l-18 -102h-245l18 102h59l16 89l-99 214h-52zM349 726h131l-114 -167h-116z" />
    <glyph glyph-name="ycircumflex.sc" horiz-adv-x="534" 
d="M33 405l18 102h236l-18 -102h-56l50 -109l87 109h-55l18 102h252l-18 -102h-54l-177 -214l-16 -89h54l-18 -102h-245l18 102h59l16 89l-99 214h-52zM252 726h168l49 -167h-113l-31 94l-61 -94h-120z" />
    <glyph glyph-name="ydieresis.sc" horiz-adv-x="534" 
d="M33 405l18 102h236l-18 -102h-56l50 -109l87 109h-55l18 102h252l-18 -102h-54l-177 -214l-16 -89h54l-18 -102h-245l18 102h59l16 89l-99 214h-52zM210 556q-66 0 -66 58q0 45 25.5 68.5t66.5 23.5q28 0 46.5 -16t18.5 -46q0 -44 -27 -66t-64 -22zM405 556q-66 0 -66 58
q0 45 26 68.5t67 23.5q27 0 45.5 -16t18.5 -46q0 -44 -27 -66t-64 -22z" />
    <glyph glyph-name="ygrave.sc" horiz-adv-x="534" 
d="M33 405l18 102h236l-18 -102h-56l50 -109l87 109h-55l18 102h252l-18 -102h-54l-177 -214l-16 -89h54l-18 -102h-245l18 102h59l16 89l-99 214h-52zM202 726h132l40 -167h-117z" />
    <glyph glyph-name="zacute.sc" horiz-adv-x="505" 
d="M495 507l-16 -92l-300 -313h133l21 119h117l-39 -221h-416l16 91l301 313h-128l-14 -83h-118l33 186h410zM340 726h131l-114 -167h-116z" />
    <glyph glyph-name="zcaron.sc" horiz-adv-x="505" 
d="M495 507l-16 -92l-300 -313h133l21 119h117l-39 -221h-416l16 91l301 313h-128l-14 -83h-118l33 186h410zM389 559h-168l-49 167h113l31 -94l61 94h120z" />
    <glyph glyph-name="zdotaccent.sc" horiz-adv-x="505" 
d="M495 507l-16 -92l-300 -313h133l21 119h117l-39 -221h-416l16 91l301 313h-128l-14 -83h-118l33 186h410zM302 556q-67 0 -67 58q0 45 26 68.5t67 23.5q27 0 45.5 -16t18.5 -46q0 -45 -26.5 -66.5t-63.5 -21.5z" />
    <glyph glyph-name="ij.sc" horiz-adv-x="638" 
d="M-8 0l18 102h57l53 303h-57l18 102h243l-18 -102h-54l-53 -303h53l-18 -102h-242zM385 405l18 102h243l-18 -102h-50l-68 -385q-22 -127 -141 -191l-64 83q17 12 23.5 16.5t20 17.5t20 28.5t10.5 36.5l70 394h-64z" />
    <glyph glyph-name="germandbls.sc" horiz-adv-x="932" 
d="M910 473l-25 -141h-111l-4 76q-25 5 -47 5q-26 0 -42.5 -13.5t-16.5 -35.5q0 -24 29 -34l73 -27q60 -23 84 -56t24 -80q0 -30 -13 -59.5t-38.5 -56t-70 -43t-102.5 -16.5q-108 0 -187 38l20 141h111l12 -72q24 -8 61 -8q31 0 46.5 13t15.5 31q0 31 -36 43l-67 24
q-105 38 -105 132q0 32 11.5 62.5t35.5 58t69 44.5t105 17q47 0 94.5 -13t73.5 -30zM448 473l-25 -141h-111l-4 76q-25 5 -47 5q-26 0 -42.5 -13.5t-16.5 -35.5q0 -24 29 -34l73 -27q60 -23 84 -56t24 -80q0 -30 -13 -59.5t-38.5 -56t-70 -43t-102.5 -16.5q-108 0 -187 38
l20 141h111l12 -72q24 -8 61 -8q31 0 46.5 13t15.5 31q0 31 -36 43l-67 24q-105 38 -105 132q0 32 11.5 62.5t35.5 58t69 44.5t105 17q47 0 94.5 -13t73.5 -30z" />
    <glyph glyph-name="fi.sc" horiz-adv-x="790" 
d="M-5 0l18 102h49l53 303h-49l18 102h397l-33 -185h-121l15 83h-95l-21 -120h133l-19 -105h-133l-13 -78h99l-18 -102h-280zM457 0l18 102h57l53 303h-57l18 102h243l-18 -102h-54l-53 -303h53l-18 -102h-242z" />
    <glyph glyph-name="fl.sc" horiz-adv-x="918" 
d="M-5 0l18 102h49l53 303h-49l18 102h397l-33 -185h-121l15 83h-95l-21 -120h133l-19 -105h-133l-13 -78h99l-18 -102h-280zM762 197h119l-35 -197h-391l18 102h49l53 303h-49l18 102h229l-18 -102h-48l-53 -303h91z" />
    <glyph glyph-name="eng.sc" horiz-adv-x="629" 
d="M365 11l-136 291l-35 -200h77l-18 -102h-258l18 102h49l53 303h-49l18 102h178l138 -308l37 206h-67l18 102h247l-18 -102h-48l-70 -395q-19 -107 -136 -179l-78 81q29 22 53 51.5t27 47.5z" />
    <glyph glyph-name="grave.sc" horiz-adv-x="582" 
d="M318 726h132l40 -167h-117z" />
    <glyph glyph-name="acute.sc" horiz-adv-x="582" 
d="M387 726h131l-114 -167h-116z" />
    <glyph glyph-name="circumflex.sc" horiz-adv-x="582" 
d="M335 726h168l49 -167h-113l-31 94l-61 -94h-120z" />
    <glyph glyph-name="caron.sc" horiz-adv-x="582" 
d="M474 559h-168l-49 167h113l31 -94l61 94h120z" />
    <glyph glyph-name="caronalt.sc" horiz-adv-x="582" 
d="M463 507l-98 -175h-98l55 175h141z" />
    <glyph glyph-name="tilde.sc" horiz-adv-x="582" 
d="M560 688l-16 -97q-33 25 -70 25q-22 0 -77 -21t-87 -21q-36 0 -65 21l17 97q26 -25 60 -25q22 0 75.5 21t93.5 21q37 0 69 -21z" />
    <glyph glyph-name="dieresis.sc" horiz-adv-x="582" 
d="M290 556q-66 0 -66 58q0 45 25.5 68.5t66.5 23.5q28 0 46.5 -16t18.5 -46q0 -44 -27 -66t-64 -22zM485 556q-66 0 -66 58q0 45 26 68.5t67 23.5q27 0 45.5 -16t18.5 -46q0 -44 -27 -66t-64 -22z" />
    <glyph glyph-name="macron.sc" horiz-adv-x="582" 
d="M258 676h298l-19 -105h-297z" />
    <glyph glyph-name="breve.sc" horiz-adv-x="582" 
d="M484 709h84q-12 -68 -60 -112t-124 -44q-73 0 -104.5 44t-19.5 112h81q0 -29 16 -45.5t44 -16.5q27 0 49.5 17t33.5 45z" />
    <glyph glyph-name="ring.sc" horiz-adv-x="582" 
d="M293 630q0 48 35 84t93 36q46 0 69.5 -25t23.5 -60q0 -46 -36 -82t-97 -36q-43 0 -65.5 25t-22.5 58zM365 641q0 -29 29 -29q22 0 34 12.5t12 29.5q0 13 -8 22t-24 9q-19 0 -31 -14t-12 -30z" />
    <glyph glyph-name="hungarumlaut.sc" horiz-adv-x="582" 
d="M295 726h132l-114 -167h-117zM482 726h132l-114 -167h-117z" />
    <glyph glyph-name="dotaccent.sc" horiz-adv-x="582" 
d="M389 556q-67 0 -67 58q0 45 26 68.5t67 23.5q27 0 45.5 -16t18.5 -46q0 -45 -26.5 -66.5t-63.5 -21.5z" />
    <glyph glyph-name="exclamdown.sc" horiz-adv-x="262" 
d="M87 323h107l-37 -327h-151zM172 507q30 0 48 -17t18 -43q0 -35 -26.5 -58t-64.5 -23q-28 0 -46 17t-18 43q0 34 26.5 57.5t62.5 23.5z" />
    <glyph glyph-name="questiondown.sc" horiz-adv-x="393" 
d="M231 174h93l2 -118q-77 -60 -175 -60q-73 0 -110.5 31.5t-37.5 76.5q0 32 12.5 59.5t37.5 49t43 33.5t49 30l9 55h108l-20 -110q-108 -42 -108 -84q0 -28 46 -28q22 0 41 7zM246 515q29 0 47 -17t18 -43q0 -35 -26.5 -58t-63.5 -23q-30 0 -47.5 16.5t-17.5 42.5
q0 35 26 58.5t64 23.5z" />
    <glyph glyph-name="Euro.sc" horiz-adv-x="460" 
d="M47 340h31q51 175 250 175q64 0 133 -29l-48 -107q-56 20 -99 20q-66 0 -93 -59h177l-35 -76h-161l-2 -25h156l-33 -76h-116q17 -50 67 -50q57 0 99 12l8 -108q-57 -25 -125 -25q-82 0 -133.5 45.5t-60.5 125.5h-46l13 76h32l2 25h-29z" />
    <glyph glyph-name="cent.sc" horiz-adv-x="407" 
d="M332 217q-33 12 -56 16l-55 -128h4q37 0 91 20l8 -108q-65 -25 -144 -25h-7l-20 -47l-54 11l19 45q-49 17 -74.5 57t-25.5 88q0 85 56.5 145t158.5 60q22 0 33 -1l24 55l55 -12l-22 -52q19 -4 55 -16zM149 156q0 -30 17 -42l52 122q-29 -4 -49 -25t-20 -55z" />
    <glyph glyph-name="sterling.sc" horiz-adv-x="456" 
d="M34 239h44l16 91q33 185 205 185q82 0 158 -31l-47 -160h-98l14 81q-14 4 -30 4q-29 0 -46 -17.5t-24 -59.5l-16 -93h110l-13 -76h-111l-10 -60h186l-19 -103h-361l14 84l52 42l6 37h-44z" />
    <glyph glyph-name="florin.sc" horiz-adv-x="322" 
d="M205 238l-53 -297q-19 -111 -138 -111q-47 0 -80 11l18 100q7 0 28 -0.5t32 -0.5q20 0 23 20l49 278h-61l18 104h61l14 77q20 111 141 111q44 0 77 -11l-18 -100q-7 0 -28 0.5t-32 0.5q-20 0 -23 -20l-10 -58h68l-18 -104h-68z" />
    <glyph glyph-name="yen.sc" horiz-adv-x="522" 
d="M40 239h121l-8 25h-108l13 76h68l-22 65h-46l17 102h208l-17 -102h-40l31 -115l74 115h-39l16 102h216l-16 -102h-47l-47 -65h69l-13 -76h-111l-18 -25h124l-13 -76h-149l-12 -61h42l-17 -102h-219l18 102h44l12 61h-144z" />
    <glyph glyph-name="rupee.sc" horiz-adv-x="493" 
d="M79 507l418 1l-14 -79h-102q18 -22 16 -58h76l-10 -59h-77q-36 -76 -110 -109q22 -22 38.5 -52t19.5 -43h58l-19 -108h-248l19 108h47q1 1 -8 16.5t-23 35t-23 26.5h-115l18 101h114q68 0 87 25h-195l10 59h197q-3 18 -19 25.5t-58 7.5h-115z" />
    <glyph glyph-name="perthousand.sc" horiz-adv-x="977" 
d="M580 507l-3 -14l-406 -493h-85l2 14l405 493h87zM207 515q60 0 92 -30.5t32 -75.5q0 -66 -41 -110t-119 -44q-59 0 -91 30.5t-32 76.5q0 65 41.5 109t117.5 44zM183 353q42 0 42 39q0 24 -31 24q-42 0 -42 -38q0 -25 31 -25zM496 251q60 0 92.5 -30.5t32.5 -75.5
q0 -66 -41.5 -109.5t-119.5 -43.5q-59 0 -90.5 30t-31.5 76q0 65 41 109t117 44zM473 90q41 0 41 38q0 24 -30 24q-42 0 -42 -37q0 -25 31 -25zM798 251q60 0 92.5 -30.5t32.5 -75.5q0 -66 -41.5 -109.5t-119.5 -43.5q-59 0 -90.5 30t-31.5 76q0 65 41 109t117 44zM775 90
q41 0 41 38q0 24 -30 24q-42 0 -42 -37q0 -25 31 -25z" />
    <glyph glyph-name="zero.tf" 
d="M172 235q0 -125 81 -125q69 0 111 94t42 241q0 52 -18.5 86t-59.5 34q-64 0 -110 -99t-46 -231zM556 450q0 -91 -18.5 -171t-56.5 -146.5t-103 -105t-151 -38.5q-103 0 -153.5 68t-50.5 176q0 81 18.5 158.5t56 145t102.5 109t150 41.5q107 0 156.5 -64t49.5 -173z" />
    <glyph glyph-name="one.tf" 
d="M38 0l21 121h156l69 403l-146 -61l-5 122l200 91h118l-98 -555h127l-21 -121h-421z" />
    <glyph glyph-name="two.tf" 
d="M491 190l-33 -190h-449l18 100q80 60 229 200q74 70 92 95q35 47 35 100q0 32 -17 51t-48 19q-30 0 -51 -16q-46 -34 -40 -116l-139 -10q-10 108 54.5 185.5t190.5 77.5q85 0 140 -43.5t55 -125.5q0 -77 -39.5 -139t-123.5 -135l-140 -122h142l12 69h112z" />
    <glyph glyph-name="three.tf" 
d="M210 479h-98l12 144q94 63 199 63q107 0 151.5 -48.5t44.5 -119.5q0 -68 -37.5 -115.5t-98.5 -65.5q102 -22 102 -130q0 -99 -67.5 -158.5t-200.5 -59.5q-66 0 -125.5 21.5t-86.5 50.5l82 106q54 -56 140 -56q59 0 87 25.5t28 67.5q0 66 -102 66h-74l21 120h68
q54 0 87 28.5t33 79.5q0 30 -17.5 48.5t-52.5 18.5q-46 0 -83 -17z" />
    <glyph glyph-name="four.tf" 
d="M530 244l-20 -111h-87l-23 -133h-135l23 133h-296l17 99l270 336q20 25 40 52t29 42l10 14h161l-76 -432h87zM166 244h142l45 246z" />
    <glyph glyph-name="five.tf" 
d="M11 47l42 155h110l-14 -78q33 -13 72 -13q65 0 98 33.5t33 90.5q0 38 -22.5 59.5t-64.5 21.5q-59 0 -146 -26l-36 18l87 368h379l-21 -121h-258l-28 -132q39 16 90 16q82 0 125 -50t43 -141q0 -113 -76 -186t-203 -73q-130 0 -210 58z" />
    <glyph glyph-name="six.tf" 
d="M574 643l-59 -111q-69 33 -131 33q-47 0 -83 -18t-57 -47t-32 -61t-14 -66q54 64 139 64t133.5 -48t48.5 -136q0 -114 -69 -189t-195 -75q-101 0 -157.5 63t-56.5 184q0 75 12.5 140.5t39.5 123t67.5 98.5t100 64.5t132.5 23.5q100 0 181 -43zM261 111q58 0 86.5 33.5
t28.5 87.5q0 72 -76 72q-73 0 -115 -53q-8 -58 10.5 -99t65.5 -41z" />
    <glyph glyph-name="seven.tf" 
d="M65 0l338 565h-163l-20 -117h-127l40 228h457l-17 -93q-47 -61 -109 -165l-242 -418h-157z" />
    <glyph glyph-name="eight.tf" 
d="M547 517q0 -54 -33 -99t-78 -68q75 -49 75 -145q0 -92 -75.5 -154t-188.5 -62q-110 0 -169.5 45t-59.5 127q0 63 37.5 111t85.5 68q-54 47 -54 133q0 88 70 150.5t179 62.5q104 0 157.5 -47t53.5 -122zM304 261l-78 33q-35 -30 -50.5 -53.5t-15.5 -55.5q0 -33 24 -55
t75 -22q53 0 78.5 25t25.5 56q0 48 -59 72zM228 491q0 -48 52 -71l53 -23q75 37 75 100q0 31 -22 53t-66 22q-37 0 -64.5 -22.5t-27.5 -58.5z" />
    <glyph glyph-name="nine.tf" 
d="M6 32l59 111q69 -33 131 -33q47 0 83 18t57 47t32 61t14 66q-54 -64 -139 -64t-133.5 48t-48.5 136q0 114 69 189t195 75q101 0 157.5 -63t56.5 -184q0 -75 -12.5 -140.5t-39.5 -123t-67.5 -98.5t-100 -64.5t-132.5 -23.5q-100 0 -181 43zM319 564q-58 0 -86.5 -33.5
t-28.5 -87.5q0 -72 76 -72q73 0 115 53q8 58 -10.5 99t-65.5 41z" />
    <glyph glyph-name="zero.tosf" 
d="M169 235q0 -110 87 -110q70 0 104.5 57t34.5 156q0 113 -86 113q-69 0 -104.5 -60t-35.5 -156zM536 352q0 -76 -17 -139.5t-51.5 -114.5t-93 -80t-136.5 -29q-102 0 -157 62t-55 174q0 101 32.5 181t102 130t166.5 50q101 0 155 -63t54 -171z" />
    <glyph glyph-name="one.tosf" 
d="M38 0l21 121h156l54 304l-134 -52l-20 111l200 91h118l-80 -454h127l-21 -121h-421z" />
    <glyph glyph-name="two.tosf" 
d="M485 169l-29 -169h-448l16 91q127 90 272 210q74 61 74 106q0 58 -70 58q-44 0 -66 -26.5t-20 -69.5l-139 -8q-7 99 63 162t177 63q97 0 147.5 -43t50.5 -118q0 -52 -31.5 -97.5t-89.5 -94.5q-61 -52 -161 -122h132l11 58h111z" />
    <glyph glyph-name="three.tosf" 
d="M193 379h-98l12 144q94 63 199 63q107 0 151.5 -48.5t44.5 -119.5q0 -68 -37.5 -115.5t-98.5 -65.5q102 -22 102 -130q0 -99 -67.5 -158.5t-200.5 -59.5q-66 0 -125.5 21.5t-86.5 50.5l82 106q54 -56 140 -56q59 0 87 25.5t28 67.5q0 66 -102 66h-74l21 120h68
q54 0 87 28.5t33 79.5q0 30 -17.5 48.5t-52.5 18.5q-46 0 -83 -17z" />
    <glyph glyph-name="four.tosf" 
d="M511 144l-20 -111h-87l-23 -133h-135l23 133h-296l17 99l270 336q20 25 40 52t30 42l9 14h161l-76 -432h87zM147 144h142l45 246z" />
    <glyph glyph-name="five.tosf" 
d="M-7 -53l42 155h110l-14 -78q33 -13 72 -13q65 0 98 33.5t33 90.5q0 38 -22.5 59.5t-64.5 21.5q-59 0 -146 -26l-36 18l87 368h379l-21 -121h-258l-28 -132q39 16 90 16q82 0 125 -50t43 -141q0 -113 -76 -186t-203 -73q-130 0 -210 58z" />
    <glyph glyph-name="six.tosf" 
d="M574 643l-59 -111q-69 33 -131 33q-47 0 -83 -18t-57 -47t-32 -61t-14 -66q54 64 139 64t133.5 -48t48.5 -136q0 -114 -69 -189t-195 -75q-101 0 -157.5 63t-56.5 184q0 75 12.5 140.5t39.5 123t67.5 98.5t100 64.5t132.5 23.5q100 0 181 -43zM261 111q58 0 86.5 33.5
t28.5 87.5q0 72 -76 72q-73 0 -115 -53q-8 -58 10.5 -99t65.5 -41z" />
    <glyph glyph-name="seven.tosf" 
d="M44 -100l338 565h-163l-20 -117h-127l40 228h457l-17 -93q-47 -61 -109 -165l-242 -418h-157z" />
    <glyph glyph-name="eight.tosf" 
d="M547 517q0 -54 -33 -99t-78 -68q75 -49 75 -145q0 -92 -75.5 -154t-188.5 -62q-110 0 -169.5 45t-59.5 127q0 63 37.5 111t85.5 68q-54 47 -54 133q0 88 70 150.5t179 62.5q104 0 157.5 -47t53.5 -122zM304 261l-78 33q-35 -30 -50.5 -53.5t-15.5 -55.5q0 -33 24 -55
t75 -22q53 0 78.5 25t25.5 56q0 48 -59 72zM228 491q0 -48 52 -71l53 -23q75 37 75 100q0 31 -22 53t-66 22q-37 0 -64.5 -22.5t-27.5 -58.5z" />
    <glyph glyph-name="nine.tosf" 
d="M-11 -68l59 111q69 -33 131 -33q47 0 83 18t57 47t32 61t14 66q-54 -64 -139 -64t-133.5 48t-48.5 136q0 114 69 189t195 75q101 0 157.5 -63t56.5 -184q0 -75 -12.5 -140.5t-39.5 -123t-67.5 -98.5t-100 -64.5t-132.5 -23.5q-100 0 -181 43zM302 464q-58 0 -86.5 -33.5
t-28.5 -87.5q0 -72 76 -72q73 0 115 53q8 58 -10.5 99t-65.5 41z" />
    <glyph glyph-name="Euro.tf" 
d="M69 445h41q72 241 314 241q79 0 159 -39l-52 -116q-68 31 -128 31q-104 0 -146 -117h238l-34 -85h-224q-2 -16 -4 -50h214l-30 -85h-182q5 -49 32 -78t69 -29q69 0 135 27l9 -118q-76 -38 -167 -38q-215 0 -228 236h-55l15 85h42q1 24 6 50h-39z" />
    <glyph glyph-name="cent.tf" 
d="M464 526l-29 -71q44 -12 76 -28l-48 -106q-31 12 -75 20l-95 -231h7q65 0 130 25l11 -106q-89 -40 -177 -40q-14 0 -21 1l-25 -62l-61 14l24 59q-113 38 -113 185q0 112 69 196.5t188 84.5q16 0 46 -2l31 75zM213 205q0 -48 22 -73l87 214q-50 -4 -79.5 -40t-29.5 -101z
" />
    <glyph glyph-name="sterling.tf" 
d="M56 310h59l23 132q19 109 82 176.5t174 67.5q102 0 186 -39l-55 -191h-102l19 107q-27 9 -55 9q-47 0 -73.5 -31.5t-37.5 -97.5l-24 -133h153l-15 -85h-153l-20 -114h249l-20 -111h-445l16 91l67 44l16 90h-59z" />
    <glyph glyph-name="florin.tf" 
d="M356 344l-74 -420q-11 -63 -58 -106.5t-121 -43.5q-44 0 -78 12l19 109q57 -3 69 -3q36 0 43 44l72 408h-81l20 112h81l18 100q11 63 58 106.5t122 43.5q43 0 77 -12l-20 -109q-54 3 -68 3q-37 0 -44 -44l-15 -88h90l-20 -112h-90z" />
    <glyph glyph-name="yen.tf" 
d="M36 310h154l-16 50h-129l15 85h86l-39 120h-57l19 111h260l-19 -111h-62l45 -187l114 187h-61l19 111h264l-19 -111h-58l-84 -120h89l-15 -85h-133l-35 -50h159l-15 -85h-182l-20 -114h61l-20 -111h-264l20 111h65l20 114h-177z" />
    <glyph glyph-name="rupee.tf" 
d="M106 676l488 1l-15 -85h-117q18 -36 15 -83h87l-15 -85h-88q-40 -107 -155 -144q34 -33 57.5 -81.5t27.5 -87.5h76l-19 -111h-283l19 111h58q0 29 -24.5 80t-54.5 73h-130l19 108h106q69 0 103 10.5t54 41.5h-253l15 85h255q-8 33 -36.5 44.5t-97.5 11.5h-112z" />
    <glyph glyph-name="dollar.tf" 
d="M251 -103h-79l16 93q-103 7 -177 47l26 185h116l8 -110q13 -8 47 -13l31 180l-25 11q-69 31 -98 72t-28 113q0 68 56.5 133t166.5 77l13 74h79l-13 -74q99 -9 165 -49l-32 -180h-116v109q-13 4 -37 8l-31 -173l34 -12q72 -27 101 -70t29 -110q0 -53 -24 -99t-79 -79
t-133 -39zM350 183q0 46 -37 65l-26 -146q63 18 63 81zM239 490q0 -38 27 -58l24 134q-51 -23 -51 -76z" />
    <glyph glyph-name="zero.osf" horiz-adv-x="573" 
d="M176 235q0 -110 87 -110q70 0 104.5 57t34.5 156q0 113 -86 113q-69 0 -104.5 -60t-35.5 -156zM543 352q0 -76 -17 -139.5t-51.5 -114.5t-93 -80t-136.5 -29q-102 0 -157 62t-55 174q0 101 32.5 181t102 130t166.5 50q101 0 155 -63t54 -171z" />
    <glyph glyph-name="one.osf" horiz-adv-x="462" 
d="M-15 0l21 121h156l54 304l-134 -52l-20 111l200 91h118l-80 -454h127l-21 -121h-421z" />
    <glyph glyph-name="two.osf" horiz-adv-x="513" 
d="M462 169l-29 -169h-448l16 91q127 90 272 210q74 61 74 106q0 58 -70 58q-44 0 -66 -26.5t-20 -69.5l-139 -8q-7 99 63 162t177 63q97 0 147.5 -43t50.5 -118q0 -52 -31.5 -97.5t-89.5 -94.5q-98 -82 -154 -122h125l11 58h111z" />
    <glyph glyph-name="three.osf" horiz-adv-x="500" 
d="M162 379h-98l12 144q95 63 199 63q107 0 151.5 -48.5t44.5 -119.5q0 -68 -37.5 -115.5t-98.5 -65.5q102 -22 102 -130q0 -99 -67.5 -158.5t-200.5 -59.5q-66 0 -124.5 22.5t-86.5 51.5l81 104q54 -56 140 -56q59 0 87 25.5t28 67.5q0 66 -102 66h-74l21 120h68
q54 0 87 28.5t33 79.5q0 30 -17.5 48.5t-52.5 18.5q-46 0 -83 -17z" />
    <glyph glyph-name="four.osf" horiz-adv-x="536" 
d="M501 144l-20 -111h-87l-23 -133h-135l23 133h-296l17 99l270 336q20 25 40 52t30 42l9 14h161l-76 -432h87zM137 144h142l45 246z" />
    <glyph glyph-name="five.osf" horiz-adv-x="510" 
d="M-32 -53l42 155h110l-14 -78q33 -13 72 -13q65 0 98 33.5t33 90.5q0 38 -22.5 59.5t-64.5 21.5q-59 0 -146 -26l-36 18l87 368h379l-21 -121h-258l-28 -132q39 16 90 16q82 0 125 -50t43 -141q0 -113 -76 -186t-203 -73q-130 0 -210 58z" />
    <glyph glyph-name="six.osf" horiz-adv-x="549" 
d="M570 643l-59 -111q-69 33 -131 33q-47 0 -83 -18t-57 -47t-32 -61t-14 -66q54 64 139 64t133.5 -48t48.5 -136q0 -114 -69 -189t-195 -75q-101 0 -157.5 63t-56.5 184q0 75 12.5 140.5t39.5 123t67.5 98.5t100 64.5t132.5 23.5q100 0 181 -43zM257 111q58 0 86.5 33.5
t28.5 87.5q0 72 -76 72q-73 0 -115 -53q-8 -58 10.5 -99t65.5 -41z" />
    <glyph glyph-name="seven.osf" horiz-adv-x="490" 
d="M8 -100l338 565h-163l-20 -117h-127l40 228h457l-17 -93q-53 -68 -109 -165l-242 -418h-157z" />
    <glyph glyph-name="eight.osf" horiz-adv-x="551" 
d="M542 517q0 -54 -33 -99t-78 -68q75 -49 75 -145q0 -92 -75.5 -154t-188.5 -62q-110 0 -169.5 45t-59.5 127q0 63 37.5 111t85.5 68q-54 47 -54 133q0 88 70 150.5t179 62.5q104 0 157.5 -47t53.5 -122zM221 294q-35 -30 -50.5 -53.5t-15.5 -55.5q0 -33 24 -55t75 -22
q53 0 78.5 25t25.5 56q0 48 -59 72zM223 491q0 -48 52 -71l53 -23q75 37 75 100q0 31 -22 53t-66 22q-37 0 -64.5 -22.5t-27.5 -58.5z" />
    <glyph glyph-name="nine.osf" horiz-adv-x="549" 
d="M-18 -68l59 111q69 -33 131 -33q47 0 83 18t57 47t32 61t14 66q-54 -64 -139 -64t-133.5 48t-48.5 136q0 114 69 189t195 75q101 0 157.5 -63t56.5 -184q0 -75 -12.5 -140.5t-39.5 -123t-67.5 -98.5t-100 -64.5t-132.5 -23.5q-100 0 -181 43zM295 464q-58 0 -86.5 -33.5
t-28.5 -87.5q0 -72 76 -72q73 0 115 53q8 58 -10.5 99t-65.5 41z" />
    <glyph glyph-name="zero.denom" horiz-adv-x="385" 
d="M113 140q0 -63 47 -63q38 0 59 43t21 109q0 65 -45 65q-39 0 -60.5 -42.5t-21.5 -111.5zM343 239q0 -46 -11 -87.5t-33.5 -78t-63 -58t-93.5 -21.5q-65 0 -99 36.5t-34 100.5q0 44 10.5 85t33 78.5t64 60t96.5 22.5q64 0 97 -36.5t33 -101.5z" />
    <glyph glyph-name="one.denom" horiz-adv-x="310" 
d="M-16 0l15 81h92l34 195l-84 -34l-7 74l123 56h84l-52 -291h74l-14 -81h-265z" />
    <glyph glyph-name="two.denom" horiz-adv-x="345" 
d="M127 232l-99 -7q-2 8 -2 19q0 56 39.5 94.5t114.5 38.5q58 0 89.5 -27.5t31.5 -70.5q0 -45 -30 -82t-82 -74q-19 -14 -64 -42h74l6 33h79l-20 -114h-277l12 66q44 30 122 94q28 22 40 33.5t24 31t12 40.5q0 15 -8.5 23t-21.5 8q-41 0 -41 -49q0 -8 1 -15z" />
    <glyph glyph-name="three.denom" horiz-adv-x="332" 
d="M107 257h-69l5 85q58 35 125 35t94.5 -29t27.5 -66q0 -36 -21 -62t-58 -36q61 -12 61 -74q0 -51 -42.5 -83.5t-116.5 -32.5q-92 0 -136 40l57 70q33 -28 83 -28q54 0 54 38q0 25 -54 25h-45l14 80h41q27 0 43.5 13t16.5 33q0 31 -34 31q-20 0 -41 -7z" />
    <glyph glyph-name="four.denom" horiz-adv-x="357" 
d="M310 142l-14 -74h-48l-12 -68h-96l12 68h-174l12 66l150 177q11 13 22.5 28t17.5 24l5 9h117l-41 -230h49zM89 142h76l18 107z" />
    <glyph glyph-name="five.denom" horiz-adv-x="335" 
d="M-19 24l26 93h77l-6 -37q15 -4 35 -4q64 0 64 49q0 36 -54 36q-22 0 -80 -10l-22 13l64 208h222l-15 -81h-143l-16 -51q24 4 50 4q47 0 73 -27t26 -71q0 -72 -48 -112t-131 -40q-74 0 -122 30z" />
    <glyph glyph-name="six.denom" horiz-adv-x="360" 
d="M213 295q-36 0 -65 -22.5t-34 -57.5q33 31 94 31q40 0 67.5 -29t27.5 -74q0 -65 -43.5 -107t-120.5 -42q-66 0 -97.5 42t-31.5 100q0 109 56.5 175t161.5 66q59 0 109 -34l-43 -75q-38 27 -81 27zM148 76q25 0 38.5 13.5t13.5 34.5q0 32 -36 32q-31 0 -53 -20
q-5 -25 5 -42.5t32 -17.5z" />
    <glyph glyph-name="seven.denom" horiz-adv-x="319" 
d="M7 0l186 298h-76l-11 -63h-90l24 137h284l-10 -61q-42 -53 -69 -98l-126 -213h-112z" />
    <glyph glyph-name="eight.denom" horiz-adv-x="361" 
d="M320 288q0 -56 -59 -90q41 -26 41 -77q0 -56 -48.5 -91.5t-124.5 -35.5q-59 0 -95 25.5t-36 68.5q0 33 18 57.5t42 35.5q-23 26 -23 67q0 56 46.5 92.5t115.5 36.5q58 0 90.5 -25t32.5 -64zM165 132l-54 19q-13 -19 -13 -37q0 -16 15 -28t42 -12q21 0 31.5 9.5t10.5 18.5
q0 19 -32 30zM134 271q0 -20 30 -32l34 -13q24 14 24 40q0 14 -12 24.5t-34 10.5q-18 0 -30 -8t-12 -22z" />
    <glyph glyph-name="nine.denom" horiz-adv-x="359" 
d="M113 76q37 0 66.5 23t29.5 57q-35 -31 -91 -31q-40 0 -67.5 28t-27.5 69q0 69 44 112t120 43q68 0 98.5 -41.5t30.5 -100.5q0 -109 -56.5 -175t-161.5 -66q-59 0 -109 34l43 75q38 -27 81 -27zM178 295q-25 0 -38.5 -13.5t-13.5 -34.5q0 -32 36 -32q31 0 53 20
q5 25 -5 42.5t-32 17.5z" />
    <glyph glyph-name="zero.num" horiz-adv-x="386" 
d="M167 444q0 -63 47 -63q38 0 59 43t21 109q0 65 -45 65q-39 0 -60.5 -42.5t-21.5 -111.5zM397 543q0 -46 -11 -87.5t-33.5 -78t-63 -58t-93.5 -21.5q-65 0 -99 36.5t-34 100.5q0 44 10.5 85t33 78.5t64 60t96.5 22.5q64 0 97 -36.5t33 -101.5z" />
    <glyph glyph-name="one.num" horiz-adv-x="310" 
d="M38 304l15 81h92l34 195l-84 -34l-7 74l123 56h84l-52 -291h74l-14 -81h-265z" />
    <glyph glyph-name="two.num" horiz-adv-x="345" 
d="M181 536l-99 -7q-2 8 -2 19q0 56 39.5 94.5t114.5 38.5q58 0 89.5 -27.5t31.5 -70.5q0 -79 -94 -143l-82 -55h74l6 33h79l-20 -114h-277l12 66q72 53 122 94q28 22 40 33.5t24 31t12 40.5q0 15 -8.5 23t-21.5 8q-41 0 -41 -49q0 -9 1 -15z" />
    <glyph glyph-name="three.num" horiz-adv-x="333" 
d="M161 561h-69l5 85q58 35 125 35t94.5 -29t27.5 -66q0 -36 -21 -62t-58 -36q61 -12 61 -74q0 -51 -42.5 -83.5t-116.5 -32.5q-92 0 -136 40l57 70q33 -28 83 -28q54 0 54 38q0 25 -54 25h-45l14 80h41q27 0 43.5 13t16.5 33q0 31 -34 31q-20 0 -41 -7z" />
    <glyph glyph-name="four.num" horiz-adv-x="356" 
d="M363 446l-14 -74h-48l-12 -68h-96l12 68h-174l12 66l150 177q11 13 22.5 28t16.5 24l6 9h117l-41 -230h49zM142 446h76l18 107z" />
    <glyph glyph-name="five.num" horiz-adv-x="335" 
d="M34 328l26 93h77l-6 -37q15 -4 35 -4q64 0 64 49q0 36 -54 36q-22 0 -80 -10l-22 13l64 208h222l-15 -81h-143l-16 -51q24 4 50 4q47 0 73 -27t26 -71q0 -72 -48 -112t-131 -40q-74 0 -122 30z" />
    <glyph glyph-name="six.num" horiz-adv-x="359" 
d="M266 599q-36 0 -65 -22.5t-34 -57.5q33 31 94 31q40 0 67.5 -29t27.5 -74q0 -65 -43.5 -107t-120.5 -42q-66 0 -97.5 42t-31.5 100q0 109 56.5 175t161.5 66q59 0 109 -34l-43 -75q-38 27 -81 27zM201 380q25 0 38.5 13.5t13.5 34.5q0 32 -36 32q-31 0 -53 -20
q-5 -25 5 -42.5t32 -17.5z" />
    <glyph glyph-name="seven.num" horiz-adv-x="319" 
d="M61 304l186 298h-76l-11 -63h-90l24 137h284l-10 -61q-42 -53 -69 -98l-126 -213h-112z" />
    <glyph glyph-name="eight.num" horiz-adv-x="361" 
d="M374 592q0 -56 -59 -90q41 -26 41 -77q0 -56 -48.5 -91.5t-124.5 -35.5q-59 0 -95 25.5t-36 68.5q0 33 18 57.5t42 35.5q-23 26 -23 67q0 56 46.5 92.5t115.5 36.5q58 0 90.5 -25t32.5 -64zM219 436l-54 19q-13 -19 -13 -37q0 -16 15 -28t42 -12q21 0 31.5 9.5t10.5 18.5
q0 19 -32 30zM188 575q0 -20 30 -32l34 -13q24 14 24 40q0 14 -12 24.5t-34 10.5q-18 0 -30 -8t-12 -22z" />
    <glyph glyph-name="nine.num" horiz-adv-x="358" 
d="M166 380q37 0 66.5 23t29.5 57q-35 -31 -91 -31q-40 0 -67.5 28t-27.5 69q0 69 44 112t120 43q68 0 98.5 -41.5t30.5 -100.5q0 -109 -56.5 -175t-161.5 -66q-59 0 -109 34l43 75q38 -27 81 -27zM231 599q-25 0 -38.5 -13.5t-13.5 -34.5q0 -32 36 -32q31 0 53 20
q5 25 -5 42.5t-32 17.5z" />
    <glyph glyph-name="parenleft.case" horiz-adv-x="286" 
d="M212 -83l-105 -39q-78 150 -78 340q0 176 57.5 303t183.5 283l93 -39q-97 -150 -147 -278t-50 -280q0 -147 46 -290z" />
    <glyph glyph-name="parenright.case" horiz-adv-x="286" 
d="M-53 -83q112 166 152 285t40 255q0 156 -44 308l107 39q77 -171 77 -344q0 -170 -61 -307t-180 -275z" />
    <glyph glyph-name="hyphen.case" 
d="M100 393h375v-125h-375v125z" />
    <glyph glyph-name="bracketleft.case" horiz-adv-x="335" 
d="M153 796h257l-20 -111h-117l-122 -690h118l-20 -111h-256z" />
    <glyph glyph-name="bracketright.case" horiz-adv-x="335" 
d="M108 796h257l-161 -912h-257l20 111h117l122 690h-117z" />
    <glyph glyph-name="braceleft.case" horiz-adv-x="313" 
d="M24 390q30 0 65.5 20.5t43.5 65.5l31 177q13 78 62 110.5t150 32.5l-17 -100q-25 0 -39.5 -12.5t-20.5 -46.5l-31 -176q-6 -33 -22 -57t-37.5 -36.5t-37 -18.5t-31.5 -9q14 -2 28.5 -8.5t31 -19t24.5 -36.5t2 -54l-35 -195q0 -11 -1.5 -18t2.5 -12l6 -7.5t9.5 -4
t11.5 -1.5h14l-18 -100q-101 0 -138 32t-24 111l32 181q4 24 -3 41.5t-21.5 25.5t-28 11.5t-26.5 3.5z" />
    <glyph glyph-name="bar.case" horiz-adv-x="243" 
d="M172 -116h-79v912h79v-912z" />
    <glyph glyph-name="braceright.case" horiz-adv-x="313" 
d="M329 390l-18 -100q-32 0 -66 -18.5t-42 -63.5l-32 -181q-14 -79 -62.5 -111t-149.5 -32l17 100q19 0 27.5 1.5t17 11.5t12.5 30l34 195q7 40 34 68t50 37.5t44 12.5q-15 3 -28.5 9t-30.5 18.5t-24.5 36.5t-1.5 57l31 176q6 34 -4 46.5t-35 12.5l17 100q101 0 138.5 -32.5
t23.5 -110.5l-31 -177q-5 -31 9.5 -52t33 -27.5t36.5 -6.5z" />
    <glyph glyph-name="guilsinglleft.case" horiz-adv-x="317" 
d="M18 330l242 235l73 -59l-159 -177l97 -176l-94 -58z" />
    <glyph glyph-name="guilsinglright.case" horiz-adv-x="317" 
d="M158 565l160 -235l-243 -235l-73 58l159 176l-96 177z" />
    <glyph glyph-name="guillemotleft.case" horiz-adv-x="540" 
d="M18 330l242 235l73 -59l-159 -177l97 -176l-94 -58zM241 330l242 235l73 -59l-159 -177l97 -176l-94 -58z" />
    <glyph glyph-name="guillemotright.case" horiz-adv-x="540" 
d="M381 565l160 -235l-243 -235l-73 58l159 176l-96 177zM158 565l160 -235l-243 -235l-73 58l159 176l-96 177z" />
    <glyph glyph-name="endash.case" horiz-adv-x="588" 
d="M54 393h495v-125h-495v125z" />
    <glyph glyph-name="emdash.case" horiz-adv-x="728" 
d="M54 393h635v-125h-635v125z" />
    <glyph glyph-name="bullet.case" 
d="M288 191q-64 0 -105 39.5t-41 98.5q0 60 41 99.5t105 39.5q63 0 104 -39.5t41 -99.5q0 -59 -41 -98.5t-104 -39.5z" />
    <glyph glyph-name="periodcentered.case" horiz-adv-x="225" 
d="M115 288q-32 0 -52.5 20t-20.5 49q0 40 28 66t69 26q32 0 52.5 -20t20.5 -50q0 -39 -28.5 -65t-68.5 -26z" />
    <glyph glyph-name="R.alt" horiz-adv-x="646" 
d="M77 111l80 454h-66l20 111h296q217 0 217 -182q0 -68 -46 -121t-119 -73l76 -189h74l-20 -111h-278l20 111h58l-66 173h-78l-30 -173h55l-19 -111h-258l19 111h65zM481 495q0 31 -22 50.5t-67 19.5h-97l-31 -173h90q127 0 127 103z" />
    <glyph glyph-name="Racute.alt" horiz-adv-x="646" 
d="M77 111l80 454h-66l20 111h296q217 0 217 -182q0 -68 -46 -121t-119 -73l76 -189h74l-20 -111h-278l20 111h58l-66 173h-78l-30 -173h55l-19 -111h-258l19 111h65zM481 495q0 31 -22 50.5t-67 19.5h-97l-31 -173h90q127 0 127 103zM418 901h131l-114 -167h-116z" />
    <glyph glyph-name="Rcaron.alt" horiz-adv-x="646" 
d="M77 111l80 454h-66l20 111h296q217 0 217 -182q0 -68 -46 -121t-119 -73l76 -189h74l-20 -111h-278l20 111h58l-66 173h-78l-30 -173h55l-19 -111h-258l19 111h65zM481 495q0 31 -22 50.5t-67 19.5h-97l-31 -173h90q127 0 127 103zM470 734h-168l-49 167h113l31 -94
l61 94h120z" />
    <glyph glyph-name="r_alt.sc" horiz-adv-x="552" 
d="M62 102l54 303h-49l18 102h247q88 0 133.5 -35.5t45.5 -103.5q0 -103 -122 -148l57 -118h61l-18 -102h-239l18 102h38l-40 102h-55l-17 -102h36l-18 -102h-217l18 102h49zM374 362q0 43 -50 43h-76l-20 -102h74q72 0 72 59z" />
    <glyph glyph-name="racute_alt.sc" horiz-adv-x="556" 
d="M62 102l54 303h-49l18 102h247q88 0 133.5 -35.5t45.5 -103.5q0 -103 -122 -148l57 -118h61l-18 -102h-239l18 102h38l-40 102h-55l-17 -102h36l-18 -102h-217l18 102h49zM374 362q0 43 -50 43h-76l-20 -102h74q72 0 72 59zM346 726h131l-114 -167h-116z" />
    <glyph glyph-name="rcaron_alt.sc" horiz-adv-x="556" 
d="M62 102l54 303h-49l18 102h247q88 0 133.5 -35.5t45.5 -103.5q0 -103 -122 -148l57 -118h61l-18 -102h-239l18 102h38l-40 102h-55l-17 -102h36l-18 -102h-217l18 102h49zM374 362q0 43 -50 43h-76l-20 -102h74q72 0 72 59zM395 559h-168l-49 167h113l31 -94l61 94h120z
" />
    <glyph glyph-name="rcommaaccent_alt.sc" horiz-adv-x="555" 
d="M62 102l54 303h-49l18 102h247q88 0 133.5 -35.5t45.5 -103.5q0 -103 -122 -148l57 -118h61l-18 -102h-239l18 102h38l-40 102h-55l-17 -102h36l-18 -102h-217l18 102h49zM374 362q0 43 -50 43h-76l-20 -102h74q72 0 72 59zM297 -61l-84 -155h-102l45 155h141z" />
    <glyph glyph-name="brokenbar.sc" horiz-adv-x="234" 
d="M146 290h-71v292h71v-292zM75 188h71v-290h-71v290z" />
    <glyph glyph-name="Q.alt" horiz-adv-x="646" 
d="M626 441q0 -187 -81 -309l53 -50l-86 -93l-55 53q-78 -53 -186 -53q-116 0 -173.5 70t-57.5 182q0 64 12 125.5t39.5 120t67.5 103t100.5 71t134.5 26.5q121 0 176.5 -66.5t55.5 -179.5zM304 191l82 92l54 -52q36 86 36 209q0 53 -24.5 89t-76.5 36q-81 0 -133.5 -95.5
t-52.5 -227.5t104 -132q39 0 72 21z" />
    <glyph glyph-name="q_alt.sc" horiz-adv-x="555" 
d="M507 318q0 -133 -53 -217l35 -29l-69 -80l-41 37q-62 -37 -152 -37q-99 0 -148 55t-49 142q0 51 7 94.5t26 87.5t49.5 75t81 50.5t116.5 19.5q101 0 149 -55t48 -143zM233 159l65 76l50 -43q16 48 16 117q0 93 -68 93q-55 0 -89 -52t-34 -153q0 -93 70 -93q25 0 42 8z
" />
    <glyph glyph-name="Rcommaaccent.alt" horiz-adv-x="647" 
d="M77 111l80 454h-66l20 111h296q217 0 217 -182q0 -68 -46 -121t-119 -73l76 -189h74l-20 -111h-278l20 111h58l-66 173h-78l-30 -173h55l-19 -111h-258l19 111h65zM481 495q0 31 -22 50.5t-67 19.5h-97l-31 -173h90q127 0 127 103zM355 -61l-84 -155h-102l45 155h141z
" />
    </font>
</defs>
</svg>
